<svg xmlns="http://www.w3.org/2000/svg" width="1280" height="625" fill="none"><path stroke="url(#a)" stroke-opacity=".6" stroke-width=".805" d="M37.31 9.102H8.61v30.34m28.7-30.34v30.34m0-30.34h28.699m-28.7 30.34H8.61m28.7 0v30.34m0-30.34h28.7m-57.4 0v30.34m28.7 0H8.61m28.7 0v30.34m0-30.34h28.7m-57.4 0v30.34m28.7 0H8.61m28.7 0v30.34m0-30.34h28.7m-57.4 0v30.34m28.7 0H8.61m28.7 0v30.339m0-30.339h28.7m-57.4 0v30.339m28.7 0H8.61m28.7 0v30.34m0-30.34h28.7m-57.4 0v30.34m28.7 0H8.61m28.7 0v30.34m0-30.34h28.7m-57.4 0v30.34m28.7 0H8.61m28.7 0v30.34m0-30.34h28.7m-57.4 0v30.34m28.7 0H8.61m28.7 0v30.34m0-30.34h28.7m-57.4 0v30.34m28.7 0H8.61m28.7 0v30.34m0-30.34h28.7m-57.4 0v30.34m28.7 0H8.61m28.7 0v30.339m0-30.339h28.7m-57.4 0v30.339m28.7 0H8.61m28.7 0v30.34m0-30.34h28.7m-57.4 0v30.34m28.7 0H8.61m28.7 0v30.34m0-30.34h28.7m-57.4 0v30.34m28.7 0H8.61m28.7 0v30.34m0-30.34h28.7m-57.4 0v30.34m28.7 0H8.61m28.7 0v30.34m0-30.34h28.7m-57.4 0v30.34m28.7 0H8.61m28.7 0v30.34m0-30.34h28.7m-57.4 0v30.34m28.7 0H8.61m28.7 0v30.339m0-30.339h28.7m-57.4 0v30.339m28.7 0H8.61m28.7 0v30.34m0-30.34h28.7m-57.4 0v30.34m28.7 0H8.61m28.7 0v30.34m0-30.34h28.7m-57.4 0v30.34m28.7 0H8.61m28.7 0v30.34m0-30.34h28.7m-57.4 0v30.34h28.7m0 0h28.7m0-606.797v30.34m0-30.34h28.7m-28.7 30.34v30.34m0-30.34h28.7m-28.7 30.34v30.34m0-30.34h28.7m-28.7 30.34v30.34m0-30.34h28.7m-28.7 30.34v30.339m0-30.339h28.7m-28.7 30.339v30.34m0-30.34h28.7m-28.7 30.34v30.34m0-30.34h28.7m-28.7 30.34v30.34m0-30.34h28.7m-28.7 30.34v30.34m0-30.34h28.7m-28.7 30.34v30.34m0-30.34h28.7m-28.7 30.34v30.339m0-30.339h28.7m-28.7 30.339v30.34m0-30.34h28.7m-28.7 30.34v30.34m0-30.34h28.7m-28.7 30.34v30.34m0-30.34h28.7m-28.7 30.34v30.34m0-30.34h28.7m-28.7 30.34v30.34m0-30.34h28.7m-28.7 30.34v30.339m0-30.339h28.7m-28.7 30.339v30.34m0-30.34h28.7m-28.7 30.34v30.34m0-30.34h28.7m-28.7 30.34v30.34m0-30.34h28.7m-28.7 30.34h28.7m0-606.797v30.34m0-30.34h28.699m-28.7 30.34v30.34m0-30.34h28.7m-28.7 30.34v30.34m0-30.34h28.7m-28.7 30.34v30.34m0-30.34h28.7m-28.7 30.34v30.339m0-30.339h28.7m-28.7 30.339v30.34m0-30.34h28.7m-28.7 30.34v30.34m0-30.34h28.7m-28.7 30.34v30.34m0-30.34h28.7m-28.7 30.34v30.34m0-30.34h28.7m-28.7 30.34v30.34m0-30.34h28.7m-28.7 30.34v30.339m0-30.339h28.7m-28.7 30.339v30.34m0-30.34h28.7m-28.7 30.34v30.34m0-30.34h28.7m-28.7 30.34v30.34m0-30.34h28.7m-28.7 30.34v30.34m0-30.34h28.7m-28.7 30.34v30.34m0-30.34h28.7m-28.7 30.34v30.339m0-30.339h28.7m-28.7 30.339v30.34m0-30.34h28.7m-28.7 30.34v30.34m0-30.34h28.7m-28.7 30.34v30.34m0-30.34h28.7m-28.7 30.34h28.7m0-606.797v30.34m0-30.34h28.699m-28.699 30.34v30.34m0-30.34h28.699m-28.699 30.34v30.34m0-30.34h28.699m-28.699 30.34v30.34m0-30.34h28.699m-28.699 30.34v30.339m0-30.339h28.699m-28.699 30.339v30.34m0-30.34h28.699m-28.699 30.34v30.34m0-30.34h28.699m-28.699 30.34v30.34m0-30.34h28.699m-28.699 30.34v30.34m0-30.34h28.699m-28.699 30.34v30.34m0-30.34h28.699m-28.699 30.34v30.339m0-30.339h28.699m-28.699 30.339v30.34m0-30.34h28.699m-28.699 30.34v30.34m0-30.34h28.699m-28.699 30.34v30.34m0-30.34h28.699m-28.699 30.34v30.34m0-30.34h28.699m-28.699 30.34v30.34m0-30.34h28.699m-28.699 30.34v30.339m0-30.339h28.699m-28.699 30.339v30.34m0-30.34h28.699m-28.699 30.34v30.34m0-30.34h28.699m-28.699 30.34v30.34m0-30.34h28.699m-28.699 30.34h28.699m0-606.797v30.34m0-30.34h28.7m-28.7 30.34v30.34m0-30.34h28.7m-28.7 30.34v30.34m0-30.34h28.7m-28.7 30.34v30.34m0-30.34h28.7m-28.7 30.34v30.339m0-30.339h28.7m-28.7 30.339v30.34m0-30.34h28.7m-28.7 30.34v30.34m0-30.34h28.7m-28.7 30.34v30.34m0-30.34h28.7m-28.7 30.34v30.34m0-30.34h28.7m-28.7 30.34v30.34m0-30.34h28.7m-28.7 30.34v30.339m0-30.339h28.7m-28.7 30.339v30.34m0-30.34h28.7m-28.7 30.34v30.34m0-30.34h28.7m-28.7 30.34v30.34m0-30.34h28.7m-28.7 30.34v30.34m0-30.34h28.7m-28.7 30.34v30.34m0-30.34h28.7m-28.7 30.34v30.339m0-30.339h28.7m-28.7 30.339v30.34m0-30.34h28.7m-28.7 30.34v30.34m0-30.34h28.7m-28.7 30.34v30.34m0-30.34h28.7m-28.7 30.34h28.7m0-606.797v30.34m0-30.34h28.7m-28.7 30.34v30.34m0-30.34h28.7m-28.7 30.34v30.34m0-30.34h28.7m-28.7 30.34v30.34m0-30.34h28.7m-28.7 30.34v30.339m0-30.339h28.7m-28.7 30.339v30.34m0-30.34h28.7m-28.7 30.34v30.34m0-30.34h28.7m-28.7 30.34v30.34m0-30.34h28.7m-28.7 30.34v30.34m0-30.34h28.7m-28.7 30.34v30.34m0-30.34h28.7m-28.7 30.34v30.339m0-30.339h28.7m-28.7 30.339v30.34m0-30.34h28.7m-28.7 30.34v30.34m0-30.34h28.7m-28.7 30.34v30.34m0-30.34h28.7m-28.7 30.34v30.34m0-30.34h28.7m-28.7 30.34v30.34m0-30.34h28.7m-28.7 30.34v30.339m0-30.339h28.7m-28.7 30.339v30.34m0-30.34h28.7m-28.7 30.34v30.34m0-30.34h28.7m-28.7 30.34v30.34m0-30.34h28.7m-28.7 30.34h28.7m0-606.797v30.34m0-30.34h28.699m-28.699 30.34v30.34m0-30.34h28.699m-28.699 30.34v30.34m0-30.34h28.699m-28.699 30.34v30.34m0-30.34h28.699m-28.699 30.34v30.339m0-30.339h28.699m-28.699 30.339v30.34m0-30.34h28.699m-28.699 30.34v30.34m0-30.34h28.699m-28.699 30.34v30.34m0-30.34h28.699m-28.699 30.34v30.34m0-30.34h28.699m-28.699 30.34v30.34m0-30.34h28.699m-28.699 30.34v30.339m0-30.339h28.699m-28.699 30.339v30.34m0-30.34h28.699m-28.699 30.34v30.34m0-30.34h28.699m-28.699 30.34v30.34m0-30.34h28.699m-28.699 30.34v30.34m0-30.34h28.699m-28.699 30.34v30.34m0-30.34h28.699m-28.699 30.34v30.339m0-30.339h28.699m-28.699 30.339v30.34m0-30.34h28.699m-28.699 30.34v30.34m0-30.34h28.699m-28.699 30.34v30.34m0-30.34h28.699m-28.699 30.34h28.699m0-606.797v30.34m0-30.34h28.7m-28.7 30.34v30.34m0-30.34h28.7m-28.7 30.34v30.34m0-30.34h28.7m-28.7 30.34v30.34m0-30.34h28.7m-28.7 30.34v30.339m0-30.339h28.7m-28.7 30.339v30.34m0-30.34h28.7m-28.7 30.34v30.34m0-30.34h28.7m-28.7 30.34v30.34m0-30.34h28.7m-28.7 30.34v30.34m0-30.34h28.7m-28.7 30.34v30.34m0-30.34h28.7m-28.7 30.34v30.339m0-30.339h28.7m-28.7 30.339v30.34m0-30.34h28.7m-28.7 30.34v30.34m0-30.34h28.7m-28.7 30.34v30.34m0-30.34h28.7m-28.7 30.34v30.34m0-30.34h28.7m-28.7 30.34v30.34m0-30.34h28.7m-28.7 30.34v30.339m0-30.339h28.7m-28.7 30.339v30.34m0-30.34h28.7m-28.7 30.34v30.34m0-30.34h28.7m-28.7 30.34v30.34m0-30.34h28.7m-28.7 30.34h28.7m0-606.797v30.34m0-30.34h28.699m-28.699 30.34v30.34m0-30.34h28.699m-28.699 30.34v30.34m0-30.34h28.699m-28.699 30.34v30.34m0-30.34h28.699m-28.699 30.34v30.339m0-30.339h28.699m-28.699 30.339v30.34m0-30.34h28.699m-28.699 30.34v30.34m0-30.34h28.699m-28.699 30.34v30.34m0-30.34h28.699m-28.699 30.34v30.34m0-30.34h28.699m-28.699 30.34v30.34m0-30.34h28.699m-28.699 30.34v30.339m0-30.339h28.699m-28.699 30.339v30.34m0-30.34h28.699m-28.699 30.34v30.34m0-30.34h28.699m-28.699 30.34v30.34m0-30.34h28.699m-28.699 30.34v30.34m0-30.34h28.699m-28.699 30.34v30.34m0-30.34h28.699m-28.699 30.34v30.339m0-30.339h28.699m-28.699 30.339v30.34m0-30.34h28.699m-28.699 30.34v30.34m0-30.34h28.699m-28.699 30.34v30.34m0-30.34h28.699m-28.699 30.34h28.699m0-606.797v30.34m0-30.34h28.7m-28.7 30.34v30.34m0-30.34h28.7m-28.7 30.34v30.34m0-30.34h28.7m-28.7 30.34v30.34m0-30.34h28.7m-28.7 30.34v30.339m0-30.339h28.7m-28.7 30.339v30.34m0-30.34h28.7m-28.7 30.34v30.34m0-30.34h28.7m-28.7 30.34v30.34m0-30.34h28.7m-28.7 30.34v30.34m0-30.34h28.7m-28.7 30.34v30.34m0-30.34h28.7m-28.7 30.34v30.339m0-30.339h28.7m-28.7 30.339v30.34m0-30.34h28.7m-28.7 30.34v30.34m0-30.34h28.7m-28.7 30.34v30.34m0-30.34h28.7m-28.7 30.34v30.34m0-30.34h28.7m-28.7 30.34v30.34m0-30.34h28.7m-28.7 30.34v30.339m0-30.339h28.7m-28.7 30.339v30.34m0-30.34h28.7m-28.7 30.34v30.34m0-30.34h28.7m-28.7 30.34v30.34m0-30.34h28.7m-28.7 30.34h28.7m0-606.797v30.34m0-30.34h28.699m-28.699 30.34v30.34m0-30.34h28.699m-28.699 30.34v30.34m0-30.34h28.699m-28.699 30.34v30.34m0-30.34h28.699m-28.699 30.34v30.339m0-30.339h28.699m-28.699 30.339v30.34m0-30.34h28.699m-28.699 30.34v30.34m0-30.34h28.699m-28.699 30.34v30.34m0-30.34h28.699m-28.699 30.34v30.34m0-30.34h28.699m-28.699 30.34v30.34m0-30.34h28.699m-28.699 30.34v30.339m0-30.339h28.699m-28.699 30.339v30.34m0-30.34h28.699m-28.699 30.34v30.34m0-30.34h28.699m-28.699 30.34v30.34m0-30.34h28.699m-28.699 30.34v30.34m0-30.34h28.699m-28.699 30.34v30.34m0-30.34h28.699m-28.699 30.34v30.339m0-30.339h28.699m-28.699 30.339v30.34m0-30.34h28.699m-28.699 30.34v30.34m0-30.34h28.699m-28.699 30.34v30.34m0-30.34h28.699m-28.699 30.34h28.699m0-606.797v30.34m0-30.34h28.7m-28.7 30.34v30.34m0-30.34h28.7m-28.7 30.34v30.34m0-30.34h28.7m-28.7 30.34v30.34m0-30.34h28.7m-28.7 30.34v30.339m0-30.339h28.7m-28.7 30.339v30.34m0-30.34h28.7m-28.7 30.34v30.34m0-30.34h28.7m-28.7 30.34v30.34m0-30.34h28.7m-28.7 30.34v30.34m0-30.34h28.7m-28.7 30.34v30.34m0-30.34h28.7m-28.7 30.34v30.339m0-30.339h28.7m-28.7 30.339v30.34m0-30.34h28.7m-28.7 30.34v30.34m0-30.34h28.7m-28.7 30.34v30.34m0-30.34h28.7m-28.7 30.34v30.34m0-30.34h28.7m-28.7 30.34v30.34m0-30.34h28.7m-28.7 30.34v30.339m0-30.339h28.7m-28.7 30.339v30.34m0-30.34h28.7m-28.7 30.34v30.34m0-30.34h28.7m-28.7 30.34v30.34m0-30.34h28.7m-28.7 30.34h28.7m0-606.797v30.34m0-30.34h28.699m-28.699 30.34v30.34m0-30.34h28.699m-28.699 30.34v30.34m0-30.34h28.699m-28.699 30.34v30.34m0-30.34h28.699m-28.699 30.34v30.339m0-30.339h28.699m-28.699 30.339v30.34m0-30.34h28.699m-28.699 30.34v30.34m0-30.34h28.699m-28.699 30.34v30.34m0-30.34h28.699m-28.699 30.34v30.34m0-30.34h28.699m-28.699 30.34v30.34m0-30.34h28.699m-28.699 30.34v30.339m0-30.339h28.699m-28.699 30.339v30.34m0-30.34h28.699m-28.699 30.34v30.34m0-30.34h28.699m-28.699 30.34v30.34m0-30.34h28.699m-28.699 30.34v30.34m0-30.34h28.699m-28.699 30.34v30.34m0-30.34h28.699m-28.699 30.34v30.339m0-30.339h28.699m-28.699 30.339v30.34m0-30.34h28.699m-28.699 30.34v30.34m0-30.34h28.699m-28.699 30.34v30.34m0-30.34h28.699m-28.699 30.34h28.699m0-606.797v30.34m0-30.34h28.7m-28.7 30.34v30.34m0-30.34h28.7m-28.7 30.34v30.34m0-30.34h28.7m-28.7 30.34v30.34m0-30.34h28.7m-28.7 30.34v30.339m0-30.339h28.7m-28.7 30.339v30.34m0-30.34h28.7m-28.7 30.34v30.34m0-30.34h28.7m-28.7 30.34v30.34m0-30.34h28.7m-28.7 30.34v30.34m0-30.34h28.7m-28.7 30.34v30.34m0-30.34h28.7m-28.7 30.34v30.339m0-30.339h28.7m-28.7 30.339v30.34m0-30.34h28.7m-28.7 30.34v30.34m0-30.34h28.7m-28.7 30.34v30.34m0-30.34h28.7m-28.7 30.34v30.34m0-30.34h28.7m-28.7 30.34v30.34m0-30.34h28.7m-28.7 30.34v30.339m0-30.339h28.7m-28.7 30.339v30.34m0-30.34h28.7m-28.7 30.34v30.34m0-30.34h28.7m-28.7 30.34v30.34m0-30.34h28.7m-28.7 30.34h28.7m0-606.797v30.34m0-30.34h28.7m-28.7 30.34v30.34m0-30.34h28.7m-28.7 30.34v30.34m0-30.34h28.7m-28.7 30.34v30.34m0-30.34h28.7m-28.7 30.34v30.339m0-30.339h28.7m-28.7 30.339v30.34m0-30.34h28.7m-28.7 30.34v30.34m0-30.34h28.7m-28.7 30.34v30.34m0-30.34h28.7m-28.7 30.34v30.34m0-30.34h28.7m-28.7 30.34v30.34m0-30.34h28.7m-28.7 30.34v30.339m0-30.339h28.7m-28.7 30.339v30.34m0-30.34h28.7m-28.7 30.34v30.34m0-30.34h28.7m-28.7 30.34v30.34m0-30.34h28.7m-28.7 30.34v30.34m0-30.34h28.7m-28.7 30.34v30.34m0-30.34h28.7m-28.7 30.34v30.339m0-30.339h28.7m-28.7 30.339v30.34m0-30.34h28.7m-28.7 30.34v30.34m0-30.34h28.7m-28.7 30.34v30.34m0-30.34h28.7m-28.7 30.34h28.7m0-606.797v30.34m0-30.34h28.699m-28.699 30.34v30.34m0-30.34h28.699m-28.699 30.34v30.34m0-30.34h28.699m-28.699 30.34v30.34m0-30.34h28.699m-28.699 30.34v30.339m0-30.339h28.699m-28.699 30.339v30.34m0-30.34h28.699m-28.699 30.34v30.34m0-30.34h28.699m-28.699 30.34v30.34m0-30.34h28.699m-28.699 30.34v30.34m0-30.34h28.699m-28.699 30.34v30.34m0-30.34h28.699m-28.699 30.34v30.339m0-30.339h28.699m-28.699 30.339v30.34m0-30.34h28.699m-28.699 30.34v30.34m0-30.34h28.699m-28.699 30.34v30.34m0-30.34h28.699m-28.699 30.34v30.34m0-30.34h28.699m-28.699 30.34v30.34m0-30.34h28.699m-28.699 30.34v30.339m0-30.339h28.699m-28.699 30.339v30.34m0-30.34h28.699m-28.699 30.34v30.34m0-30.34h28.699m-28.699 30.34v30.34m0-30.34h28.699m-28.699 30.34h28.699m0-606.797v30.34m0-30.34h28.7m-28.7 30.34v30.34m0-30.34h28.7m-28.7 30.34v30.34m0-30.34h28.7m-28.7 30.34v30.34m0-30.34h28.7m-28.7 30.34v30.339m0-30.339h28.7m-28.7 30.339v30.34m0-30.34h28.7m-28.7 30.34v30.34m0-30.34h28.7m-28.7 30.34v30.34m0-30.34h28.7m-28.7 30.34v30.34m0-30.34h28.7m-28.7 30.34v30.34m0-30.34h28.7m-28.7 30.34v30.339m0-30.339h28.7m-28.7 30.339v30.34m0-30.34h28.7m-28.7 30.34v30.34m0-30.34h28.7m-28.7 30.34v30.34m0-30.34h28.7m-28.7 30.34v30.34m0-30.34h28.7m-28.7 30.34v30.34m0-30.34h28.7m-28.7 30.34v30.339m0-30.339h28.7m-28.7 30.339v30.34m0-30.34h28.7m-28.7 30.34v30.34m0-30.34h28.7m-28.7 30.34v30.34m0-30.34h28.7m-28.7 30.34h28.7m0-606.797v30.34m0-30.34h28.699m-28.699 30.34v30.34m0-30.34h28.699m-28.699 30.34v30.34m0-30.34h28.699m-28.699 30.34v30.34m0-30.34h28.699m-28.699 30.34v30.339m0-30.339h28.699m-28.699 30.339v30.34m0-30.34h28.699m-28.699 30.34v30.34m0-30.34h28.699m-28.699 30.34v30.34m0-30.34h28.699m-28.699 30.34v30.34m0-30.34h28.699m-28.699 30.34v30.34m0-30.34h28.699m-28.699 30.34v30.339m0-30.339h28.699m-28.699 30.339v30.34m0-30.34h28.699m-28.699 30.34v30.34m0-30.34h28.699m-28.699 30.34v30.34m0-30.34h28.699m-28.699 30.34v30.34m0-30.34h28.699m-28.699 30.34v30.34m0-30.34h28.699m-28.699 30.34v30.339m0-30.339h28.699m-28.699 30.339v30.34m0-30.34h28.699m-28.699 30.34v30.34m0-30.34h28.699m-28.699 30.34v30.34m0-30.34h28.699m-28.699 30.34h28.699m0-606.797v30.34m0-30.34h28.7m-28.7 30.34v30.34m0-30.34h28.7m-28.7 30.34v30.34m0-30.34h28.7m-28.7 30.34v30.34m0-30.34h28.7m-28.7 30.34v30.339m0-30.339h28.7m-28.7 30.339v30.34m0-30.34h28.7m-28.7 30.34v30.34m0-30.34h28.7m-28.7 30.34v30.34m0-30.34h28.7m-28.7 30.34v30.34m0-30.34h28.7m-28.7 30.34v30.34m0-30.34h28.7m-28.7 30.34v30.339m0-30.339h28.7m-28.7 30.339v30.34m0-30.34h28.7m-28.7 30.34v30.34m0-30.34h28.7m-28.7 30.34v30.34m0-30.34h28.7m-28.7 30.34v30.34m0-30.34h28.7m-28.7 30.34v30.34m0-30.34h28.7m-28.7 30.34v30.339m0-30.339h28.7m-28.7 30.339v30.34m0-30.34h28.7m-28.7 30.34v30.34m0-30.34h28.7m-28.7 30.34v30.34m0-30.34h28.7m-28.7 30.34h28.7m0-606.797v30.34m0-30.34H611.3m-28.699 30.34v30.34m0-30.34H611.3m-28.699 30.34v30.34m0-30.34H611.3m-28.699 30.34v30.34m0-30.34H611.3m-28.699 30.34v30.339m0-30.339H611.3m-28.699 30.339v30.34m0-30.34H611.3m-28.699 30.34v30.34m0-30.34H611.3m-28.699 30.34v30.34m0-30.34H611.3m-28.699 30.34v30.34m0-30.34H611.3m-28.699 30.34v30.34m0-30.34H611.3m-28.699 30.34v30.339m0-30.339H611.3m-28.699 30.339v30.34m0-30.34H611.3m-28.699 30.34v30.34m0-30.34H611.3m-28.699 30.34v30.34m0-30.34H611.3m-28.699 30.34v30.34m0-30.34H611.3m-28.699 30.34v30.34m0-30.34H611.3m-28.699 30.34v30.339m0-30.339H611.3m-28.699 30.339v30.34m0-30.34H611.3m-28.699 30.34v30.34m0-30.34H611.3m-28.699 30.34v30.34m0-30.34H611.3m-28.699 30.34H611.3m0-606.797v30.34m0-30.34H640m-28.7 30.34v30.34m0-30.34H640m-28.7 30.34v30.34m0-30.34H640m-28.7 30.34v30.34m0-30.34H640m-28.7 30.34v30.339m0-30.339H640m-28.7 30.339v30.34m0-30.34H640m-28.7 30.34v30.34m0-30.34H640m-28.7 30.34v30.34m0-30.34H640m-28.7 30.34v30.34m0-30.34H640m-28.7 30.34v30.34m0-30.34H640m-28.7 30.34v30.339m0-30.339H640m-28.7 30.339v30.34m0-30.34H640m-28.7 30.34v30.34m0-30.34H640m-28.7 30.34v30.34m0-30.34H640m-28.7 30.34v30.34m0-30.34H640m-28.7 30.34v30.34m0-30.34H640m-28.7 30.34v30.339m0-30.339H640m-28.7 30.339v30.34m0-30.34H640m-28.7 30.34v30.34m0-30.34H640m-28.7 30.34v30.34m0-30.34H640m-28.7 30.34H640m0-606.797v30.34m0-30.34h28.699M640 39.442v30.34m0-30.34h28.699M640 69.782v30.34m0-30.34h28.699M640 100.122v30.34m0-30.34h28.699M640 130.462v30.339m0-30.339h28.699M640 160.801v30.34m0-30.34h28.699M640 191.141v30.34m0-30.34h28.699M640 221.481v30.34m0-30.34h28.699M640 251.821v30.34m0-30.34h28.699M640 282.161v30.34m0-30.34h28.699M640 312.501v30.339m0-30.339h28.699M640 342.84v30.34m0-30.34h28.699M640 373.18v30.34m0-30.34h28.699M640 403.52v30.34m0-30.34h28.699M640 433.86v30.34m0-30.34h28.699M640 464.2v30.34m0-30.34h28.699M640 494.54v30.339m0-30.339h28.699M640 524.879v30.34m0-30.34h28.699M640 555.219v30.34m0-30.34h28.699M640 585.559v30.34m0-30.34h28.699M640 615.899h28.699m0-606.797v30.34m0-30.34h28.7m-28.7 30.34v30.34m0-30.34h28.7m-28.7 30.34v30.34m0-30.34h28.7m-28.7 30.34v30.34m0-30.34h28.7m-28.7 30.34v30.339m0-30.339h28.7m-28.7 30.339v30.34m0-30.34h28.7m-28.7 30.34v30.34m0-30.34h28.7m-28.7 30.34v30.34m0-30.34h28.7m-28.7 30.34v30.34m0-30.34h28.7m-28.7 30.34v30.34m0-30.34h28.7m-28.7 30.34v30.339m0-30.339h28.7m-28.7 30.339v30.34m0-30.34h28.7m-28.7 30.34v30.34m0-30.34h28.7m-28.7 30.34v30.34m0-30.34h28.7m-28.7 30.34v30.34m0-30.34h28.7m-28.7 30.34v30.34m0-30.34h28.7m-28.7 30.34v30.339m0-30.339h28.7m-28.7 30.339v30.34m0-30.34h28.7m-28.7 30.34v30.34m0-30.34h28.7m-28.7 30.34v30.34m0-30.34h28.7m-28.7 30.34h28.7m0-606.797v30.34m0-30.34h28.7m-28.7 30.34v30.34m0-30.34h28.7m-28.7 30.34v30.34m0-30.34h28.7m-28.7 30.34v30.34m0-30.34h28.7m-28.7 30.34v30.339m0-30.339h28.7m-28.7 30.339v30.34m0-30.34h28.7m-28.7 30.34v30.34m0-30.34h28.7m-28.7 30.34v30.34m0-30.34h28.7m-28.7 30.34v30.34m0-30.34h28.7m-28.7 30.34v30.34m0-30.34h28.7m-28.7 30.34v30.339m0-30.339h28.7m-28.7 30.339v30.34m0-30.34h28.7m-28.7 30.34v30.34m0-30.34h28.7m-28.7 30.34v30.34m0-30.34h28.7m-28.7 30.34v30.34m0-30.34h28.7m-28.7 30.34v30.34m0-30.34h28.7m-28.7 30.34v30.339m0-30.339h28.7m-28.7 30.339v30.34m0-30.34h28.7m-28.7 30.34v30.34m0-30.34h28.7m-28.7 30.34v30.34m0-30.34h28.7m-28.7 30.34h28.7m0-606.797v30.34m0-30.34h28.699m-28.699 30.34v30.34m0-30.34h28.699m-28.699 30.34v30.34m0-30.34h28.699m-28.699 30.34v30.34m0-30.34h28.699m-28.699 30.34v30.339m0-30.339h28.699m-28.699 30.339v30.34m0-30.34h28.699m-28.699 30.34v30.34m0-30.34h28.699m-28.699 30.34v30.34m0-30.34h28.699m-28.699 30.34v30.34m0-30.34h28.699m-28.699 30.34v30.34m0-30.34h28.699m-28.699 30.34v30.339m0-30.339h28.699m-28.699 30.339v30.34m0-30.34h28.699m-28.699 30.34v30.34m0-30.34h28.699m-28.699 30.34v30.34m0-30.34h28.699m-28.699 30.34v30.34m0-30.34h28.699m-28.699 30.34v30.34m0-30.34h28.699m-28.699 30.34v30.339m0-30.339h28.699m-28.699 30.339v30.34m0-30.34h28.699m-28.699 30.34v30.34m0-30.34h28.699m-28.699 30.34v30.34m0-30.34h28.699m-28.699 30.34h28.699m0-606.797v30.34m0-30.34h28.7m-28.7 30.34v30.34m0-30.34h28.7m-28.7 30.34v30.34m0-30.34h28.7m-28.7 30.34v30.34m0-30.34h28.7m-28.7 30.34v30.339m0-30.339h28.7m-28.7 30.339v30.34m0-30.34h28.7m-28.7 30.34v30.34m0-30.34h28.7m-28.7 30.34v30.34m0-30.34h28.7m-28.7 30.34v30.34m0-30.34h28.7m-28.7 30.34v30.34m0-30.34h28.7m-28.7 30.34v30.339m0-30.339h28.7m-28.7 30.339v30.34m0-30.34h28.7m-28.7 30.34v30.34m0-30.34h28.7m-28.7 30.34v30.34m0-30.34h28.7m-28.7 30.34v30.34m0-30.34h28.7m-28.7 30.34v30.34m0-30.34h28.7m-28.7 30.34v30.339m0-30.339h28.7m-28.7 30.339v30.34m0-30.34h28.7m-28.7 30.34v30.34m0-30.34h28.7m-28.7 30.34v30.34m0-30.34h28.7m-28.7 30.34h28.7m0-606.797v30.34m0-30.34h28.699m-28.699 30.34v30.34m0-30.34h28.699m-28.699 30.34v30.34m0-30.34h28.699m-28.699 30.34v30.34m0-30.34h28.699m-28.699 30.34v30.339m0-30.339h28.699m-28.699 30.339v30.34m0-30.34h28.699m-28.699 30.34v30.34m0-30.34h28.699m-28.699 30.34v30.34m0-30.34h28.699m-28.699 30.34v30.34m0-30.34h28.699m-28.699 30.34v30.34m0-30.34h28.699m-28.699 30.34v30.339m0-30.339h28.699m-28.699 30.339v30.34m0-30.34h28.699m-28.699 30.34v30.34m0-30.34h28.699m-28.699 30.34v30.34m0-30.34h28.699m-28.699 30.34v30.34m0-30.34h28.699m-28.699 30.34v30.34m0-30.34h28.699m-28.699 30.34v30.339m0-30.339h28.699m-28.699 30.339v30.34m0-30.34h28.699m-28.699 30.34v30.34m0-30.34h28.699m-28.699 30.34v30.34m0-30.34h28.699m-28.699 30.34h28.699m0-606.797v30.34m0-30.34h28.7m-28.7 30.34v30.34m0-30.34h28.7m-28.7 30.34v30.34m0-30.34h28.7m-28.7 30.34v30.34m0-30.34h28.7m-28.7 30.34v30.339m0-30.339h28.7m-28.7 30.339v30.34m0-30.34h28.7m-28.7 30.34v30.34m0-30.34h28.7m-28.7 30.34v30.34m0-30.34h28.7m-28.7 30.34v30.34m0-30.34h28.7m-28.7 30.34v30.34m0-30.34h28.7m-28.7 30.34v30.339m0-30.339h28.7m-28.7 30.339v30.34m0-30.34h28.7m-28.7 30.34v30.34m0-30.34h28.7m-28.7 30.34v30.34m0-30.34h28.7m-28.7 30.34v30.34m0-30.34h28.7m-28.7 30.34v30.34m0-30.34h28.7m-28.7 30.34v30.339m0-30.339h28.7m-28.7 30.339v30.34m0-30.34h28.7m-28.7 30.34v30.34m0-30.34h28.7m-28.7 30.34v30.34m0-30.34h28.7m-28.7 30.34h28.7m0-606.797v30.34m0-30.34h28.699m-28.699 30.34v30.34m0-30.34h28.699m-28.699 30.34v30.34m0-30.34h28.699m-28.699 30.34v30.34m0-30.34h28.699m-28.699 30.34v30.339m0-30.339h28.699m-28.699 30.339v30.34m0-30.34h28.699m-28.699 30.34v30.34m0-30.34h28.699m-28.699 30.34v30.34m0-30.34h28.699m-28.699 30.34v30.34m0-30.34h28.699m-28.699 30.34v30.34m0-30.34h28.699m-28.699 30.34v30.339m0-30.339h28.699m-28.699 30.339v30.34m0-30.34h28.699m-28.699 30.34v30.34m0-30.34h28.699m-28.699 30.34v30.34m0-30.34h28.699m-28.699 30.34v30.34m0-30.34h28.699m-28.699 30.34v30.34m0-30.34h28.699m-28.699 30.34v30.339m0-30.339h28.699m-28.699 30.339v30.34m0-30.34h28.699m-28.699 30.34v30.34m0-30.34h28.699m-28.699 30.34v30.34m0-30.34h28.699m-28.699 30.34h28.699m0-606.797v30.34m0-30.34h28.7m-28.7 30.34v30.34m0-30.34h28.7m-28.7 30.34v30.34m0-30.34h28.7m-28.7 30.34v30.34m0-30.34h28.7m-28.7 30.34v30.339m0-30.339h28.7m-28.7 30.339v30.34m0-30.34h28.7m-28.7 30.34v30.34m0-30.34h28.7m-28.7 30.34v30.34m0-30.34h28.7m-28.7 30.34v30.34m0-30.34h28.7m-28.7 30.34v30.34m0-30.34h28.7m-28.7 30.34v30.339m0-30.339h28.7m-28.7 30.339v30.34m0-30.34h28.7m-28.7 30.34v30.34m0-30.34h28.7m-28.7 30.34v30.34m0-30.34h28.7m-28.7 30.34v30.34m0-30.34h28.7m-28.7 30.34v30.34m0-30.34h28.7m-28.7 30.34v30.339m0-30.339h28.7m-28.7 30.339v30.34m0-30.34h28.7m-28.7 30.34v30.34m0-30.34h28.7m-28.7 30.34v30.34m0-30.34h28.7m-28.7 30.34h28.7m0-606.797v30.34m0-30.34h28.699m-28.699 30.34v30.34m0-30.34h28.699m-28.699 30.34v30.34m0-30.34h28.699m-28.699 30.34v30.34m0-30.34h28.699m-28.699 30.34v30.339m0-30.339h28.699m-28.699 30.339v30.34m0-30.34h28.699m-28.699 30.34v30.34m0-30.34h28.699m-28.699 30.34v30.34m0-30.34h28.699m-28.699 30.34v30.34m0-30.34h28.699m-28.699 30.34v30.34m0-30.34h28.699m-28.699 30.34v30.339m0-30.339h28.699m-28.699 30.339v30.34m0-30.34h28.699m-28.699 30.34v30.34m0-30.34h28.699m-28.699 30.34v30.34m0-30.34h28.699m-28.699 30.34v30.34m0-30.34h28.699m-28.699 30.34v30.34m0-30.34h28.699m-28.699 30.34v30.339m0-30.339h28.699m-28.699 30.339v30.34m0-30.34h28.699m-28.699 30.34v30.34m0-30.34h28.699m-28.699 30.34v30.34m0-30.34h28.699m-28.699 30.34h28.699m0-606.797v30.34m0-30.34h28.7m-28.7 30.34v30.34m0-30.34h28.7m-28.7 30.34v30.34m0-30.34h28.7m-28.7 30.34v30.34m0-30.34h28.7m-28.7 30.34v30.339m0-30.339h28.7m-28.7 30.339v30.34m0-30.34h28.7m-28.7 30.34v30.34m0-30.34h28.7m-28.7 30.34v30.34m0-30.34h28.7m-28.7 30.34v30.34m0-30.34h28.7m-28.7 30.34v30.34m0-30.34h28.7m-28.7 30.34v30.339m0-30.339h28.7m-28.7 30.339v30.34m0-30.34h28.7m-28.7 30.34v30.34m0-30.34h28.7m-28.7 30.34v30.34m0-30.34h28.7m-28.7 30.34v30.34m0-30.34h28.7m-28.7 30.34v30.34m0-30.34h28.7m-28.7 30.34v30.339m0-30.339h28.7m-28.7 30.339v30.34m0-30.34h28.7m-28.7 30.34v30.34m0-30.34h28.7m-28.7 30.34v30.34m0-30.34h28.7m-28.7 30.34h28.7m0-606.797v30.34m0-30.34h28.7m-28.7 30.34v30.34m0-30.34h28.7m-28.7 30.34v30.34m0-30.34h28.7m-28.7 30.34v30.34m0-30.34h28.7m-28.7 30.34v30.339m0-30.339h28.7m-28.7 30.339v30.34m0-30.34h28.7m-28.7 30.34v30.34m0-30.34h28.7m-28.7 30.34v30.34m0-30.34h28.7m-28.7 30.34v30.34m0-30.34h28.7m-28.7 30.34v30.34m0-30.34h28.7m-28.7 30.34v30.339m0-30.339h28.7m-28.7 30.339v30.34m0-30.34h28.7m-28.7 30.34v30.34m0-30.34h28.7m-28.7 30.34v30.34m0-30.34h28.7m-28.7 30.34v30.34m0-30.34h28.7m-28.7 30.34v30.34m0-30.34h28.7m-28.7 30.34v30.339m0-30.339h28.7m-28.7 30.339v30.34m0-30.34h28.7m-28.7 30.34v30.34m0-30.34h28.7m-28.7 30.34v30.34m0-30.34h28.7m-28.7 30.34h28.7m0-606.797v30.34m0-30.34h28.695m-28.695 30.34v30.34m0-30.34h28.695m-28.695 30.34v30.34m0-30.34h28.695m-28.695 30.34v30.34m0-30.34h28.695m-28.695 30.34v30.339m0-30.339h28.695m-28.695 30.339v30.34m0-30.34h28.695m-28.695 30.34v30.34m0-30.34h28.695m-28.695 30.34v30.34m0-30.34h28.695m-28.695 30.34v30.34m0-30.34h28.695m-28.695 30.34v30.34m0-30.34h28.695m-28.695 30.34v30.339m0-30.339h28.695m-28.695 30.339v30.34m0-30.34h28.695m-28.695 30.34v30.34m0-30.34h28.695m-28.695 30.34v30.34m0-30.34h28.695m-28.695 30.34v30.34m0-30.34h28.695m-28.695 30.34v30.34m0-30.34h28.695m-28.695 30.34v30.339m0-30.339h28.695m-28.695 30.339v30.34m0-30.34h28.695m-28.695 30.34v30.34m0-30.34h28.695m-28.695 30.34v30.34m0-30.34h28.695m-28.695 30.34h28.695m0-606.797v30.34m0-30.34h28.7m-28.7 30.34v30.34m0-30.34h28.7m-28.7 30.34v30.34m0-30.34h28.7m-28.7 30.34v30.34m0-30.34h28.7m-28.7 30.34v30.339m0-30.339h28.7m-28.7 30.339v30.34m0-30.34h28.7m-28.7 30.34v30.34m0-30.34h28.7m-28.7 30.34v30.34m0-30.34h28.7m-28.7 30.34v30.34m0-30.34h28.7m-28.7 30.34v30.34m0-30.34h28.7m-28.7 30.34v30.339m0-30.339h28.7m-28.7 30.339v30.34m0-30.34h28.7m-28.7 30.34v30.34m0-30.34h28.7m-28.7 30.34v30.34m0-30.34h28.7m-28.7 30.34v30.34m0-30.34h28.7m-28.7 30.34v30.34m0-30.34h28.7m-28.7 30.34v30.339m0-30.339h28.7m-28.7 30.339v30.34m0-30.34h28.7m-28.7 30.34v30.34m0-30.34h28.7m-28.7 30.34v30.34m0-30.34h28.7m-28.7 30.34h28.7m0-606.797v30.34m0-30.34h28.7m-28.7 30.34v30.34m0-30.34h28.7m-28.7 30.34v30.34m0-30.34h28.7m-28.7 30.34v30.34m0-30.34h28.7m-28.7 30.34v30.339m0-30.339h28.7m-28.7 30.339v30.34m0-30.34h28.7m-28.7 30.34v30.34m0-30.34h28.7m-28.7 30.34v30.34m0-30.34h28.7m-28.7 30.34v30.34m0-30.34h28.7m-28.7 30.34v30.34m0-30.34h28.7m-28.7 30.34v30.339m0-30.339h28.7m-28.7 30.339v30.34m0-30.34h28.7m-28.7 30.34v30.34m0-30.34h28.7m-28.7 30.34v30.34m0-30.34h28.7m-28.7 30.34v30.34m0-30.34h28.7m-28.7 30.34v30.34m0-30.34h28.7m-28.7 30.34v30.339m0-30.339h28.7m-28.7 30.339v30.34m0-30.34h28.7m-28.7 30.34v30.34m0-30.34h28.7m-28.7 30.34v30.34m0-30.34h28.7m-28.7 30.34h28.7m0-606.797v30.34m0-30.34h28.7m-28.7 30.34v30.34m0-30.34h28.7m-28.7 30.34v30.34m0-30.34h28.7m-28.7 30.34v30.34m0-30.34h28.7m-28.7 30.34v30.339m0-30.339h28.7m-28.7 30.339v30.34m0-30.34h28.7m-28.7 30.34v30.34m0-30.34h28.7m-28.7 30.34v30.34m0-30.34h28.7m-28.7 30.34v30.34m0-30.34h28.7m-28.7 30.34v30.34m0-30.34h28.7m-28.7 30.34v30.339m0-30.339h28.7m-28.7 30.339v30.34m0-30.34h28.7m-28.7 30.34v30.34m0-30.34h28.7m-28.7 30.34v30.34m0-30.34h28.7m-28.7 30.34v30.34m0-30.34h28.7m-28.7 30.34v30.34m0-30.34h28.7m-28.7 30.34v30.339m0-30.339h28.7m-28.7 30.339v30.34m0-30.34h28.7m-28.7 30.34v30.34m0-30.34h28.7m-28.7 30.34v30.34m0-30.34h28.7m-28.7 30.34h28.7m0-606.797v30.34m0-30.34h28.7m-28.7 30.34v30.34m0-30.34h28.7m-28.7 30.34v30.34m0-30.34h28.7m-28.7 30.34v30.34m0-30.34h28.7m-28.7 30.34v30.339m0-30.339h28.7m-28.7 30.339v30.34m0-30.34h28.7m-28.7 30.34v30.34m0-30.34h28.7m-28.7 30.34v30.34m0-30.34h28.7m-28.7 30.34v30.34m0-30.34h28.7m-28.7 30.34v30.34m0-30.34h28.7m-28.7 30.34v30.339m0-30.339h28.7m-28.7 30.339v30.34m0-30.34h28.7m-28.7 30.34v30.34m0-30.34h28.7m-28.7 30.34v30.34m0-30.34h28.7m-28.7 30.34v30.34m0-30.34h28.7m-28.7 30.34v30.34m0-30.34h28.7m-28.7 30.34v30.339m0-30.339h28.7m-28.7 30.339v30.34m0-30.34h28.7m-28.7 30.34v30.34m0-30.34h28.7m-28.7 30.34v30.34m0-30.34h28.7m-28.7 30.34h28.7m0-606.797v30.34m0-30.34h28.7m-28.7 30.34v30.34m0-30.34h28.7m-28.7 30.34v30.34m0-30.34h28.7m-28.7 30.34v30.34m0-30.34h28.7m-28.7 30.34v30.339m0-30.339h28.7m-28.7 30.339v30.34m0-30.34h28.7m-28.7 30.34v30.34m0-30.34h28.7m-28.7 30.34v30.34m0-30.34h28.7m-28.7 30.34v30.34m0-30.34h28.7m-28.7 30.34v30.34m0-30.34h28.7m-28.7 30.34v30.339m0-30.339h28.7m-28.7 30.339v30.34m0-30.34h28.7m-28.7 30.34v30.34m0-30.34h28.7m-28.7 30.34v30.34m0-30.34h28.7m-28.7 30.34v30.34m0-30.34h28.7m-28.7 30.34v30.34m0-30.34h28.7m-28.7 30.34v30.339m0-30.339h28.7m-28.7 30.339v30.34m0-30.34h28.7m-28.7 30.34v30.34m0-30.34h28.7m-28.7 30.34v30.34m0-30.34h28.7m-28.7 30.34h28.7m0-606.797v30.34m0-30.34h28.7m-28.7 30.34v30.34m0-30.34h28.7m-28.7 30.34v30.34m0-30.34h28.7m-28.7 30.34v30.34m0-30.34h28.7m-28.7 30.34v30.339m0-30.339h28.7m-28.7 30.339v30.34m0-30.34h28.7m-28.7 30.34v30.34m0-30.34h28.7m-28.7 30.34v30.34m0-30.34h28.7m-28.7 30.34v30.34m0-30.34h28.7m-28.7 30.34v30.34m0-30.34h28.7m-28.7 30.34v30.339m0-30.339h28.7m-28.7 30.339v30.34m0-30.34h28.7m-28.7 30.34v30.34m0-30.34h28.7m-28.7 30.34v30.34m0-30.34h28.7m-28.7 30.34v30.34m0-30.34h28.7m-28.7 30.34v30.34m0-30.34h28.7m-28.7 30.34v30.339m0-30.339h28.7m-28.7 30.339v30.34m0-30.34h28.7m-28.7 30.34v30.34m0-30.34h28.7m-28.7 30.34v30.34m0-30.34h28.7m-28.7 30.34h28.7m0-606.797v30.34m0-30.34h28.7m-28.7 30.34v30.34m0-30.34h28.7m-28.7 30.34v30.34m0-30.34h28.7m-28.7 30.34v30.34m0-30.34h28.7m-28.7 30.34v30.339m0-30.339h28.7m-28.7 30.339v30.34m0-30.34h28.7m-28.7 30.34v30.34m0-30.34h28.7m-28.7 30.34v30.34m0-30.34h28.7m-28.7 30.34v30.34m0-30.34h28.7m-28.7 30.34v30.34m0-30.34h28.7m-28.7 30.34v30.339m0-30.339h28.7m-28.7 30.339v30.34m0-30.34h28.7m-28.7 30.34v30.34m0-30.34h28.7m-28.7 30.34v30.34m0-30.34h28.7m-28.7 30.34v30.34m0-30.34h28.7m-28.7 30.34v30.34m0-30.34h28.7m-28.7 30.34v30.339m0-30.339h28.7m-28.7 30.339v30.34m0-30.34h28.7m-28.7 30.34v30.34m0-30.34h28.7m-28.7 30.34v30.34m0-30.34h28.7m-28.7 30.34h28.7m0-606.797v30.34m0-30.34h28.7m-28.7 30.34v30.34m0-30.34h28.7m-28.7 30.34v30.34m0-30.34h28.7m-28.7 30.34v30.34m0-30.34h28.7m-28.7 30.34v30.339m0-30.339h28.7m-28.7 30.339v30.34m0-30.34h28.7m-28.7 30.34v30.34m0-30.34h28.7m-28.7 30.34v30.34m0-30.34h28.7m-28.7 30.34v30.34m0-30.34h28.7m-28.7 30.34v30.34m0-30.34h28.7m-28.7 30.34v30.339m0-30.339h28.7m-28.7 30.339v30.34m0-30.34h28.7m-28.7 30.34v30.34m0-30.34h28.7m-28.7 30.34v30.34m0-30.34h28.7m-28.7 30.34v30.34m0-30.34h28.7m-28.7 30.34v30.34m0-30.34h28.7m-28.7 30.34v30.339m0-30.339h28.7m-28.7 30.339v30.34m0-30.34h28.7m-28.7 30.34v30.34m0-30.34h28.7m-28.7 30.34v30.34m0-30.34h28.7m-28.7 30.34h28.7m0-606.797v30.34m0-30.34h28.7v30.34m-28.7 0v30.34m0-30.34h28.7m-28.7 30.34v30.34m0-30.34h28.7m-28.7 30.34v30.34m0-30.34h28.7m-28.7 30.34v30.339m0-30.339h28.7m-28.7 30.339v30.34m0-30.34h28.7m-28.7 30.34v30.34m0-30.34h28.7m-28.7 30.34v30.34m0-30.34h28.7m-28.7 30.34v30.34m0-30.34h28.7m-28.7 30.34v30.34m0-30.34h28.7m-28.7 30.34v30.339m0-30.339h28.7m-28.7 30.339v30.34m0-30.34h28.7m-28.7 30.34v30.34m0-30.34h28.7m-28.7 30.34v30.34m0-30.34h28.7m-28.7 30.34v30.34m0-30.34h28.7m-28.7 30.34v30.34m0-30.34h28.7m-28.7 30.34v30.339m0-30.339h28.7m-28.7 30.339v30.34m0-30.34h28.7m-28.7 30.34v30.34m0-30.34h28.7m-28.7 30.34v30.34m0-30.34h28.7m-28.7 30.34h28.7v-30.34m0-546.117v30.34m0 0v30.34m0 0v30.34m0 0v30.339m0 0v30.34m0 0v30.34m0 0v30.34m0 0v30.34m0 0v30.34m0 0v30.339m0 0v30.34m0 0v30.34m0 0v30.34m0 0v30.34m0 0v30.34m0 0v30.339m0 0v30.34m0 0v30.34" opacity=".7" style="mix-blend-mode:soft-light"/><path stroke="url(#b)" stroke-opacity=".6" stroke-width="1.611" d="M123.408 121.359v9.102m0 0v9.102m0-9.102h-8.61m8.61 0h8.61m-8.61 233.617v9.102m0 0v9.102m0-9.102h-8.61m8.61 0h8.61m-8.61 233.617v9.102m0 0v9.102m0-9.102h-8.61m8.61 0h8.61m220.987-494.54v9.102m0 0v9.102m0-9.102h-8.61m8.61 0h8.609m-8.609 233.617v9.102m0 0v9.102m0-9.102h-8.61m8.61 0h8.609m-8.609 233.617v9.102m0 0v9.102m0-9.102h-8.61m8.61 0h8.609m220.987-494.54v9.102m0 0v9.102m0-9.102h-8.61m8.61 0h8.61m-8.61 233.617v9.102m0 0v9.102m0-9.102h-8.61m8.61 0h8.61m-8.61 233.617v9.102m0 0v9.102m0-9.102h-8.61m8.61 0h8.61m220.986-494.54v9.102m0 0v9.102m0-9.102h-8.609m8.609 0h8.61m-8.61 233.617v9.102m0 0v9.102m0-9.102h-8.609m8.609 0h8.61m-8.61 233.617v9.102m0 0v9.102m0-9.102h-8.609m8.609 0h8.61m220.983-494.54v9.102m0 0v9.102m0-9.102h-8.61m8.61 0h8.61m-8.61 233.617v9.102m0 0v9.102m0-9.102h-8.61m8.61 0h8.61m-8.61 233.617v9.102m0 0v9.102m0-9.102h-8.61m8.61 0h8.61m220.99-494.54v9.102m0 0v9.102m0-9.102h-8.61m8.61 0h8.61m-8.61 233.617v9.102m0 0v9.102m0-9.102h-8.61m8.61 0h8.61m-8.61 233.617v9.102m0 0v9.102m0-9.102h-8.61m8.61 0h8.61M123.408 0v9.102m0 0v9.102m0-9.102h-8.61m8.61 0h8.61m-8.61 233.617v9.102m0 0v9.102m0-9.102h-8.61m8.61 0h8.61m-8.61 233.616v9.102m0 0v9.102m0-9.102h-8.61m8.61 0h8.61M353.005 0v9.102m0 0v9.102m0-9.102h-8.61m8.61 0h8.609m-8.609 233.617v9.102m0 0v9.102m0-9.102h-8.61m8.61 0h8.609m-8.609 233.616v9.102m0 0v9.102m0-9.102h-8.61m8.61 0h8.609M582.601 0v9.102m0 0v9.102m0-9.102h-8.61m8.61 0h8.61m-8.61 233.617v9.102m0 0v9.102m0-9.102h-8.61m8.61 0h8.61m-8.61 233.616v9.102m0 0v9.102m0-9.102h-8.61m8.61 0h8.61M812.197 0v9.102m0 0v9.102m0-9.102h-8.609m8.609 0h8.61m-8.61 233.617v9.102m0 0v9.102m0-9.102h-8.609m8.609 0h8.61m-8.61 233.616v9.102m0 0v9.102m0-9.102h-8.609m8.609 0h8.61M1041.79 0v9.102m0 0v9.102m0-9.102h-8.61m8.61 0h8.61m-8.61 233.617v9.102m0 0v9.102m0-9.102h-8.61m8.61 0h8.61m-8.61 233.616v9.102m0 0v9.102m0-9.102h-8.61m8.61 0h8.61M1271.39 0v9.102m0 0v9.102m0-9.102h-8.61m8.61 0h8.61m-8.61 233.617v9.102m0 0v9.102m0-9.102h-8.61m8.61 0h8.61m-8.61 233.616v9.102m0 0v9.102m0-9.102h-8.61m8.61 0h8.61M8.61 121.359v9.102m0 0v9.102m0-9.102H0m8.61 0h8.61M8.61 364.078v9.102m0 0v9.102m0-9.102H0m8.61 0h8.61M8.61 606.797v9.102m0 0v9.102m0-9.102H0m8.61 0h8.61m220.986-494.54v9.102m0 0v9.102m0-9.102h-8.61m8.61 0h8.61m-8.61 233.617v9.102m0 0v9.102m0-9.102h-8.61m8.61 0h8.61m-8.61 233.617v9.102m0 0v9.102m0-9.102h-8.61m8.61 0h8.61m220.987-494.54v9.102m0 0v9.102m0-9.102h-8.61m8.61 0h8.61m-8.61 233.617v9.102m0 0v9.102m0-9.102h-8.61m8.61 0h8.61m-8.61 233.617v9.102m0 0v9.102m0-9.102h-8.61m8.61 0h8.61m220.986-494.54v9.102m0 0v9.102m0-9.102h-8.61m8.61 0h8.61m-8.61 233.617v9.102m0 0v9.102m0-9.102h-8.61m8.61 0h8.61m-8.61 233.617v9.102m0 0v9.102m0-9.102h-8.61m8.61 0h8.61m220.987-494.54v9.102m0 0v9.102m0-9.102h-8.61m8.61 0h8.609m-8.609 233.617v9.102m0 0v9.102m0-9.102h-8.61m8.61 0h8.609m-8.609 233.617v9.102m0 0v9.102m0-9.102h-8.61m8.61 0h8.609m220.985-494.54v9.102m0 0v9.102m0-9.102h-8.61m8.61 0h8.61m-8.61 233.617v9.102m0 0v9.102m0-9.102h-8.61m8.61 0h8.61m-8.61 233.617v9.102m0 0v9.102m0-9.102h-8.61m8.61 0h8.61M8.61 0v9.102m0 0v9.102m0-9.102H0m8.61 0h8.61M8.61 242.719v9.102m0 0v9.102m0-9.102H0m8.61 0h8.61M8.61 485.437v9.102m0 0v9.102m0-9.102H0m8.61 0h8.61M238.206 0v9.102m0 0v9.102m0-9.102h-8.61m8.61 0h8.61m-8.61 233.617v9.102m0 0v9.102m0-9.102h-8.61m8.61 0h8.61m-8.61 233.616v9.102m0 0v9.102m0-9.102h-8.61m8.61 0h8.61M467.803 0v9.102m0 0v9.102m0-9.102h-8.61m8.61 0h8.61m-8.61 233.617v9.102m0 0v9.102m0-9.102h-8.61m8.61 0h8.61m-8.61 233.616v9.102m0 0v9.102m0-9.102h-8.61m8.61 0h8.61M697.399 0v9.102m0 0v9.102m0-9.102h-8.61m8.61 0h8.61m-8.61 233.617v9.102m0 0v9.102m0-9.102h-8.61m8.61 0h8.61m-8.61 233.616v9.102m0 0v9.102m0-9.102h-8.61m8.61 0h8.61M926.996 0v9.102m0 0v9.102m0-9.102h-8.61m8.61 0h8.609m-8.609 233.617v9.102m0 0v9.102m0-9.102h-8.61m8.61 0h8.609m-8.609 233.616v9.102m0 0v9.102m0-9.102h-8.61m8.61 0h8.609M1156.59 0v9.102m0 0v9.102m0-9.102h-8.61m8.61 0h8.61m-8.61 233.617v9.102m0 0v9.102m0-9.102h-8.61m8.61 0h8.61m-8.61 233.616v9.102m0 0v9.102m0-9.102h-8.61m8.61 0h8.61" opacity=".8" style="mix-blend-mode:soft-light"/><defs><radialGradient id="a" cx="0" cy="0" r="1" gradientTransform="matrix(0 303.398 -631.39 0 640 312.501)" gradientUnits="userSpaceOnUse"><stop stop-color="#fff"/><stop offset="1" stop-color="#fff" stop-opacity="0"/></radialGradient><radialGradient id="b" cx="0" cy="0" r="1" gradientTransform="matrix(0 312.5 -640 0 640 312.5)" gradientUnits="userSpaceOnUse"><stop stop-color="#fff"/><stop offset="1" stop-color="#fff" stop-opacity="0"/></radialGradient></defs></svg>