<svg width="1280" height="625" viewBox="0 0 1280 625" fill="none" xmlns="http://www.w3.org/2000/svg">
<g style="mix-blend-mode:soft-light" opacity="0.7">
<path d="M37.3092 9.10229H8.60962V39.4421M37.3092 9.10229V39.4421M37.3092 9.10229H66.0087M37.3092 39.4421H8.60962M37.3092 39.4421V69.782M37.3092 39.4421H66.0087M8.60962 39.4421V69.782M37.3092 69.782H8.60962M37.3092 69.782V100.122M37.3092 69.782H66.0087M8.60962 69.782V100.122M37.3092 100.122H8.60962M37.3092 100.122V130.462M37.3092 100.122H66.0087M8.60962 100.122V130.462M37.3092 130.462H8.60962M37.3092 130.462V160.801M37.3092 130.462H66.0087M8.60962 130.462V160.801M37.3092 160.801H8.60962M37.3092 160.801V191.141M37.3092 160.801H66.0087M8.60962 160.801V191.141M37.3092 191.141H8.60962M37.3092 191.141V221.481M37.3092 191.141H66.0087M8.60962 191.141V221.481M37.3092 221.481H8.60962M37.3092 221.481V251.821M37.3092 221.481H66.0087M8.60962 221.481V251.821M37.3092 251.821H8.60962M37.3092 251.821V282.161M37.3092 251.821H66.0087M8.60962 251.821V282.161M37.3092 282.161H8.60962M37.3092 282.161V312.501M37.3092 282.161H66.0087M8.60962 282.161V312.501M37.3092 312.501H8.60962M37.3092 312.501V342.84M37.3092 312.501H66.0087M8.60962 312.501V342.84M37.3092 342.84H8.60962M37.3092 342.84V373.18M37.3092 342.84H66.0087M8.60962 342.84V373.18M37.3092 373.18H8.60962M37.3092 373.18V403.52M37.3092 373.18H66.0087M8.60962 373.18V403.52M37.3092 403.52H8.60962M37.3092 403.52V433.86M37.3092 403.52H66.0087M8.60962 403.52V433.86M37.3092 433.86H8.60962M37.3092 433.86V464.2M37.3092 433.86H66.0087M8.60962 433.86V464.2M37.3092 464.2H8.60962M37.3092 464.2V494.54M37.3092 464.2H66.0087M8.60962 464.2V494.54M37.3092 494.54H8.60962M37.3092 494.54V524.879M37.3092 494.54H66.0087M8.60962 494.54V524.879M37.3092 524.879H8.60962M37.3092 524.879V555.219M37.3092 524.879H66.0087M8.60962 524.879V555.219M37.3092 555.219H8.60962M37.3092 555.219V585.559M37.3092 555.219H66.0087M8.60962 555.219V585.559M37.3092 585.559H8.60962M37.3092 585.559V615.899M37.3092 585.559H66.0087M8.60962 585.559V615.899H37.3092M37.3092 615.899H66.0087M66.0087 9.10229V39.4421M66.0087 9.10229H94.7083M66.0087 39.4421V69.782M66.0087 39.4421H94.7083M66.0087 69.782V100.122M66.0087 69.782H94.7083M66.0087 100.122V130.462M66.0087 100.122H94.7083M66.0087 130.462V160.801M66.0087 130.462H94.7083M66.0087 160.801V191.141M66.0087 160.801H94.7083M66.0087 191.141V221.481M66.0087 191.141H94.7083M66.0087 221.481V251.821M66.0087 221.481H94.7083M66.0087 251.821V282.161M66.0087 251.821H94.7083M66.0087 282.161V312.501M66.0087 282.161H94.7083M66.0087 312.501V342.84M66.0087 312.501H94.7083M66.0087 342.84V373.18M66.0087 342.84H94.7083M66.0087 373.18V403.52M66.0087 373.18H94.7083M66.0087 403.52V433.86M66.0087 403.52H94.7083M66.0087 433.86V464.2M66.0087 433.86H94.7083M66.0087 464.2V494.54M66.0087 464.2H94.7083M66.0087 494.54V524.879M66.0087 494.54H94.7083M66.0087 524.879V555.219M66.0087 524.879H94.7083M66.0087 555.219V585.559M66.0087 555.219H94.7083M66.0087 585.559V615.899M66.0087 585.559H94.7083M66.0087 615.899H94.7083M94.7083 9.10229V39.4421M94.7083 9.10229H123.408M94.7083 39.4421V69.782M94.7083 39.4421H123.408M94.7083 69.782V100.122M94.7083 69.782H123.408M94.7083 100.122V130.462M94.7083 100.122H123.408M94.7083 130.462V160.801M94.7083 130.462H123.408M94.7083 160.801V191.141M94.7083 160.801H123.408M94.7083 191.141V221.481M94.7083 191.141H123.408M94.7083 221.481V251.821M94.7083 221.481H123.408M94.7083 251.821V282.161M94.7083 251.821H123.408M94.7083 282.161V312.501M94.7083 282.161H123.408M94.7083 312.501V342.84M94.7083 312.501H123.408M94.7083 342.84V373.18M94.7083 342.84H123.408M94.7083 373.18V403.52M94.7083 373.18H123.408M94.7083 403.52V433.86M94.7083 403.52H123.408M94.7083 433.86V464.2M94.7083 433.86H123.408M94.7083 464.2V494.54M94.7083 464.2H123.408M94.7083 494.54V524.879M94.7083 494.54H123.408M94.7083 524.879V555.219M94.7083 524.879H123.408M94.7083 555.219V585.559M94.7083 555.219H123.408M94.7083 585.559V615.899M94.7083 585.559H123.408M94.7083 615.899H123.408M123.408 9.10229V39.4421M123.408 9.10229H152.107M123.408 39.4421V69.782M123.408 39.4421H152.107M123.408 69.782V100.122M123.408 69.782H152.107M123.408 100.122V130.462M123.408 100.122H152.107M123.408 130.462V160.801M123.408 130.462H152.107M123.408 160.801V191.141M123.408 160.801H152.107M123.408 191.141V221.481M123.408 191.141H152.107M123.408 221.481V251.821M123.408 221.481H152.107M123.408 251.821V282.161M123.408 251.821H152.107M123.408 282.161V312.501M123.408 282.161H152.107M123.408 312.501V342.84M123.408 312.501H152.107M123.408 342.84V373.18M123.408 342.84H152.107M123.408 373.18V403.52M123.408 373.18H152.107M123.408 403.52V433.86M123.408 403.52H152.107M123.408 433.86V464.2M123.408 433.86H152.107M123.408 464.2V494.54M123.408 464.2H152.107M123.408 494.54V524.879M123.408 494.54H152.107M123.408 524.879V555.219M123.408 524.879H152.107M123.408 555.219V585.559M123.408 555.219H152.107M123.408 585.559V615.899M123.408 585.559H152.107M123.408 615.899H152.107M152.107 9.10229V39.4421M152.107 9.10229H180.807M152.107 39.4421V69.782M152.107 39.4421H180.807M152.107 69.782V100.122M152.107 69.782H180.807M152.107 100.122V130.462M152.107 100.122H180.807M152.107 130.462V160.801M152.107 130.462H180.807M152.107 160.801V191.141M152.107 160.801H180.807M152.107 191.141V221.481M152.107 191.141H180.807M152.107 221.481V251.821M152.107 221.481H180.807M152.107 251.821V282.161M152.107 251.821H180.807M152.107 282.161V312.501M152.107 282.161H180.807M152.107 312.501V342.84M152.107 312.501H180.807M152.107 342.84V373.18M152.107 342.84H180.807M152.107 373.18V403.52M152.107 373.18H180.807M152.107 403.52V433.86M152.107 403.52H180.807M152.107 433.86V464.2M152.107 433.86H180.807M152.107 464.2V494.54M152.107 464.2H180.807M152.107 494.54V524.879M152.107 494.54H180.807M152.107 524.879V555.219M152.107 524.879H180.807M152.107 555.219V585.559M152.107 555.219H180.807M152.107 585.559V615.899M152.107 585.559H180.807M152.107 615.899H180.807M180.807 9.10229V39.4421M180.807 9.10229H209.507M180.807 39.4421V69.782M180.807 39.4421H209.507M180.807 69.782V100.122M180.807 69.782H209.507M180.807 100.122V130.462M180.807 100.122H209.507M180.807 130.462V160.801M180.807 130.462H209.507M180.807 160.801V191.141M180.807 160.801H209.507M180.807 191.141V221.481M180.807 191.141H209.507M180.807 221.481V251.821M180.807 221.481H209.507M180.807 251.821V282.161M180.807 251.821H209.507M180.807 282.161V312.501M180.807 282.161H209.507M180.807 312.501V342.84M180.807 312.501H209.507M180.807 342.84V373.18M180.807 342.84H209.507M180.807 373.18V403.52M180.807 373.18H209.507M180.807 403.52V433.86M180.807 403.52H209.507M180.807 433.86V464.2M180.807 433.86H209.507M180.807 464.2V494.54M180.807 464.2H209.507M180.807 494.54V524.879M180.807 494.54H209.507M180.807 524.879V555.219M180.807 524.879H209.507M180.807 555.219V585.559M180.807 555.219H209.507M180.807 585.559V615.899M180.807 585.559H209.507M180.807 615.899H209.507M209.507 9.10229V39.4421M209.507 9.10229H238.206M209.507 39.4421V69.782M209.507 39.4421H238.206M209.507 69.782V100.122M209.507 69.782H238.206M209.507 100.122V130.462M209.507 100.122H238.206M209.507 130.462V160.801M209.507 130.462H238.206M209.507 160.801V191.141M209.507 160.801H238.206M209.507 191.141V221.481M209.507 191.141H238.206M209.507 221.481V251.821M209.507 221.481H238.206M209.507 251.821V282.161M209.507 251.821H238.206M209.507 282.161V312.501M209.507 282.161H238.206M209.507 312.501V342.84M209.507 312.501H238.206M209.507 342.84V373.18M209.507 342.84H238.206M209.507 373.18V403.52M209.507 373.18H238.206M209.507 403.52V433.86M209.507 403.52H238.206M209.507 433.86V464.2M209.507 433.86H238.206M209.507 464.2V494.54M209.507 464.2H238.206M209.507 494.54V524.879M209.507 494.54H238.206M209.507 524.879V555.219M209.507 524.879H238.206M209.507 555.219V585.559M209.507 555.219H238.206M209.507 585.559V615.899M209.507 585.559H238.206M209.507 615.899H238.206M238.206 9.10229V39.4421M238.206 9.10229H266.906M238.206 39.4421V69.782M238.206 39.4421H266.906M238.206 69.782V100.122M238.206 69.782H266.906M238.206 100.122V130.462M238.206 100.122H266.906M238.206 130.462V160.801M238.206 130.462H266.906M238.206 160.801V191.141M238.206 160.801H266.906M238.206 191.141V221.481M238.206 191.141H266.906M238.206 221.481V251.821M238.206 221.481H266.906M238.206 251.821V282.161M238.206 251.821H266.906M238.206 282.161V312.501M238.206 282.161H266.906M238.206 312.501V342.84M238.206 312.501H266.906M238.206 342.84V373.18M238.206 342.84H266.906M238.206 373.18V403.52M238.206 373.18H266.906M238.206 403.52V433.86M238.206 403.52H266.906M238.206 433.86V464.2M238.206 433.86H266.906M238.206 464.2V494.54M238.206 464.2H266.906M238.206 494.54V524.879M238.206 494.54H266.906M238.206 524.879V555.219M238.206 524.879H266.906M238.206 555.219V585.559M238.206 555.219H266.906M238.206 585.559V615.899M238.206 585.559H266.906M238.206 615.899H266.906M266.906 9.10229V39.4421M266.906 9.10229H295.605M266.906 39.4421V69.782M266.906 39.4421H295.605M266.906 69.782V100.122M266.906 69.782H295.605M266.906 100.122V130.462M266.906 100.122H295.605M266.906 130.462V160.801M266.906 130.462H295.605M266.906 160.801V191.141M266.906 160.801H295.605M266.906 191.141V221.481M266.906 191.141H295.605M266.906 221.481V251.821M266.906 221.481H295.605M266.906 251.821V282.161M266.906 251.821H295.605M266.906 282.161V312.501M266.906 282.161H295.605M266.906 312.501V342.84M266.906 312.501H295.605M266.906 342.84V373.18M266.906 342.84H295.605M266.906 373.18V403.52M266.906 373.18H295.605M266.906 403.52V433.86M266.906 403.52H295.605M266.906 433.86V464.2M266.906 433.86H295.605M266.906 464.2V494.54M266.906 464.2H295.605M266.906 494.54V524.879M266.906 494.54H295.605M266.906 524.879V555.219M266.906 524.879H295.605M266.906 555.219V585.559M266.906 555.219H295.605M266.906 585.559V615.899M266.906 585.559H295.605M266.906 615.899H295.605M295.605 9.10229V39.4421M295.605 9.10229H324.305M295.605 39.4421V69.782M295.605 39.4421H324.305M295.605 69.782V100.122M295.605 69.782H324.305M295.605 100.122V130.462M295.605 100.122H324.305M295.605 130.462V160.801M295.605 130.462H324.305M295.605 160.801V191.141M295.605 160.801H324.305M295.605 191.141V221.481M295.605 191.141H324.305M295.605 221.481V251.821M295.605 221.481H324.305M295.605 251.821V282.161M295.605 251.821H324.305M295.605 282.161V312.501M295.605 282.161H324.305M295.605 312.501V342.84M295.605 312.501H324.305M295.605 342.84V373.18M295.605 342.84H324.305M295.605 373.18V403.52M295.605 373.18H324.305M295.605 403.52V433.86M295.605 403.52H324.305M295.605 433.86V464.2M295.605 433.86H324.305M295.605 464.2V494.54M295.605 464.2H324.305M295.605 494.54V524.879M295.605 494.54H324.305M295.605 524.879V555.219M295.605 524.879H324.305M295.605 555.219V585.559M295.605 555.219H324.305M295.605 585.559V615.899M295.605 585.559H324.305M295.605 615.899H324.305M324.305 9.10229V39.4421M324.305 9.10229H353.004M324.305 39.4421V69.782M324.305 39.4421H353.004M324.305 69.782V100.122M324.305 69.782H353.004M324.305 100.122V130.462M324.305 100.122H353.004M324.305 130.462V160.801M324.305 130.462H353.004M324.305 160.801V191.141M324.305 160.801H353.004M324.305 191.141V221.481M324.305 191.141H353.004M324.305 221.481V251.821M324.305 221.481H353.004M324.305 251.821V282.161M324.305 251.821H353.004M324.305 282.161V312.501M324.305 282.161H353.004M324.305 312.501V342.84M324.305 312.501H353.004M324.305 342.84V373.18M324.305 342.84H353.004M324.305 373.18V403.52M324.305 373.18H353.004M324.305 403.52V433.86M324.305 403.52H353.004M324.305 433.86V464.2M324.305 433.86H353.004M324.305 464.2V494.54M324.305 464.2H353.004M324.305 494.54V524.879M324.305 494.54H353.004M324.305 524.879V555.219M324.305 524.879H353.004M324.305 555.219V585.559M324.305 555.219H353.004M324.305 585.559V615.899M324.305 585.559H353.004M324.305 615.899H353.004M353.004 9.10229V39.4421M353.004 9.10229H381.704M353.004 39.4421V69.782M353.004 39.4421H381.704M353.004 69.782V100.122M353.004 69.782H381.704M353.004 100.122V130.462M353.004 100.122H381.704M353.004 130.462V160.801M353.004 130.462H381.704M353.004 160.801V191.141M353.004 160.801H381.704M353.004 191.141V221.481M353.004 191.141H381.704M353.004 221.481V251.821M353.004 221.481H381.704M353.004 251.821V282.161M353.004 251.821H381.704M353.004 282.161V312.501M353.004 282.161H381.704M353.004 312.501V342.84M353.004 312.501H381.704M353.004 342.84V373.18M353.004 342.84H381.704M353.004 373.18V403.52M353.004 373.18H381.704M353.004 403.52V433.86M353.004 403.52H381.704M353.004 433.86V464.2M353.004 433.86H381.704M353.004 464.2V494.54M353.004 464.2H381.704M353.004 494.54V524.879M353.004 494.54H381.704M353.004 524.879V555.219M353.004 524.879H381.704M353.004 555.219V585.559M353.004 555.219H381.704M353.004 585.559V615.899M353.004 585.559H381.704M353.004 615.899H381.704M381.704 9.10229V39.4421M381.704 9.10229H410.403M381.704 39.4421V69.782M381.704 39.4421H410.403M381.704 69.782V100.122M381.704 69.782H410.403M381.704 100.122V130.462M381.704 100.122H410.403M381.704 130.462V160.801M381.704 130.462H410.403M381.704 160.801V191.141M381.704 160.801H410.403M381.704 191.141V221.481M381.704 191.141H410.403M381.704 221.481V251.821M381.704 221.481H410.403M381.704 251.821V282.161M381.704 251.821H410.403M381.704 282.161V312.501M381.704 282.161H410.403M381.704 312.501V342.84M381.704 312.501H410.403M381.704 342.84V373.18M381.704 342.84H410.403M381.704 373.18V403.52M381.704 373.18H410.403M381.704 403.52V433.86M381.704 403.52H410.403M381.704 433.86V464.2M381.704 433.86H410.403M381.704 464.2V494.54M381.704 464.2H410.403M381.704 494.54V524.879M381.704 494.54H410.403M381.704 524.879V555.219M381.704 524.879H410.403M381.704 555.219V585.559M381.704 555.219H410.403M381.704 585.559V615.899M381.704 585.559H410.403M381.704 615.899H410.403M410.403 9.10229V39.4421M410.403 9.10229H439.103M410.403 39.4421V69.782M410.403 39.4421H439.103M410.403 69.782V100.122M410.403 69.782H439.103M410.403 100.122V130.462M410.403 100.122H439.103M410.403 130.462V160.801M410.403 130.462H439.103M410.403 160.801V191.141M410.403 160.801H439.103M410.403 191.141V221.481M410.403 191.141H439.103M410.403 221.481V251.821M410.403 221.481H439.103M410.403 251.821V282.161M410.403 251.821H439.103M410.403 282.161V312.501M410.403 282.161H439.103M410.403 312.501V342.84M410.403 312.501H439.103M410.403 342.84V373.18M410.403 342.84H439.103M410.403 373.18V403.52M410.403 373.18H439.103M410.403 403.52V433.86M410.403 403.52H439.103M410.403 433.86V464.2M410.403 433.86H439.103M410.403 464.2V494.54M410.403 464.2H439.103M410.403 494.54V524.879M410.403 494.54H439.103M410.403 524.879V555.219M410.403 524.879H439.103M410.403 555.219V585.559M410.403 555.219H439.103M410.403 585.559V615.899M410.403 585.559H439.103M410.403 615.899H439.103M439.103 9.10229V39.4421M439.103 9.10229H467.803M439.103 39.4421V69.782M439.103 39.4421H467.803M439.103 69.782V100.122M439.103 69.782H467.803M439.103 100.122V130.462M439.103 100.122H467.803M439.103 130.462V160.801M439.103 130.462H467.803M439.103 160.801V191.141M439.103 160.801H467.803M439.103 191.141V221.481M439.103 191.141H467.803M439.103 221.481V251.821M439.103 221.481H467.803M439.103 251.821V282.161M439.103 251.821H467.803M439.103 282.161V312.501M439.103 282.161H467.803M439.103 312.501V342.84M439.103 312.501H467.803M439.103 342.84V373.18M439.103 342.84H467.803M439.103 373.18V403.52M439.103 373.18H467.803M439.103 403.52V433.86M439.103 403.52H467.803M439.103 433.86V464.2M439.103 433.86H467.803M439.103 464.2V494.54M439.103 464.2H467.803M439.103 494.54V524.879M439.103 494.54H467.803M439.103 524.879V555.219M439.103 524.879H467.803M439.103 555.219V585.559M439.103 555.219H467.803M439.103 585.559V615.899M439.103 585.559H467.803M439.103 615.899H467.803M467.803 9.10229V39.4421M467.803 9.10229H496.502M467.803 39.4421V69.782M467.803 39.4421H496.502M467.803 69.782V100.122M467.803 69.782H496.502M467.803 100.122V130.462M467.803 100.122H496.502M467.803 130.462V160.801M467.803 130.462H496.502M467.803 160.801V191.141M467.803 160.801H496.502M467.803 191.141V221.481M467.803 191.141H496.502M467.803 221.481V251.821M467.803 221.481H496.502M467.803 251.821V282.161M467.803 251.821H496.502M467.803 282.161V312.501M467.803 282.161H496.502M467.803 312.501V342.84M467.803 312.501H496.502M467.803 342.84V373.18M467.803 342.84H496.502M467.803 373.18V403.52M467.803 373.18H496.502M467.803 403.52V433.86M467.803 403.52H496.502M467.803 433.86V464.2M467.803 433.86H496.502M467.803 464.2V494.54M467.803 464.2H496.502M467.803 494.54V524.879M467.803 494.54H496.502M467.803 524.879V555.219M467.803 524.879H496.502M467.803 555.219V585.559M467.803 555.219H496.502M467.803 585.559V615.899M467.803 585.559H496.502M467.803 615.899H496.502M496.502 9.10229V39.4421M496.502 9.10229H525.202M496.502 39.4421V69.782M496.502 39.4421H525.202M496.502 69.782V100.122M496.502 69.782H525.202M496.502 100.122V130.462M496.502 100.122H525.202M496.502 130.462V160.801M496.502 130.462H525.202M496.502 160.801V191.141M496.502 160.801H525.202M496.502 191.141V221.481M496.502 191.141H525.202M496.502 221.481V251.821M496.502 221.481H525.202M496.502 251.821V282.161M496.502 251.821H525.202M496.502 282.161V312.501M496.502 282.161H525.202M496.502 312.501V342.84M496.502 312.501H525.202M496.502 342.84V373.18M496.502 342.84H525.202M496.502 373.18V403.52M496.502 373.18H525.202M496.502 403.52V433.86M496.502 403.52H525.202M496.502 433.86V464.2M496.502 433.86H525.202M496.502 464.2V494.54M496.502 464.2H525.202M496.502 494.54V524.879M496.502 494.54H525.202M496.502 524.879V555.219M496.502 524.879H525.202M496.502 555.219V585.559M496.502 555.219H525.202M496.502 585.559V615.899M496.502 585.559H525.202M496.502 615.899H525.202M525.202 9.10229V39.4421M525.202 9.10229H553.901M525.202 39.4421V69.782M525.202 39.4421H553.901M525.202 69.782V100.122M525.202 69.782H553.901M525.202 100.122V130.462M525.202 100.122H553.901M525.202 130.462V160.801M525.202 130.462H553.901M525.202 160.801V191.141M525.202 160.801H553.901M525.202 191.141V221.481M525.202 191.141H553.901M525.202 221.481V251.821M525.202 221.481H553.901M525.202 251.821V282.161M525.202 251.821H553.901M525.202 282.161V312.501M525.202 282.161H553.901M525.202 312.501V342.84M525.202 312.501H553.901M525.202 342.84V373.18M525.202 342.84H553.901M525.202 373.18V403.52M525.202 373.18H553.901M525.202 403.52V433.86M525.202 403.52H553.901M525.202 433.86V464.2M525.202 433.86H553.901M525.202 464.2V494.54M525.202 464.2H553.901M525.202 494.54V524.879M525.202 494.54H553.901M525.202 524.879V555.219M525.202 524.879H553.901M525.202 555.219V585.559M525.202 555.219H553.901M525.202 585.559V615.899M525.202 585.559H553.901M525.202 615.899H553.901M553.901 9.10229V39.4421M553.901 9.10229H582.601M553.901 39.4421V69.782M553.901 39.4421H582.601M553.901 69.782V100.122M553.901 69.782H582.601M553.901 100.122V130.462M553.901 100.122H582.601M553.901 130.462V160.801M553.901 130.462H582.601M553.901 160.801V191.141M553.901 160.801H582.601M553.901 191.141V221.481M553.901 191.141H582.601M553.901 221.481V251.821M553.901 221.481H582.601M553.901 251.821V282.161M553.901 251.821H582.601M553.901 282.161V312.501M553.901 282.161H582.601M553.901 312.501V342.84M553.901 312.501H582.601M553.901 342.84V373.18M553.901 342.84H582.601M553.901 373.18V403.52M553.901 373.18H582.601M553.901 403.52V433.86M553.901 403.52H582.601M553.901 433.86V464.2M553.901 433.86H582.601M553.901 464.2V494.54M553.901 464.2H582.601M553.901 494.54V524.879M553.901 494.54H582.601M553.901 524.879V555.219M553.901 524.879H582.601M553.901 555.219V585.559M553.901 555.219H582.601M553.901 585.559V615.899M553.901 585.559H582.601M553.901 615.899H582.601M582.601 9.10229V39.4421M582.601 9.10229H611.3M582.601 39.4421V69.782M582.601 39.4421H611.3M582.601 69.782V100.122M582.601 69.782H611.3M582.601 100.122V130.462M582.601 100.122H611.3M582.601 130.462V160.801M582.601 130.462H611.3M582.601 160.801V191.141M582.601 160.801H611.3M582.601 191.141V221.481M582.601 191.141H611.3M582.601 221.481V251.821M582.601 221.481H611.3M582.601 251.821V282.161M582.601 251.821H611.3M582.601 282.161V312.501M582.601 282.161H611.3M582.601 312.501V342.84M582.601 312.501H611.3M582.601 342.84V373.18M582.601 342.84H611.3M582.601 373.18V403.52M582.601 373.18H611.3M582.601 403.52V433.86M582.601 403.52H611.3M582.601 433.86V464.2M582.601 433.86H611.3M582.601 464.2V494.54M582.601 464.2H611.3M582.601 494.54V524.879M582.601 494.54H611.3M582.601 524.879V555.219M582.601 524.879H611.3M582.601 555.219V585.559M582.601 555.219H611.3M582.601 585.559V615.899M582.601 585.559H611.3M582.601 615.899H611.3M611.3 9.10229V39.4421M611.3 9.10229H640M611.3 39.4421V69.782M611.3 39.4421H640M611.3 69.782V100.122M611.3 69.782H640M611.3 100.122V130.462M611.3 100.122H640M611.3 130.462V160.801M611.3 130.462H640M611.3 160.801V191.141M611.3 160.801H640M611.3 191.141V221.481M611.3 191.141H640M611.3 221.481V251.821M611.3 221.481H640M611.3 251.821V282.161M611.3 251.821H640M611.3 282.161V312.501M611.3 282.161H640M611.3 312.501V342.84M611.3 312.501H640M611.3 342.84V373.18M611.3 342.84H640M611.3 373.18V403.52M611.3 373.18H640M611.3 403.52V433.86M611.3 403.52H640M611.3 433.86V464.2M611.3 433.86H640M611.3 464.2V494.54M611.3 464.2H640M611.3 494.54V524.879M611.3 494.54H640M611.3 524.879V555.219M611.3 524.879H640M611.3 555.219V585.559M611.3 555.219H640M611.3 585.559V615.899M611.3 585.559H640M611.3 615.899H640M640 9.10229V39.4421M640 9.10229H668.699M640 39.4421V69.782M640 39.4421H668.699M640 69.782V100.122M640 69.782H668.699M640 100.122V130.462M640 100.122H668.699M640 130.462V160.801M640 130.462H668.699M640 160.801V191.141M640 160.801H668.699M640 191.141V221.481M640 191.141H668.699M640 221.481V251.821M640 221.481H668.699M640 251.821V282.161M640 251.821H668.699M640 282.161V312.501M640 282.161H668.699M640 312.501V342.84M640 312.501H668.699M640 342.84V373.18M640 342.84H668.699M640 373.18V403.52M640 373.18H668.699M640 403.52V433.86M640 403.52H668.699M640 433.86V464.2M640 433.86H668.699M640 464.2V494.54M640 464.2H668.699M640 494.54V524.879M640 494.54H668.699M640 524.879V555.219M640 524.879H668.699M640 555.219V585.559M640 555.219H668.699M640 585.559V615.899M640 585.559H668.699M640 615.899H668.699M668.699 9.10229V39.4421M668.699 9.10229H697.399M668.699 39.4421V69.782M668.699 39.4421H697.399M668.699 69.782V100.122M668.699 69.782H697.399M668.699 100.122V130.462M668.699 100.122H697.399M668.699 130.462V160.801M668.699 130.462H697.399M668.699 160.801V191.141M668.699 160.801H697.399M668.699 191.141V221.481M668.699 191.141H697.399M668.699 221.481V251.821M668.699 221.481H697.399M668.699 251.821V282.161M668.699 251.821H697.399M668.699 282.161V312.501M668.699 282.161H697.399M668.699 312.501V342.84M668.699 312.501H697.399M668.699 342.84V373.18M668.699 342.84H697.399M668.699 373.18V403.52M668.699 373.18H697.399M668.699 403.52V433.86M668.699 403.52H697.399M668.699 433.86V464.2M668.699 433.86H697.399M668.699 464.2V494.54M668.699 464.2H697.399M668.699 494.54V524.879M668.699 494.54H697.399M668.699 524.879V555.219M668.699 524.879H697.399M668.699 555.219V585.559M668.699 555.219H697.399M668.699 585.559V615.899M668.699 585.559H697.399M668.699 615.899H697.399M697.399 9.10229V39.4421M697.399 9.10229H726.099M697.399 39.4421V69.782M697.399 39.4421H726.099M697.399 69.782V100.122M697.399 69.782H726.099M697.399 100.122V130.462M697.399 100.122H726.099M697.399 130.462V160.801M697.399 130.462H726.099M697.399 160.801V191.141M697.399 160.801H726.099M697.399 191.141V221.481M697.399 191.141H726.099M697.399 221.481V251.821M697.399 221.481H726.099M697.399 251.821V282.161M697.399 251.821H726.099M697.399 282.161V312.501M697.399 282.161H726.099M697.399 312.501V342.84M697.399 312.501H726.099M697.399 342.84V373.18M697.399 342.84H726.099M697.399 373.18V403.52M697.399 373.18H726.099M697.399 403.52V433.86M697.399 403.52H726.099M697.399 433.86V464.2M697.399 433.86H726.099M697.399 464.2V494.54M697.399 464.2H726.099M697.399 494.54V524.879M697.399 494.54H726.099M697.399 524.879V555.219M697.399 524.879H726.099M697.399 555.219V585.559M697.399 555.219H726.099M697.399 585.559V615.899M697.399 585.559H726.099M697.399 615.899H726.099M726.099 9.10229V39.4421M726.099 9.10229H754.798M726.099 39.4421V69.782M726.099 39.4421H754.798M726.099 69.782V100.122M726.099 69.782H754.798M726.099 100.122V130.462M726.099 100.122H754.798M726.099 130.462V160.801M726.099 130.462H754.798M726.099 160.801V191.141M726.099 160.801H754.798M726.099 191.141V221.481M726.099 191.141H754.798M726.099 221.481V251.821M726.099 221.481H754.798M726.099 251.821V282.161M726.099 251.821H754.798M726.099 282.161V312.501M726.099 282.161H754.798M726.099 312.501V342.84M726.099 312.501H754.798M726.099 342.84V373.18M726.099 342.84H754.798M726.099 373.18V403.52M726.099 373.18H754.798M726.099 403.52V433.86M726.099 403.52H754.798M726.099 433.86V464.2M726.099 433.86H754.798M726.099 464.2V494.54M726.099 464.2H754.798M726.099 494.54V524.879M726.099 494.54H754.798M726.099 524.879V555.219M726.099 524.879H754.798M726.099 555.219V585.559M726.099 555.219H754.798M726.099 585.559V615.899M726.099 585.559H754.798M726.099 615.899H754.798M754.798 9.10229V39.4421M754.798 9.10229H783.498M754.798 39.4421V69.782M754.798 39.4421H783.498M754.798 69.782V100.122M754.798 69.782H783.498M754.798 100.122V130.462M754.798 100.122H783.498M754.798 130.462V160.801M754.798 130.462H783.498M754.798 160.801V191.141M754.798 160.801H783.498M754.798 191.141V221.481M754.798 191.141H783.498M754.798 221.481V251.821M754.798 221.481H783.498M754.798 251.821V282.161M754.798 251.821H783.498M754.798 282.161V312.501M754.798 282.161H783.498M754.798 312.501V342.84M754.798 312.501H783.498M754.798 342.84V373.18M754.798 342.84H783.498M754.798 373.18V403.52M754.798 373.18H783.498M754.798 403.52V433.86M754.798 403.52H783.498M754.798 433.86V464.2M754.798 433.86H783.498M754.798 464.2V494.54M754.798 464.2H783.498M754.798 494.54V524.879M754.798 494.54H783.498M754.798 524.879V555.219M754.798 524.879H783.498M754.798 555.219V585.559M754.798 555.219H783.498M754.798 585.559V615.899M754.798 585.559H783.498M754.798 615.899H783.498M783.498 9.10229V39.4421M783.498 9.10229H812.197M783.498 39.4421V69.782M783.498 39.4421H812.197M783.498 69.782V100.122M783.498 69.782H812.197M783.498 100.122V130.462M783.498 100.122H812.197M783.498 130.462V160.801M783.498 130.462H812.197M783.498 160.801V191.141M783.498 160.801H812.197M783.498 191.141V221.481M783.498 191.141H812.197M783.498 221.481V251.821M783.498 221.481H812.197M783.498 251.821V282.161M783.498 251.821H812.197M783.498 282.161V312.501M783.498 282.161H812.197M783.498 312.501V342.84M783.498 312.501H812.197M783.498 342.84V373.18M783.498 342.84H812.197M783.498 373.18V403.52M783.498 373.18H812.197M783.498 403.52V433.86M783.498 403.52H812.197M783.498 433.86V464.2M783.498 433.86H812.197M783.498 464.2V494.54M783.498 464.2H812.197M783.498 494.54V524.879M783.498 494.54H812.197M783.498 524.879V555.219M783.498 524.879H812.197M783.498 555.219V585.559M783.498 555.219H812.197M783.498 585.559V615.899M783.498 585.559H812.197M783.498 615.899H812.197M812.197 9.10229V39.4421M812.197 9.10229H840.897M812.197 39.4421V69.782M812.197 39.4421H840.897M812.197 69.782V100.122M812.197 69.782H840.897M812.197 100.122V130.462M812.197 100.122H840.897M812.197 130.462V160.801M812.197 130.462H840.897M812.197 160.801V191.141M812.197 160.801H840.897M812.197 191.141V221.481M812.197 191.141H840.897M812.197 221.481V251.821M812.197 221.481H840.897M812.197 251.821V282.161M812.197 251.821H840.897M812.197 282.161V312.501M812.197 282.161H840.897M812.197 312.501V342.84M812.197 312.501H840.897M812.197 342.84V373.18M812.197 342.84H840.897M812.197 373.18V403.52M812.197 373.18H840.897M812.197 403.52V433.86M812.197 403.52H840.897M812.197 433.86V464.2M812.197 433.86H840.897M812.197 464.2V494.54M812.197 464.2H840.897M812.197 494.54V524.879M812.197 494.54H840.897M812.197 524.879V555.219M812.197 524.879H840.897M812.197 555.219V585.559M812.197 555.219H840.897M812.197 585.559V615.899M812.197 585.559H840.897M812.197 615.899H840.897M840.897 9.10229V39.4421M840.897 9.10229H869.596M840.897 39.4421V69.782M840.897 39.4421H869.596M840.897 69.782V100.122M840.897 69.782H869.596M840.897 100.122V130.462M840.897 100.122H869.596M840.897 130.462V160.801M840.897 130.462H869.596M840.897 160.801V191.141M840.897 160.801H869.596M840.897 191.141V221.481M840.897 191.141H869.596M840.897 221.481V251.821M840.897 221.481H869.596M840.897 251.821V282.161M840.897 251.821H869.596M840.897 282.161V312.501M840.897 282.161H869.596M840.897 312.501V342.84M840.897 312.501H869.596M840.897 342.84V373.18M840.897 342.84H869.596M840.897 373.18V403.52M840.897 373.18H869.596M840.897 403.52V433.86M840.897 403.52H869.596M840.897 433.86V464.2M840.897 433.86H869.596M840.897 464.2V494.54M840.897 464.2H869.596M840.897 494.54V524.879M840.897 494.54H869.596M840.897 524.879V555.219M840.897 524.879H869.596M840.897 555.219V585.559M840.897 555.219H869.596M840.897 585.559V615.899M840.897 585.559H869.596M840.897 615.899H869.596M869.596 9.10229V39.4421M869.596 9.10229H898.296M869.596 39.4421V69.782M869.596 39.4421H898.296M869.596 69.782V100.122M869.596 69.782H898.296M869.596 100.122V130.462M869.596 100.122H898.296M869.596 130.462V160.801M869.596 130.462H898.296M869.596 160.801V191.141M869.596 160.801H898.296M869.596 191.141V221.481M869.596 191.141H898.296M869.596 221.481V251.821M869.596 221.481H898.296M869.596 251.821V282.161M869.596 251.821H898.296M869.596 282.161V312.501M869.596 282.161H898.296M869.596 312.501V342.84M869.596 312.501H898.296M869.596 342.84V373.18M869.596 342.84H898.296M869.596 373.18V403.52M869.596 373.18H898.296M869.596 403.52V433.86M869.596 403.52H898.296M869.596 433.86V464.2M869.596 433.86H898.296M869.596 464.2V494.54M869.596 464.2H898.296M869.596 494.54V524.879M869.596 494.54H898.296M869.596 524.879V555.219M869.596 524.879H898.296M869.596 555.219V585.559M869.596 555.219H898.296M869.596 585.559V615.899M869.596 585.559H898.296M869.596 615.899H898.296M898.296 9.10229V39.4421M898.296 9.10229H926.995M898.296 39.4421V69.782M898.296 39.4421H926.995M898.296 69.782V100.122M898.296 69.782H926.995M898.296 100.122V130.462M898.296 100.122H926.995M898.296 130.462V160.801M898.296 130.462H926.995M898.296 160.801V191.141M898.296 160.801H926.995M898.296 191.141V221.481M898.296 191.141H926.995M898.296 221.481V251.821M898.296 221.481H926.995M898.296 251.821V282.161M898.296 251.821H926.995M898.296 282.161V312.501M898.296 282.161H926.995M898.296 312.501V342.84M898.296 312.501H926.995M898.296 342.84V373.18M898.296 342.84H926.995M898.296 373.18V403.52M898.296 373.18H926.995M898.296 403.52V433.86M898.296 403.52H926.995M898.296 433.86V464.2M898.296 433.86H926.995M898.296 464.2V494.54M898.296 464.2H926.995M898.296 494.54V524.879M898.296 494.54H926.995M898.296 524.879V555.219M898.296 524.879H926.995M898.296 555.219V585.559M898.296 555.219H926.995M898.296 585.559V615.899M898.296 585.559H926.995M898.296 615.899H926.995M926.995 9.10229V39.4421M926.995 9.10229H955.695M926.995 39.4421V69.782M926.995 39.4421H955.695M926.995 69.782V100.122M926.995 69.782H955.695M926.995 100.122V130.462M926.995 100.122H955.695M926.995 130.462V160.801M926.995 130.462H955.695M926.995 160.801V191.141M926.995 160.801H955.695M926.995 191.141V221.481M926.995 191.141H955.695M926.995 221.481V251.821M926.995 221.481H955.695M926.995 251.821V282.161M926.995 251.821H955.695M926.995 282.161V312.501M926.995 282.161H955.695M926.995 312.501V342.84M926.995 312.501H955.695M926.995 342.84V373.18M926.995 342.84H955.695M926.995 373.18V403.52M926.995 373.18H955.695M926.995 403.52V433.86M926.995 403.52H955.695M926.995 433.86V464.2M926.995 433.86H955.695M926.995 464.2V494.54M926.995 464.2H955.695M926.995 494.54V524.879M926.995 494.54H955.695M926.995 524.879V555.219M926.995 524.879H955.695M926.995 555.219V585.559M926.995 555.219H955.695M926.995 585.559V615.899M926.995 585.559H955.695M926.995 615.899H955.695M955.695 9.10229V39.4421M955.695 9.10229H984.395M955.695 39.4421V69.782M955.695 39.4421H984.395M955.695 69.782V100.122M955.695 69.782H984.395M955.695 100.122V130.462M955.695 100.122H984.395M955.695 130.462V160.801M955.695 130.462H984.395M955.695 160.801V191.141M955.695 160.801H984.395M955.695 191.141V221.481M955.695 191.141H984.395M955.695 221.481V251.821M955.695 221.481H984.395M955.695 251.821V282.161M955.695 251.821H984.395M955.695 282.161V312.501M955.695 282.161H984.395M955.695 312.501V342.84M955.695 312.501H984.395M955.695 342.84V373.18M955.695 342.84H984.395M955.695 373.18V403.52M955.695 373.18H984.395M955.695 403.52V433.86M955.695 403.52H984.395M955.695 433.86V464.2M955.695 433.86H984.395M955.695 464.2V494.54M955.695 464.2H984.395M955.695 494.54V524.879M955.695 494.54H984.395M955.695 524.879V555.219M955.695 524.879H984.395M955.695 555.219V585.559M955.695 555.219H984.395M955.695 585.559V615.899M955.695 585.559H984.395M955.695 615.899H984.395M984.395 9.10229V39.4421M984.395 9.10229H1013.09M984.395 39.4421V69.782M984.395 39.4421H1013.09M984.395 69.782V100.122M984.395 69.782H1013.09M984.395 100.122V130.462M984.395 100.122H1013.09M984.395 130.462V160.801M984.395 130.462H1013.09M984.395 160.801V191.141M984.395 160.801H1013.09M984.395 191.141V221.481M984.395 191.141H1013.09M984.395 221.481V251.821M984.395 221.481H1013.09M984.395 251.821V282.161M984.395 251.821H1013.09M984.395 282.161V312.501M984.395 282.161H1013.09M984.395 312.501V342.84M984.395 312.501H1013.09M984.395 342.84V373.18M984.395 342.84H1013.09M984.395 373.18V403.52M984.395 373.18H1013.09M984.395 403.52V433.86M984.395 403.52H1013.09M984.395 433.86V464.2M984.395 433.86H1013.09M984.395 464.2V494.54M984.395 464.2H1013.09M984.395 494.54V524.879M984.395 494.54H1013.09M984.395 524.879V555.219M984.395 524.879H1013.09M984.395 555.219V585.559M984.395 555.219H1013.09M984.395 585.559V615.899M984.395 585.559H1013.09M984.395 615.899H1013.09M1013.09 9.10229V39.4421M1013.09 9.10229H1041.79M1013.09 39.4421V69.782M1013.09 39.4421H1041.79M1013.09 69.782V100.122M1013.09 69.782H1041.79M1013.09 100.122V130.462M1013.09 100.122H1041.79M1013.09 130.462V160.801M1013.09 130.462H1041.79M1013.09 160.801V191.141M1013.09 160.801H1041.79M1013.09 191.141V221.481M1013.09 191.141H1041.79M1013.09 221.481V251.821M1013.09 221.481H1041.79M1013.09 251.821V282.161M1013.09 251.821H1041.79M1013.09 282.161V312.501M1013.09 282.161H1041.79M1013.09 312.501V342.84M1013.09 312.501H1041.79M1013.09 342.84V373.18M1013.09 342.84H1041.79M1013.09 373.18V403.52M1013.09 373.18H1041.79M1013.09 403.52V433.86M1013.09 403.52H1041.79M1013.09 433.86V464.2M1013.09 433.86H1041.79M1013.09 464.2V494.54M1013.09 464.2H1041.79M1013.09 494.54V524.879M1013.09 494.54H1041.79M1013.09 524.879V555.219M1013.09 524.879H1041.79M1013.09 555.219V585.559M1013.09 555.219H1041.79M1013.09 585.559V615.899M1013.09 585.559H1041.79M1013.09 615.899H1041.79M1041.79 9.10229V39.4421M1041.79 9.10229H1070.49M1041.79 39.4421V69.782M1041.79 39.4421H1070.49M1041.79 69.782V100.122M1041.79 69.782H1070.49M1041.79 100.122V130.462M1041.79 100.122H1070.49M1041.79 130.462V160.801M1041.79 130.462H1070.49M1041.79 160.801V191.141M1041.79 160.801H1070.49M1041.79 191.141V221.481M1041.79 191.141H1070.49M1041.79 221.481V251.821M1041.79 221.481H1070.49M1041.79 251.821V282.161M1041.79 251.821H1070.49M1041.79 282.161V312.501M1041.79 282.161H1070.49M1041.79 312.501V342.84M1041.79 312.501H1070.49M1041.79 342.84V373.18M1041.79 342.84H1070.49M1041.79 373.18V403.52M1041.79 373.18H1070.49M1041.79 403.52V433.86M1041.79 403.52H1070.49M1041.79 433.86V464.2M1041.79 433.86H1070.49M1041.79 464.2V494.54M1041.79 464.2H1070.49M1041.79 494.54V524.879M1041.79 494.54H1070.49M1041.79 524.879V555.219M1041.79 524.879H1070.49M1041.79 555.219V585.559M1041.79 555.219H1070.49M1041.79 585.559V615.899M1041.79 585.559H1070.49M1041.79 615.899H1070.49M1070.49 9.10229V39.4421M1070.49 9.10229H1099.19M1070.49 39.4421V69.782M1070.49 39.4421H1099.19M1070.49 69.782V100.122M1070.49 69.782H1099.19M1070.49 100.122V130.462M1070.49 100.122H1099.19M1070.49 130.462V160.801M1070.49 130.462H1099.19M1070.49 160.801V191.141M1070.49 160.801H1099.19M1070.49 191.141V221.481M1070.49 191.141H1099.19M1070.49 221.481V251.821M1070.49 221.481H1099.19M1070.49 251.821V282.161M1070.49 251.821H1099.19M1070.49 282.161V312.501M1070.49 282.161H1099.19M1070.49 312.501V342.84M1070.49 312.501H1099.19M1070.49 342.84V373.18M1070.49 342.84H1099.19M1070.49 373.18V403.52M1070.49 373.18H1099.19M1070.49 403.52V433.86M1070.49 403.52H1099.19M1070.49 433.86V464.2M1070.49 433.86H1099.19M1070.49 464.2V494.54M1070.49 464.2H1099.19M1070.49 494.54V524.879M1070.49 494.54H1099.19M1070.49 524.879V555.219M1070.49 524.879H1099.19M1070.49 555.219V585.559M1070.49 555.219H1099.19M1070.49 585.559V615.899M1070.49 585.559H1099.19M1070.49 615.899H1099.19M1099.19 9.10229V39.4421M1099.19 9.10229H1127.89M1099.19 39.4421V69.782M1099.19 39.4421H1127.89M1099.19 69.782V100.122M1099.19 69.782H1127.89M1099.19 100.122V130.462M1099.19 100.122H1127.89M1099.19 130.462V160.801M1099.19 130.462H1127.89M1099.19 160.801V191.141M1099.19 160.801H1127.89M1099.19 191.141V221.481M1099.19 191.141H1127.89M1099.19 221.481V251.821M1099.19 221.481H1127.89M1099.19 251.821V282.161M1099.19 251.821H1127.89M1099.19 282.161V312.501M1099.19 282.161H1127.89M1099.19 312.501V342.84M1099.19 312.501H1127.89M1099.19 342.84V373.18M1099.19 342.84H1127.89M1099.19 373.18V403.52M1099.19 373.18H1127.89M1099.19 403.52V433.86M1099.19 403.52H1127.89M1099.19 433.86V464.2M1099.19 433.86H1127.89M1099.19 464.2V494.54M1099.19 464.2H1127.89M1099.19 494.54V524.879M1099.19 494.54H1127.89M1099.19 524.879V555.219M1099.19 524.879H1127.89M1099.19 555.219V585.559M1099.19 555.219H1127.89M1099.19 585.559V615.899M1099.19 585.559H1127.89M1099.19 615.899H1127.89M1127.89 9.10229V39.4421M1127.89 9.10229H1156.59M1127.89 39.4421V69.782M1127.89 39.4421H1156.59M1127.89 69.782V100.122M1127.89 69.782H1156.59M1127.89 100.122V130.462M1127.89 100.122H1156.59M1127.89 130.462V160.801M1127.89 130.462H1156.59M1127.89 160.801V191.141M1127.89 160.801H1156.59M1127.89 191.141V221.481M1127.89 191.141H1156.59M1127.89 221.481V251.821M1127.89 221.481H1156.59M1127.89 251.821V282.161M1127.89 251.821H1156.59M1127.89 282.161V312.501M1127.89 282.161H1156.59M1127.89 312.501V342.84M1127.89 312.501H1156.59M1127.89 342.84V373.18M1127.89 342.84H1156.59M1127.89 373.18V403.52M1127.89 373.18H1156.59M1127.89 403.52V433.86M1127.89 403.52H1156.59M1127.89 433.86V464.2M1127.89 433.86H1156.59M1127.89 464.2V494.54M1127.89 464.2H1156.59M1127.89 494.54V524.879M1127.89 494.54H1156.59M1127.89 524.879V555.219M1127.89 524.879H1156.59M1127.89 555.219V585.559M1127.89 555.219H1156.59M1127.89 585.559V615.899M1127.89 585.559H1156.59M1127.89 615.899H1156.59M1156.59 9.10229V39.4421M1156.59 9.10229H1185.29M1156.59 39.4421V69.782M1156.59 39.4421H1185.29M1156.59 69.782V100.122M1156.59 69.782H1185.29M1156.59 100.122V130.462M1156.59 100.122H1185.29M1156.59 130.462V160.801M1156.59 130.462H1185.29M1156.59 160.801V191.141M1156.59 160.801H1185.29M1156.59 191.141V221.481M1156.59 191.141H1185.29M1156.59 221.481V251.821M1156.59 221.481H1185.29M1156.59 251.821V282.161M1156.59 251.821H1185.29M1156.59 282.161V312.501M1156.59 282.161H1185.29M1156.59 312.501V342.84M1156.59 312.501H1185.29M1156.59 342.84V373.18M1156.59 342.84H1185.29M1156.59 373.18V403.52M1156.59 373.18H1185.29M1156.59 403.52V433.86M1156.59 403.52H1185.29M1156.59 433.86V464.2M1156.59 433.86H1185.29M1156.59 464.2V494.54M1156.59 464.2H1185.29M1156.59 494.54V524.879M1156.59 494.54H1185.29M1156.59 524.879V555.219M1156.59 524.879H1185.29M1156.59 555.219V585.559M1156.59 555.219H1185.29M1156.59 585.559V615.899M1156.59 585.559H1185.29M1156.59 615.899H1185.29M1185.29 9.10229V39.4421M1185.29 9.10229H1213.99M1185.29 39.4421V69.782M1185.29 39.4421H1213.99M1185.29 69.782V100.122M1185.29 69.782H1213.99M1185.29 100.122V130.462M1185.29 100.122H1213.99M1185.29 130.462V160.801M1185.29 130.462H1213.99M1185.29 160.801V191.141M1185.29 160.801H1213.99M1185.29 191.141V221.481M1185.29 191.141H1213.99M1185.29 221.481V251.821M1185.29 221.481H1213.99M1185.29 251.821V282.161M1185.29 251.821H1213.99M1185.29 282.161V312.501M1185.29 282.161H1213.99M1185.29 312.501V342.84M1185.29 312.501H1213.99M1185.29 342.84V373.18M1185.29 342.84H1213.99M1185.29 373.18V403.52M1185.29 373.18H1213.99M1185.29 403.52V433.86M1185.29 403.52H1213.99M1185.29 433.86V464.2M1185.29 433.86H1213.99M1185.29 464.2V494.54M1185.29 464.2H1213.99M1185.29 494.54V524.879M1185.29 494.54H1213.99M1185.29 524.879V555.219M1185.29 524.879H1213.99M1185.29 555.219V585.559M1185.29 555.219H1213.99M1185.29 585.559V615.899M1185.29 585.559H1213.99M1185.29 615.899H1213.99M1213.99 9.10229V39.4421M1213.99 9.10229H1242.69M1213.99 39.4421V69.782M1213.99 39.4421H1242.69M1213.99 69.782V100.122M1213.99 69.782H1242.69M1213.99 100.122V130.462M1213.99 100.122H1242.69M1213.99 130.462V160.801M1213.99 130.462H1242.69M1213.99 160.801V191.141M1213.99 160.801H1242.69M1213.99 191.141V221.481M1213.99 191.141H1242.69M1213.99 221.481V251.821M1213.99 221.481H1242.69M1213.99 251.821V282.161M1213.99 251.821H1242.69M1213.99 282.161V312.501M1213.99 282.161H1242.69M1213.99 312.501V342.84M1213.99 312.501H1242.69M1213.99 342.84V373.18M1213.99 342.84H1242.69M1213.99 373.18V403.52M1213.99 373.18H1242.69M1213.99 403.52V433.86M1213.99 403.52H1242.69M1213.99 433.86V464.2M1213.99 433.86H1242.69M1213.99 464.2V494.54M1213.99 464.2H1242.69M1213.99 494.54V524.879M1213.99 494.54H1242.69M1213.99 524.879V555.219M1213.99 524.879H1242.69M1213.99 555.219V585.559M1213.99 555.219H1242.69M1213.99 585.559V615.899M1213.99 585.559H1242.69M1213.99 615.899H1242.69M1242.69 9.10229V39.4421M1242.69 9.10229H1271.39V39.4421M1242.69 39.4421V69.782M1242.69 39.4421H1271.39M1242.69 69.782V100.122M1242.69 69.782H1271.39M1242.69 100.122V130.462M1242.69 100.122H1271.39M1242.69 130.462V160.801M1242.69 130.462H1271.39M1242.69 160.801V191.141M1242.69 160.801H1271.39M1242.69 191.141V221.481M1242.69 191.141H1271.39M1242.69 221.481V251.821M1242.69 221.481H1271.39M1242.69 251.821V282.161M1242.69 251.821H1271.39M1242.69 282.161V312.501M1242.69 282.161H1271.39M1242.69 312.501V342.84M1242.69 312.501H1271.39M1242.69 342.84V373.18M1242.69 342.84H1271.39M1242.69 373.18V403.52M1242.69 373.18H1271.39M1242.69 403.52V433.86M1242.69 403.52H1271.39M1242.69 433.86V464.2M1242.69 433.86H1271.39M1242.69 464.2V494.54M1242.69 464.2H1271.39M1242.69 494.54V524.879M1242.69 494.54H1271.39M1242.69 524.879V555.219M1242.69 524.879H1271.39M1242.69 555.219V585.559M1242.69 555.219H1271.39M1242.69 585.559V615.899M1242.69 585.559H1271.39M1242.69 615.899H1271.39V585.559M1271.39 39.4421V69.782M1271.39 69.782V100.122M1271.39 100.122V130.462M1271.39 130.462V160.801M1271.39 160.801V191.141M1271.39 191.141V221.481M1271.39 221.481V251.821M1271.39 251.821V282.161M1271.39 282.161V312.501M1271.39 312.501V342.84M1271.39 342.84V373.18M1271.39 373.18V403.52M1271.39 403.52V433.86M1271.39 433.86V464.2M1271.39 464.2V494.54M1271.39 494.54V524.879M1271.39 524.879V555.219M1271.39 555.219V585.559" stroke="url(#paint0_radial_89_111)" stroke-opacity="0.6" stroke-width="0.805493"/>
</g>
<g style="mix-blend-mode:soft-light" opacity="0.8">
<path d="M123.408 121.359V130.461M123.408 130.461V139.563M123.408 130.461H114.798M123.408 130.461H132.018M123.408 364.078V373.18M123.408 373.18V382.282M123.408 373.18H114.798M123.408 373.18H132.018M123.408 606.797V615.899M123.408 615.899V625.001M123.408 615.899H114.798M123.408 615.899H132.018M353.005 121.359V130.461M353.005 130.461V139.563M353.005 130.461H344.395M353.005 130.461H361.614M353.005 364.078V373.18M353.005 373.18V382.282M353.005 373.18H344.395M353.005 373.18H361.614M353.005 606.797V615.899M353.005 615.899V625.001M353.005 615.899H344.395M353.005 615.899H361.614M582.601 121.359V130.461M582.601 130.461V139.563M582.601 130.461H573.991M582.601 130.461H591.211M582.601 364.078V373.18M582.601 373.18V382.282M582.601 373.18H573.991M582.601 373.18H591.211M582.601 606.797V615.899M582.601 615.899V625.001M582.601 615.899H573.991M582.601 615.899H591.211M812.197 121.359V130.461M812.197 130.461V139.563M812.197 130.461H803.588M812.197 130.461H820.807M812.197 364.078V373.18M812.197 373.18V382.282M812.197 373.18H803.588M812.197 373.18H820.807M812.197 606.797V615.899M812.197 615.899V625.001M812.197 615.899H803.588M812.197 615.899H820.807M1041.79 121.359V130.461M1041.79 130.461V139.563M1041.79 130.461H1033.18M1041.79 130.461H1050.4M1041.79 364.078V373.18M1041.79 373.18V382.282M1041.79 373.18H1033.18M1041.79 373.18H1050.4M1041.79 606.797V615.899M1041.79 615.899V625.001M1041.79 615.899H1033.18M1041.79 615.899H1050.4M1271.39 121.359V130.461M1271.39 130.461V139.563M1271.39 130.461H1262.78M1271.39 130.461H1280M1271.39 364.078V373.18M1271.39 373.18V382.282M1271.39 373.18H1262.78M1271.39 373.18H1280M1271.39 606.797V615.899M1271.39 615.899V625.001M1271.39 615.899H1262.78M1271.39 615.899H1280M123.408 0V9.10195M123.408 9.10195V18.2039M123.408 9.10195H114.798M123.408 9.10195H132.018M123.408 242.719V251.821M123.408 251.821V260.923M123.408 251.821H114.798M123.408 251.821H132.018M123.408 485.437V494.539M123.408 494.539V503.641M123.408 494.539H114.798M123.408 494.539H132.018M353.005 0V9.10195M353.005 9.10195V18.2039M353.005 9.10195H344.395M353.005 9.10195H361.614M353.005 242.719V251.821M353.005 251.821V260.923M353.005 251.821H344.395M353.005 251.821H361.614M353.005 485.437V494.539M353.005 494.539V503.641M353.005 494.539H344.395M353.005 494.539H361.614M582.601 0V9.10195M582.601 9.10195V18.2039M582.601 9.10195H573.991M582.601 9.10195H591.211M582.601 242.719V251.821M582.601 251.821V260.923M582.601 251.821H573.991M582.601 251.821H591.211M582.601 485.437V494.539M582.601 494.539V503.641M582.601 494.539H573.991M582.601 494.539H591.211M812.197 0V9.10195M812.197 9.10195V18.2039M812.197 9.10195H803.588M812.197 9.10195H820.807M812.197 242.719V251.821M812.197 251.821V260.923M812.197 251.821H803.588M812.197 251.821H820.807M812.197 485.437V494.539M812.197 494.539V503.641M812.197 494.539H803.588M812.197 494.539H820.807M1041.79 0V9.10195M1041.79 9.10195V18.2039M1041.79 9.10195H1033.18M1041.79 9.10195H1050.4M1041.79 242.719V251.821M1041.79 251.821V260.923M1041.79 251.821H1033.18M1041.79 251.821H1050.4M1041.79 485.437V494.539M1041.79 494.539V503.641M1041.79 494.539H1033.18M1041.79 494.539H1050.4M1271.39 0V9.10195M1271.39 9.10195V18.2039M1271.39 9.10195H1262.78M1271.39 9.10195H1280M1271.39 242.719V251.821M1271.39 251.821V260.923M1271.39 251.821H1262.78M1271.39 251.821H1280M1271.39 485.437V494.539M1271.39 494.539V503.641M1271.39 494.539H1262.78M1271.39 494.539H1280M8.60987 121.359V130.461M8.60987 130.461V139.563M8.60987 130.461H0M8.60987 130.461H17.2197M8.60987 364.078V373.18M8.60987 373.18V382.282M8.60987 373.18H0M8.60987 373.18H17.2197M8.60987 606.797V615.899M8.60987 615.899V625.001M8.60987 615.899H0M8.60987 615.899H17.2197M238.206 121.359V130.461M238.206 130.461V139.563M238.206 130.461H229.596M238.206 130.461H246.816M238.206 364.078V373.18M238.206 373.18V382.282M238.206 373.18H229.596M238.206 373.18H246.816M238.206 606.797V615.899M238.206 615.899V625.001M238.206 615.899H229.596M238.206 615.899H246.816M467.803 121.359V130.461M467.803 130.461V139.563M467.803 130.461H459.193M467.803 130.461H476.413M467.803 364.078V373.18M467.803 373.18V382.282M467.803 373.18H459.193M467.803 373.18H476.413M467.803 606.797V615.899M467.803 615.899V625.001M467.803 615.899H459.193M467.803 615.899H476.413M697.399 121.359V130.461M697.399 130.461V139.563M697.399 130.461H688.789M697.399 130.461H706.009M697.399 364.078V373.18M697.399 373.18V382.282M697.399 373.18H688.789M697.399 373.18H706.009M697.399 606.797V615.899M697.399 615.899V625.001M697.399 615.899H688.789M697.399 615.899H706.009M926.996 121.359V130.461M926.996 130.461V139.563M926.996 130.461H918.386M926.996 130.461H935.605M926.996 364.078V373.18M926.996 373.18V382.282M926.996 373.18H918.386M926.996 373.18H935.605M926.996 606.797V615.899M926.996 615.899V625.001M926.996 615.899H918.386M926.996 615.899H935.605M1156.59 121.359V130.461M1156.59 130.461V139.563M1156.59 130.461H1147.98M1156.59 130.461H1165.2M1156.59 364.078V373.18M1156.59 373.18V382.282M1156.59 373.18H1147.98M1156.59 373.18H1165.2M1156.59 606.797V615.899M1156.59 615.899V625.001M1156.59 615.899H1147.98M1156.59 615.899H1165.2M8.60987 4.47453e-05V9.102M8.60987 9.102V18.2039M8.60987 9.102H0M8.60987 9.102H17.2197M8.60987 242.719V251.821M8.60987 251.821V260.923M8.60987 251.821H0M8.60987 251.821H17.2197M8.60987 485.437V494.539M8.60987 494.539V503.641M8.60987 494.539H0M8.60987 494.539H17.2197M238.206 0V9.10195M238.206 9.10195V18.2039M238.206 9.10195H229.596M238.206 9.10195H246.816M238.206 242.719V251.821M238.206 251.821V260.923M238.206 251.821H229.596M238.206 251.821H246.816M238.206 485.437V494.539M238.206 494.539V503.641M238.206 494.539H229.596M238.206 494.539H246.816M467.803 0V9.10195M467.803 9.10195V18.2039M467.803 9.10195H459.193M467.803 9.10195H476.413M467.803 242.719V251.821M467.803 251.821V260.923M467.803 251.821H459.193M467.803 251.821H476.413M467.803 485.437V494.539M467.803 494.539V503.641M467.803 494.539H459.193M467.803 494.539H476.413M697.399 0V9.10195M697.399 9.10195V18.2039M697.399 9.10195H688.789M697.399 9.10195H706.009M697.399 242.719V251.821M697.399 251.821V260.923M697.399 251.821H688.789M697.399 251.821H706.009M697.399 485.437V494.539M697.399 494.539V503.641M697.399 494.539H688.789M697.399 494.539H706.009M926.996 0V9.10195M926.996 9.10195V18.2039M926.996 9.10195H918.386M926.996 9.10195H935.605M926.996 242.719V251.821M926.996 251.821V260.923M926.996 251.821H918.386M926.996 251.821H935.605M926.996 485.437V494.539M926.996 494.539V503.641M926.996 494.539H918.386M926.996 494.539H935.605M1156.59 0V9.10195M1156.59 9.10195V18.2039M1156.59 9.10195H1147.98M1156.59 9.10195H1165.2M1156.59 242.719V251.821M1156.59 251.821V260.923M1156.59 251.821H1147.98M1156.59 251.821H1165.2M1156.59 485.437V494.539M1156.59 494.539V503.641M1156.59 494.539H1147.98M1156.59 494.539H1165.2" stroke="url(#paint1_radial_89_111)" stroke-opacity="0.6" stroke-width="1.61099"/>
</g>
<defs>
<radialGradient id="paint0_radial_89_111" cx="0" cy="0" r="1" gradientUnits="userSpaceOnUse" gradientTransform="translate(640 312.501) rotate(90) scale(303.398 631.39)">
<stop stop-color="white"/>
<stop offset="1" stop-color="white" stop-opacity="0"/>
</radialGradient>
<radialGradient id="paint1_radial_89_111" cx="0" cy="0" r="1" gradientUnits="userSpaceOnUse" gradientTransform="translate(640 312.5) rotate(90) scale(312.5 640)">
<stop stop-color="white"/>
<stop offset="1" stop-color="white" stop-opacity="0"/>
</radialGradient>
</defs>
</svg>
