<svg xmlns="http://www.w3.org/2000/svg" width="33" height="33" fill="none"><g clip-path="url(#a)"><path fill="#fff" fill-rule="evenodd" d="M21.53 14.3c.217-1.444-.883-2.22-2.387-2.738l.488-1.956-1.191-.297-.475 1.905a49 49 0 0 0-.954-.225l.478-1.917-1.19-.297-.488 1.956q-.39-.088-.76-.18v-.005l-1.642-.41-.316 1.272s.883.202.865.215c.482.12.57.44.555.692l-.556 2.23q.05.011.124.039l-.126-.031-.779 3.122c-.059.146-.208.366-.546.283.012.017-.865-.216-.865-.216l-.591 1.363 1.55.387.518.133q.167.044.33.086l-.492 1.979 1.19.297.488-1.958q.486.132.948.246l-.486 1.949 1.19.297.494-1.975c2.03.384 3.558.229 4.2-1.607.518-1.48-.026-2.332-1.094-2.89.778-.18 1.364-.691 1.52-1.748m-2.72 3.816c-.339 1.358-2.464.796-3.435.54l-.231-.06.654-2.622c.08.02.18.042.292.067 1.005.226 3.065.688 2.72 2.075m-2.518-3.291c.81.216 2.578.687 2.885-.546.315-1.261-1.403-1.641-2.242-1.827l-.246-.056-.593 2.378z" clip-rule="evenodd"/></g><defs><clipPath id="a"><path fill="#fff" d="M.712.16h32v32h-32z"/></clipPath></defs></svg>