<svg xmlns="http://www.w3.org/2000/svg" width="33" height="33" fill="none"><path fill="#fff" fill-rule="evenodd" d="M15.074 8.775h2.633c-.051.594-.106 1.192-.155 1.786 1.024.075 2.023.404 2.92.892q-.582 1.463-1.169 2.927a4.2 4.2 0 0 0-2.743-.985c-.248.006-.507.055-.714.197a.63.63 0 0 0-.264.4.57.57 0 0 0 .054.391c.081.13.223.207.366.255.29.104.604.11.907.143.714.087 1.431.21 2.107.465.523.2 1.024.5 1.382.94.34.404.537.914.61 1.438.088.604.062 1.23-.125 1.818a3.6 3.6 0 0 1-.717 1.283c-.669.775-1.651 1.24-2.659 1.36.032.636.071 1.27.107 1.906H15.12c.032-.63.074-1.26.103-1.89a6.1 6.1 0 0 1-1.955-.407 8.7 8.7 0 0 1-1.715-.888q.59-1.522 1.186-3.047c.449.378.927.73 1.45.998.562.288 1.186.472 1.819.479.3.003.61-.013.895-.117.174-.064.346-.177.423-.355a.61.61 0 0 0-.048-.591.8.8 0 0 0-.34-.246 2.4 2.4 0 0 0-.54-.139c-.678-.11-1.36-.2-2.015-.413-.527-.172-1.04-.41-1.46-.779a2.6 2.6 0 0 1-.64-.827c-.232-.472-.32-1.005-.313-1.528 0-.585.12-1.18.41-1.693.252-.459.636-.833 1.07-1.12.523-.347 1.107-.582 1.702-.773z" clip-rule="evenodd"/></svg>