<svg xmlns="http://www.w3.org/2000/svg" width="33" height="33" fill="none"><path fill="#fff" d="m20.565 22.81-.368-1.668a.32.32 0 0 0-.43-.24l-.052.02-.126.031-.194.048a6.463 6.463 0 0 1-1.295.152q-1.333 0-2.398-.719a4.22 4.22 0 0 1-1.568-1.946h4.06a.32.32 0 0 0 .21-.078.32.32 0 0 0 .114-.195l.252-1.174q.031-.158-.062-.283a.33.33 0 0 0-.263-.126h-4.814a9 9 0 0 1 0-1.102h5.119q.283 0 .335-.272l.252-1.196a.3.3 0 0 0-.073-.273.31.31 0 0 0-.262-.126h-4.91a4.14 4.14 0 0 1 1.574-1.846q1.05-.671 2.37-.671.043-.02.31.01.268.032.304.026.036-.005.273.032l.236.036.183.037q.08.016.121.026l.042.01a.307.307 0 0 0 .399-.23l.45-1.668a.35.35 0 0 0-.03-.251.4.4 0 0 0-.21-.158 8.4 8.4 0 0 0-2.036-.241q-2.349 0-4.2 1.342-1.852 1.343-2.555 3.546h-1.028a.33.33 0 0 0-.24.094.33.33 0 0 0-.095.242v1.195q0 .148.094.241a.33.33 0 0 0 .241.095h.703q-.031.504-.01 1.101h-.693q-.136 0-.236.1a.32.32 0 0 0-.1.236v1.185q0 .137.1.236.1.1.236.1h.997q.66 2.318 2.496 3.687t4.29 1.369a8 8 0 0 0 .787-.042 10 10 0 0 0 .934-.152q.126-.027.226-.058t.167-.047a.5.5 0 0 0 .11-.037l.053-.01a.33.33 0 0 0 .178-.152.3.3 0 0 0 .031-.236"/></svg>