<svg xmlns="http://www.w3.org/2000/svg" width="625" height="370" fill="none"><path fill="url(#a)" fill-opacity=".6" fill-rule="evenodd" d="M62.445.216H.22V61.6h55.78l6.446-6.36zM69.064 61.6 62.7 55.323V.216h62.227V61.6zM62.7 68.036l6.27-6.184h55.957v61.386H62.7zm-6.607-6.184 6.352 6.266v55.12H.22V61.852zM0 0v370h625V0H0m125.182.216h62.227V61.6h-62.227zm124.709 0h-62.227V61.6h62.227zm.255 0h62.226V61.6h-62.226zm124.708 0h-62.227V61.6h62.227zm.255 0h62.227V61.6h-62.227zm124.709 0h-62.227V61.6h62.227zm.255 0h62.226V61.6h-62.226zm124.708 0h-62.226V61.6h62.226zM125.182 61.852h62.227v61.386h-62.227zm124.709 0h-62.227v61.386h55.967l6.26-6.175zm6.414 61.386-6.159-6.076v-55.31h62.226v61.386zm-6.159 6.62 6.435-6.348-.021-.021h55.812v61.385h-62.226zm-6.769-6.369-.022.021 6.536 6.447v54.917h-62.227v-61.385zm131.477-61.637h-62.227v61.386h62.227zm.255 0h62.227v61.386h-62.227zm124.709 0h-62.227v61.386h62.227zm.255 0h62.226v44.355l-.105.104-17.158 16.927h-44.963zm44.708 61.637h-44.708v55.338l.209-.206 6.339 6.253H562.3v-44.061l-.106-.104-17.266-17.032-.169-.167zM562.3 140.48l-17.203-16.97.021-.021h10.653l-.021.021 6.55 6.461zm.254.206v44.188h62.227v-61.385h-44.837l.022.021-.169.167zm17.053-17.197.021.021-17.074 16.843v-10.509l6.422-6.334-.022-.021zm.083-.251h45.091V61.852h-62.226v44.482zm-17.135-16.571 16.797 16.571h-10.653l-6.144-6.062zm-.256-.127-16.926 16.698h10.653l6.273-6.189zm-62.226 84.921.209.206 6.613-6.523-.019-.018h55.423v61.385h-62.226zm-6.386-6.335-.018.018 6.149 6.066v55.301h-62.227v-61.385zm6.131-6.048-5.876 5.796h-56.351v-61.385h62.227zM.218 123.489h62.227v61.385H.22zm124.709 0H62.7v61.385h62.227zm.255 0h62.227v61.385h-62.227zm249.672 0h-62.226v61.385h62.226zm.255 0h62.227v61.385h-62.227zM.219 185.126h62.226v61.385H.22zm124.708 0H62.7v61.385h45.034l-.081-.08.168-.167 17.106-16.874zm0 44.597-16.937 16.708.081.08h10.653l-.081-.08 6.284-6.199zm.255 10.257v-10.508l.074-.073 17.265 17.032-.081.08h-10.652l.081-.08-6.613-6.523zm0 12.902.074.072 6.277-6.192h10.652l-16.929 16.701-.074-.073zm-6.203-6.12 5.948 5.868v10.509l-16.601-16.377zm-10.99 0H62.7v61.386h62.227v-44.676zm17.193 16.961v44.425h62.227v-61.386h-44.886l-17.098 16.868-.169.166zm17.596-17.212h44.631v-61.385h-62.227v44.013l.074-.073.169.166 17.265 17.032.169.167zm107.113-61.385h-62.227v61.385h62.227zm.255 0h62.226v61.385h-62.226zm124.708 0h-62.227v61.385h62.227zm.255 0h62.227v61.385h-62.227zm249.672 0h-62.226v61.385h62.226zM.219 246.762h62.226v61.386H.22zm249.672 0h-62.227v61.386h62.227zm.255 0h62.226v61.386h-62.226zm124.708 0h-62.227v61.386h62.227zm.255 0h62.227v61.386h-62.227zm124.709 0h-62.227v61.386h62.227zm.255 0h62.226v61.386h-62.226zm124.708 0h-62.226v61.386h62.226zM.219 308.399h62.226v61.385H.22zm124.708 0H62.7v61.385h62.227zm.255 0h62.227v61.385h-62.227zm124.709 0h-62.227v61.385h62.227zm.255 0h62.226v61.385h-62.226zm124.708 0h-62.227v61.385h62.227zm.255 0h62.227v61.385h-62.227zm124.709 0h-62.227v61.385h62.227zm.255 0h62.226v61.385h-62.226zm124.708 0h-62.227v61.385h62.227z" clip-rule="evenodd"/><defs><radialGradient id="a" cx="0" cy="0" r="1" gradientTransform="matrix(0 531.053 -897.048 0 312.5 -207.671)" gradientUnits="userSpaceOnUse"><stop stop-color="#fff"/><stop offset="1" stop-color="#fff" stop-opacity="0"/></radialGradient></defs></svg>