<svg width="450" height="289" viewBox="0 0 450 289" fill="none" xmlns="http://www.w3.org/2000/svg">
<rect x="1.12378" y="1" width="447.876" height="287" rx="29" fill="black" stroke="url(#paint0_linear_18_514)" stroke-width="2"/>
<mask id="mask0_18_514" style="mask-type:alpha" maskUnits="userSpaceOnUse" x="2" y="0" width="448" height="289">
<rect x="2" width="448" height="289" rx="30" fill="black"/>
</mask>
<g mask="url(#mask0_18_514)">
<g filter="url(#filter0_d_18_514)">
<rect x="402.527" y="140.312" width="103.493" height="31.9977" rx="15.9989" fill="white"/>
<rect x="375.139" y="162.31" width="149.333" height="46.7287" rx="23.3643" fill="white"/>
</g>
<g filter="url(#filter1_d_18_514)">
<rect x="-49.6178" y="67.8164" width="103.493" height="31.9977" rx="15.9989" fill="white"/>
<rect x="-77.006" y="89.7891" width="149.333" height="46.7287" rx="23.3643" fill="white"/>
</g>
<g filter="url(#filter2_d_18_514)">
<path d="M30.446 251.636L30.5809 248.639L28.0525 250.266L27.2783 248.916L29.963 247.545L27.2783 246.175L28.0525 244.825L30.5809 246.452L30.446 243.455H31.9872L31.8522 246.452L34.3806 244.825L35.1548 246.175L32.4701 247.545L35.1548 248.916L34.3806 250.266L31.8522 248.639L31.9872 251.636H30.446ZM40.8756 251.636L41.0106 248.639L38.4822 250.266L37.708 248.916L40.3927 247.545L37.708 246.175L38.4822 244.825L41.0106 246.452L40.8756 243.455H42.4168L42.2819 246.452L44.8103 244.825L45.5845 246.175L42.8998 247.545L45.5845 248.916L44.8103 250.266L42.2819 248.639L42.4168 251.636H40.8756ZM51.3053 251.636L51.4403 248.639L48.9119 250.266L48.1377 248.916L50.8224 247.545L48.1377 246.175L48.9119 244.825L51.4403 246.452L51.3053 243.455H52.8465L52.7116 246.452L55.24 244.825L56.0141 246.175L53.3295 247.545L56.0141 248.916L55.24 250.266L52.7116 248.639L52.8465 251.636H51.3053ZM61.735 251.636L61.87 248.639L59.3416 250.266L58.5674 248.916L61.2521 247.545L58.5674 246.175L59.3416 244.825L61.87 246.452L61.735 243.455H63.2762L63.1413 246.452L65.6697 244.825L66.4438 246.175L63.7592 247.545L66.4438 248.916L65.6697 250.266L63.1413 248.639L63.2762 251.636H61.735ZM72.1647 251.636L72.2997 248.639L69.7712 250.266L68.9971 248.916L71.6818 247.545L68.9971 246.175L69.7712 244.825L72.2997 246.452L72.1647 243.455H73.7059L73.571 246.452L76.0994 244.825L76.8735 246.175L74.1889 247.545L76.8735 248.916L76.0994 250.266L73.571 248.639L73.7059 251.636H72.1647ZM82.5944 251.636L82.7293 248.639L80.2009 250.266L79.4268 248.916L82.1114 247.545L79.4268 246.175L80.2009 244.825L82.7293 246.452L82.5944 243.455H84.1356L84.0006 246.452L86.5291 244.825L87.3032 246.175L84.6185 247.545L87.3032 248.916L86.5291 250.266L84.0006 248.639L84.1356 251.636H82.5944ZM93.0241 251.636L93.159 248.639L90.6306 250.266L89.8565 248.916L92.5411 247.545L89.8565 246.175L90.6306 244.825L93.159 246.452L93.0241 243.455H94.5653L94.4303 246.452L96.9587 244.825L97.7329 246.175L95.0482 247.545L97.7329 248.916L96.9587 250.266L94.4303 248.639L94.5653 251.636H93.0241ZM103.454 251.636L103.589 248.639L101.06 250.266L100.286 248.916L102.971 247.545L100.286 246.175L101.06 244.825L103.589 246.452L103.454 243.455H104.995L104.86 246.452L107.388 244.825L108.163 246.175L105.478 247.545L108.163 248.916L107.388 250.266L104.86 248.639L104.995 251.636H103.454ZM113.883 251.636L114.018 248.639L111.49 250.266L110.716 248.916L113.401 247.545L110.716 246.175L111.49 244.825L114.018 246.452L113.883 243.455H115.425L115.29 246.452L117.818 244.825L118.592 246.175L115.908 247.545L118.592 248.916L117.818 250.266L115.29 248.639L115.425 251.636H113.883ZM124.313 251.636L124.448 248.639L121.92 250.266L121.146 248.916L123.83 247.545L121.146 246.175L121.92 244.825L124.448 246.452L124.313 243.455H125.854L125.719 246.452L128.248 244.825L129.022 246.175L126.337 247.545L129.022 248.916L128.248 250.266L125.719 248.639L125.854 251.636H124.313ZM134.743 251.636L134.878 248.639L132.349 250.266L131.575 248.916L134.26 247.545L131.575 246.175L132.349 244.825L134.878 246.452L134.743 243.455H136.284L136.149 246.452L138.677 244.825L139.452 246.175L136.767 247.545L139.452 248.916L138.677 250.266L136.149 248.639L136.284 251.636H134.743Z" fill="white"/>
</g>
<g filter="url(#filter3_d_18_514)">
<path d="M372.463 260.241C371.341 260.237 370.382 259.941 369.587 259.354C368.791 258.767 368.183 257.912 367.761 256.79C367.34 255.668 367.129 254.316 367.129 252.734C367.129 251.158 367.34 249.811 367.761 248.693C368.188 247.576 368.798 246.723 369.594 246.136C370.394 245.549 371.35 245.256 372.463 245.256C373.576 245.256 374.53 245.552 375.325 246.143C376.121 246.731 376.729 247.583 377.151 248.7C377.577 249.813 377.79 251.158 377.79 252.734C377.79 254.321 377.579 255.675 377.158 256.797C376.736 257.914 376.128 258.769 375.332 259.361C374.537 259.948 373.58 260.241 372.463 260.241ZM372.463 258.345C373.448 258.345 374.217 257.865 374.771 256.903C375.33 255.942 375.609 254.553 375.609 252.734C375.609 251.527 375.482 250.507 375.226 249.673C374.975 248.835 374.613 248.201 374.139 247.77C373.67 247.334 373.112 247.116 372.463 247.116C371.483 247.116 370.714 247.599 370.155 248.565C369.596 249.531 369.314 250.921 369.31 252.734C369.31 253.946 369.435 254.972 369.686 255.81C369.942 256.643 370.304 257.275 370.773 257.706C371.241 258.132 371.805 258.345 372.463 258.345ZM380.309 260V258.409L385.231 253.31C385.757 252.756 386.19 252.27 386.531 251.854C386.877 251.432 387.135 251.032 387.305 250.653C387.475 250.275 387.561 249.872 387.561 249.446C387.561 248.963 387.447 248.546 387.22 248.196C386.993 247.841 386.682 247.569 386.289 247.379C385.896 247.185 385.454 247.088 384.961 247.088C384.44 247.088 383.986 247.195 383.598 247.408C383.209 247.621 382.911 247.921 382.703 248.31C382.494 248.698 382.39 249.152 382.39 249.673H380.295C380.295 248.788 380.499 248.014 380.906 247.351C381.313 246.688 381.872 246.174 382.582 245.81C383.292 245.44 384.1 245.256 385.004 245.256C385.918 245.256 386.723 245.438 387.419 245.803C388.119 246.162 388.666 246.655 389.059 247.28C389.452 247.9 389.649 248.601 389.649 249.382C389.649 249.922 389.547 250.45 389.343 250.966C389.145 251.482 388.797 252.057 388.299 252.692C387.802 253.321 387.111 254.086 386.225 254.986L383.335 258.011V258.118H389.883V260H380.309ZM398.143 244.773L393.456 262.188H391.559L396.247 244.773H398.143ZM404.983 260.199C404.007 260.199 403.136 260.031 402.369 259.695C401.607 259.358 401.003 258.892 400.558 258.295C400.118 257.694 399.881 256.998 399.848 256.207H402.078C402.106 256.638 402.251 257.012 402.511 257.33C402.776 257.642 403.122 257.884 403.548 258.054C403.974 258.224 404.448 258.31 404.968 258.31C405.541 258.31 406.048 258.21 406.488 258.011C406.933 257.812 407.281 257.536 407.532 257.18C407.783 256.821 407.909 256.406 407.909 255.938C407.909 255.45 407.783 255.021 407.532 254.652C407.286 254.278 406.924 253.984 406.446 253.771C405.972 253.558 405.399 253.452 404.727 253.452H403.498V251.662H404.727C405.267 251.662 405.74 251.565 406.147 251.371C406.559 251.177 406.881 250.907 407.113 250.561C407.345 250.211 407.461 249.801 407.461 249.332C407.461 248.883 407.359 248.492 407.156 248.161C406.957 247.824 406.673 247.562 406.304 247.372C405.939 247.183 405.508 247.088 405.011 247.088C404.538 247.088 404.095 247.176 403.683 247.351C403.276 247.521 402.944 247.768 402.689 248.089C402.433 248.407 402.296 248.788 402.277 249.233H400.153C400.177 248.447 400.409 247.756 400.849 247.159C401.294 246.562 401.881 246.096 402.61 245.76C403.34 245.424 404.149 245.256 405.039 245.256C405.972 245.256 406.777 245.438 407.454 245.803C408.136 246.162 408.662 246.643 409.031 247.244C409.405 247.846 409.59 248.504 409.585 249.219C409.59 250.033 409.362 250.724 408.903 251.293C408.449 251.861 407.842 252.242 407.085 252.436V252.55C408.051 252.696 408.799 253.08 409.329 253.7C409.864 254.321 410.129 255.09 410.125 256.009C410.129 256.809 409.907 257.526 409.457 258.161C409.012 258.795 408.404 259.295 407.632 259.659C406.86 260.019 405.977 260.199 404.983 260.199ZM417.873 260.241C416.751 260.237 415.792 259.941 414.997 259.354C414.201 258.767 413.593 257.912 413.172 256.79C412.75 255.668 412.539 254.316 412.539 252.734C412.539 251.158 412.75 249.811 413.172 248.693C413.598 247.576 414.208 246.723 415.004 246.136C415.804 245.549 416.761 245.256 417.873 245.256C418.986 245.256 419.94 245.552 420.735 246.143C421.531 246.731 422.139 247.583 422.561 248.7C422.987 249.813 423.2 251.158 423.2 252.734C423.2 254.321 422.989 255.675 422.568 256.797C422.146 257.914 421.538 258.769 420.743 259.361C419.947 259.948 418.991 260.241 417.873 260.241ZM417.873 258.345C418.858 258.345 419.627 257.865 420.181 256.903C420.74 255.942 421.02 254.553 421.02 252.734C421.02 251.527 420.892 250.507 420.636 249.673C420.385 248.835 420.023 248.201 419.549 247.77C419.081 247.334 418.522 247.116 417.873 247.116C416.893 247.116 416.124 247.599 415.565 248.565C415.006 249.531 414.725 250.921 414.72 252.734C414.72 253.946 414.845 254.972 415.096 255.81C415.352 256.643 415.714 257.275 416.183 257.706C416.652 258.132 417.215 258.345 417.873 258.345Z" fill="white"/>
</g>
<path d="M25.9999 226L426 226" stroke="white" stroke-opacity="0.2" stroke-width="2"/>
<g filter="url(#filter4_i_18_514)">
<path d="M31.8423 212.179C30.9389 212.179 30.1335 212.013 29.4261 211.68C28.723 211.348 28.1647 210.89 27.7514 210.306C27.338 209.722 27.1228 209.053 27.1058 208.299H29.7904C29.8203 208.806 30.0333 209.217 30.4296 209.533C30.8259 209.848 31.2968 210.006 31.8423 210.006C32.2769 210.006 32.6605 209.91 32.9928 209.718C33.3295 209.522 33.5916 209.251 33.7791 208.906C33.9708 208.557 34.0667 208.156 34.0667 207.705C34.0667 207.244 33.9687 206.839 33.7727 206.49C33.5809 206.141 33.3146 205.868 32.9737 205.672C32.6328 205.476 32.2428 205.376 31.8039 205.371C31.4204 205.371 31.0475 205.45 30.6853 205.608C30.3274 205.766 30.0482 205.981 29.848 206.254L27.387 205.812L28.007 198.909H36.0099V201.172H30.289L29.9502 204.451H30.0269C30.257 204.127 30.6043 203.859 31.0688 203.646C31.5333 203.433 32.0532 203.326 32.6285 203.326C33.4168 203.326 34.12 203.511 34.7379 203.882C35.3558 204.253 35.8437 204.762 36.2016 205.41C36.5596 206.053 36.7364 206.795 36.7322 207.634C36.7364 208.516 36.5319 209.3 36.1185 209.987C35.7095 210.668 35.1363 211.205 34.3991 211.597C33.6661 211.985 32.8139 212.179 31.8423 212.179ZM44.1638 212.179C43.2604 212.179 42.455 212.013 41.7476 211.68C41.0445 211.348 40.4863 210.89 40.0729 210.306C39.6596 209.722 39.4444 209.053 39.4273 208.299H42.112C42.1418 208.806 42.3549 209.217 42.7512 209.533C43.1475 209.848 43.6184 210.006 44.1638 210.006C44.5985 210.006 44.982 209.91 45.3144 209.718C45.651 209.522 45.9131 209.251 46.1006 208.906C46.2924 208.557 46.3883 208.156 46.3883 207.705C46.3883 207.244 46.2903 206.839 46.0942 206.49C45.9025 206.141 45.6361 205.868 45.2952 205.672C44.9543 205.476 44.5644 205.376 44.1255 205.371C43.742 205.371 43.3691 205.45 43.0069 205.608C42.6489 205.766 42.3698 205.981 42.1695 206.254L39.7086 205.812L40.3286 198.909H48.3314V201.172H42.6106L42.2718 204.451H42.3485C42.5786 204.127 42.9259 203.859 43.3904 203.646C43.8549 203.433 44.3748 203.326 44.9501 203.326C45.7384 203.326 46.4415 203.511 47.0594 203.882C47.6773 204.253 48.1653 204.762 48.5232 205.41C48.8812 206.053 49.058 206.795 49.0537 207.634C49.058 208.516 48.8535 209.3 48.4401 209.987C48.031 210.668 47.4579 211.205 46.7206 211.597C45.9877 211.985 45.1354 212.179 44.1638 212.179ZM56.4854 212.179C55.582 212.179 54.7766 212.013 54.0692 211.68C53.3661 211.348 52.8078 210.89 52.3945 210.306C51.9811 209.722 51.7659 209.053 51.7489 208.299H54.4335C54.4634 208.806 54.6764 209.217 55.0728 209.533C55.4691 209.848 55.9399 210.006 56.4854 210.006C56.9201 210.006 57.3036 209.91 57.636 209.718C57.9726 209.522 58.2347 209.251 58.4222 208.906C58.6139 208.557 58.7098 208.156 58.7098 207.705C58.7098 207.244 58.6118 206.839 58.4158 206.49C58.224 206.141 57.9577 205.868 57.6168 205.672C57.2759 205.476 56.886 205.376 56.447 205.371C56.0635 205.371 55.6906 205.45 55.3284 205.608C54.9705 205.766 54.6914 205.981 54.4911 206.254L52.0301 205.812L52.6502 198.909H60.653V201.172H54.9321L54.5933 204.451H54.6701C54.9002 204.127 55.2475 203.859 55.712 203.646C56.1764 203.433 56.6963 203.326 57.2716 203.326C58.06 203.326 58.7631 203.511 59.381 203.882C59.9989 204.253 60.4868 204.762 60.8448 205.41C61.2027 206.053 61.3796 206.795 61.3753 207.634C61.3796 208.516 61.175 209.3 60.7617 209.987C60.3526 210.668 59.7794 211.205 59.0422 211.597C58.3093 211.985 57.457 212.179 56.4854 212.179ZM68.807 212.179C67.9035 212.179 67.0981 212.013 66.3908 211.68C65.6876 211.348 65.1294 210.89 64.716 210.306C64.3027 209.722 64.0875 209.053 64.0705 208.299H66.7551C66.7849 208.806 66.998 209.217 67.3943 209.533C67.7906 209.848 68.2615 210.006 68.807 210.006C69.2416 210.006 69.6251 209.91 69.9575 209.718C70.2942 209.522 70.5562 209.251 70.7437 208.906C70.9355 208.557 71.0314 208.156 71.0314 207.705C71.0314 207.244 70.9334 206.839 70.7374 206.49C70.5456 206.141 70.2793 205.868 69.9383 205.672C69.5974 205.476 69.2075 205.376 68.7686 205.371C68.3851 205.371 68.0122 205.45 67.65 205.608C67.292 205.766 67.0129 205.981 66.8126 206.254L64.3517 205.812L64.9717 198.909H72.9746V201.172H67.2537L66.9149 204.451H66.9916C67.2217 204.127 67.569 203.859 68.0335 203.646C68.498 203.433 69.0179 203.326 69.5932 203.326C70.3815 203.326 71.0847 203.511 71.7026 203.882C72.3205 204.253 72.8084 204.762 73.1663 205.41C73.5243 206.053 73.7011 206.795 73.6969 207.634C73.7011 208.516 73.4966 209.3 73.0832 209.987C72.6741 210.668 72.101 211.205 71.3638 211.597C70.6308 211.985 69.7785 212.179 68.807 212.179ZM81.0351 209.699V207.519L86.5003 198.909H88.3796V201.926H87.2674L83.8221 207.379V207.481H91.5884V209.699H81.0351ZM87.3185 212V209.034L87.3696 208.069V198.909H89.9648V212H87.3185ZM93.9543 209.699V207.519L99.4195 198.909H101.299V201.926H100.187L96.7413 207.379V207.481H104.508V209.699H93.9543ZM100.238 212V209.034L100.289 208.069V198.909H102.884V212H100.238ZM106.874 209.699V207.519L112.339 198.909H114.218V201.926H113.106L109.661 207.379V207.481H117.427V209.699H106.874ZM113.157 212V209.034L113.208 208.069V198.909H115.803V212H113.157ZM119.793 209.699V207.519L125.258 198.909H127.137V201.926H126.025L122.58 207.379V207.481H130.346V209.699H119.793ZM126.076 212V209.034L126.127 208.069V198.909H128.722V212H126.076ZM142.577 212.179C141.674 212.179 140.869 212.013 140.161 211.68C139.458 211.348 138.9 210.89 138.487 210.306C138.073 209.722 137.858 209.053 137.841 208.299H140.526C140.555 208.806 140.768 209.217 141.165 209.533C141.561 209.848 142.032 210.006 142.577 210.006C143.012 210.006 143.396 209.91 143.728 209.718C144.065 209.522 144.327 209.251 144.514 208.906C144.706 208.557 144.802 208.156 144.802 207.705C144.802 207.244 144.704 206.839 144.508 206.49C144.316 206.141 144.05 205.868 143.709 205.672C143.368 205.476 142.978 205.376 142.539 205.371C142.156 205.371 141.783 205.45 141.42 205.608C141.063 205.766 140.783 205.981 140.583 206.254L138.122 205.812L138.742 198.909H146.745V201.172H141.024L140.685 204.451H140.762C140.992 204.127 141.339 203.859 141.804 203.646C142.268 203.433 142.788 203.326 143.364 203.326C144.152 203.326 144.855 203.511 145.473 203.882C146.091 204.253 146.579 204.762 146.937 205.41C147.295 206.053 147.472 206.795 147.467 207.634C147.472 208.516 147.267 209.3 146.854 209.987C146.445 210.668 145.871 211.205 145.134 211.597C144.401 211.985 143.549 212.179 142.577 212.179ZM154.899 212.179C153.996 212.179 153.19 212.013 152.483 211.68C151.78 211.348 151.221 210.89 150.808 210.306C150.395 209.722 150.18 209.053 150.162 208.299H152.847C152.877 208.806 153.09 209.217 153.486 209.533C153.883 209.848 154.354 210.006 154.899 210.006C155.334 210.006 155.717 209.91 156.05 209.718C156.386 209.522 156.648 209.251 156.836 208.906C157.028 208.557 157.123 208.156 157.123 207.705C157.123 207.244 157.025 206.839 156.829 206.49C156.638 206.141 156.371 205.868 156.03 205.672C155.689 205.476 155.3 205.376 154.861 205.371C154.477 205.371 154.104 205.45 153.742 205.608C153.384 205.766 153.105 205.981 152.905 206.254L150.444 205.812L151.064 198.909H159.067V201.172H153.346L153.007 204.451H153.084C153.314 204.127 153.661 203.859 154.126 203.646C154.59 203.433 155.11 203.326 155.685 203.326C156.474 203.326 157.177 203.511 157.795 203.882C158.412 204.253 158.9 204.762 159.258 205.41C159.616 206.053 159.793 206.795 159.789 207.634C159.793 208.516 159.589 209.3 159.175 209.987C158.766 210.668 158.193 211.205 157.456 211.597C156.723 211.985 155.871 212.179 154.899 212.179ZM167.221 212.179C166.317 212.179 165.512 212.013 164.804 211.68C164.101 211.348 163.543 210.89 163.13 210.306C162.716 209.722 162.501 209.053 162.484 208.299H165.169C165.199 208.806 165.412 209.217 165.808 209.533C166.204 209.848 166.675 210.006 167.221 210.006C167.655 210.006 168.039 209.91 168.371 209.718C168.708 209.522 168.97 209.251 169.157 208.906C169.349 208.557 169.445 208.156 169.445 207.705C169.445 207.244 169.347 206.839 169.151 206.49C168.959 206.141 168.693 205.868 168.352 205.672C168.011 205.476 167.621 205.376 167.182 205.371C166.799 205.371 166.426 205.45 166.064 205.608C165.706 205.766 165.427 205.981 165.226 206.254L162.765 205.812L163.385 198.909H171.388V201.172H165.667L165.329 204.451H165.405C165.635 204.127 165.983 203.859 166.447 203.646C166.912 203.433 167.431 203.326 168.007 203.326C168.795 203.326 169.498 203.511 170.116 203.882C170.734 204.253 171.222 204.762 171.58 205.41C171.938 206.053 172.115 206.795 172.11 207.634C172.115 208.516 171.91 209.3 171.497 209.987C171.088 210.668 170.515 211.205 169.777 211.597C169.044 211.985 168.192 212.179 167.221 212.179ZM179.542 212.179C178.639 212.179 177.833 212.013 177.126 211.68C176.423 211.348 175.865 210.89 175.451 210.306C175.038 209.722 174.823 209.053 174.806 208.299H177.49C177.52 208.806 177.733 209.217 178.129 209.533C178.526 209.848 178.997 210.006 179.542 210.006C179.977 210.006 180.36 209.91 180.693 209.718C181.029 209.522 181.291 209.251 181.479 208.906C181.671 208.557 181.767 208.156 181.767 207.705C181.767 207.244 181.669 206.839 181.473 206.49C181.281 206.141 181.014 205.868 180.674 205.672C180.333 205.476 179.943 205.376 179.504 205.371C179.12 205.371 178.747 205.45 178.385 205.608C178.027 205.766 177.748 205.981 177.548 206.254L175.087 205.812L175.707 198.909H183.71V201.172H177.989L177.65 204.451H177.727C177.957 204.127 178.304 203.859 178.769 203.646C179.233 203.433 179.753 203.326 180.328 203.326C181.117 203.326 181.82 203.511 182.438 203.882C183.056 204.253 183.544 204.762 183.901 205.41C184.259 206.053 184.436 206.795 184.432 207.634C184.436 208.516 184.232 209.3 183.818 209.987C183.409 210.668 182.836 211.205 182.099 211.597C181.366 211.985 180.514 212.179 179.542 212.179ZM191.77 209.699V207.519L197.235 198.909H199.115V201.926H198.003L194.557 207.379V207.481H202.324V209.699H191.77ZM198.054 212V209.034L198.105 208.069V198.909H200.7V212H198.054ZM204.69 209.699V207.519L210.155 198.909H212.034V201.926H210.922L207.476 207.379V207.481H215.243V209.699H204.69ZM210.973 212V209.034L211.024 208.069V198.909H213.619V212H210.973ZM217.609 209.699V207.519L223.074 198.909H224.953V201.926H223.841L220.396 207.379V207.481H228.162V209.699H217.609ZM223.892 212V209.034L223.943 208.069V198.909H226.538V212H223.892ZM230.528 209.699V207.519L235.993 198.909H237.872V201.926H236.76L233.315 207.379V207.481H241.081V209.699H230.528ZM236.811 212V209.034L236.862 208.069V198.909H239.458V212H236.811Z" fill="white"/>
</g>
</g>
<g clip-path="url(#clip0_18_514)">
<path d="M406.428 27H400.835L420.868 51.9808H426.477L416.459 39.4989L426.461 27.0189L420.868 27.0277L413.659 36.01L406.428 27ZM412.167 44.844L409.366 41.3501L400.819 52H406.428L412.167 44.844Z" fill="white"/>
<path fill-rule="evenodd" clip-rule="evenodd" d="M418.849 52L399.682 27H394.578V51.9896H398.661V32.3416L413.719 52H418.849Z" fill="white"/>
</g>
<path d="M84.5805 49.0485L87.122 30.3747H91.1856L88.6434 49.0485H84.5805ZM103.306 30.7844C102.14 30.2553 100.908 29.9898 99.6681 30.0003C95.6577 30.0003 92.8325 32.5299 92.8082 36.156C92.7861 38.8361 94.8255 40.3309 96.3652 41.2227C97.9451 42.1373 98.4761 42.7204 98.4685 43.5369C98.4586 44.7869 97.2065 45.3576 96.0404 45.3576C94.4155 45.3576 93.5529 45.0718 92.2194 44.3792L91.6968 44.0828L91.127 48.2578C92.0748 48.778 93.8283 49.2296 95.6478 49.2524C99.9146 49.2524 102.684 46.7524 102.716 42.8805C102.731 40.7587 101.651 39.1438 99.3083 37.8128C97.8896 36.9553 97.0209 36.3742 97.03 35.5005C97.03 34.7259 97.7656 33.8971 99.3547 33.8971C100.396 33.8679 101.43 34.1113 102.392 34.6116L102.756 34.8269L103.306 30.7844ZM113.746 30.3747H110.62C109.651 30.3747 108.927 30.7063 108.501 31.9163L102.492 48.9533H106.769C106.769 48.9533 107.454 46.6876 107.611 46.1903L112.736 46.1979C112.856 46.842 113.223 48.9533 113.223 48.9533H117.02L113.746 30.3747ZM108.775 42.3793C109.111 41.3046 110.392 37.1659 110.392 37.1659C110.368 37.2154 110.726 36.0855 110.93 35.3852L111.205 36.9935C111.205 36.9935 111.982 41.4456 112.144 42.3793H108.775ZM81.1322 30.3747L77.1675 43.0644L76.7453 40.4853C76.0074 37.5127 73.7079 34.2924 71.1367 32.6804L74.7622 48.9533L79.0464 48.9475L85.4218 30.3747H81.1125" fill="url(#paint1_linear_18_514)"/>
<path d="M73.2891 30.3744H66.7722L66.7197 30.7622C71.8118 32.3066 75.1809 36.0375 76.5798 40.5192L75.1566 31.9445C74.9109 30.7641 74.1989 30.4116 73.3172 30.3706" fill="url(#paint2_linear_18_514)"/>
<g opacity="0.7">
<rect x="26.7" y="24.7" width="33.7307" height="29.6" rx="6.55" fill="white" fill-opacity="0.26" stroke="white" stroke-width="1.4"/>
<path d="M26.5491 33.5361H34.4514C36.4534 33.5361 38.0764 35.1591 38.0764 37.1611V41.0061M38.0764 54.3885V48.4761M38.0764 48.4761V41.0061M38.0764 48.4761H26.5491M38.0764 41.0061H26.5491" stroke="white" stroke-width="1.4"/>
<path d="M60.5817 33.5361H49.6034M49.6034 33.5361V41.0061M49.6034 33.5361V24.6357M49.6034 54.3885V48.4761M49.6034 48.4761V41.0061M49.6034 48.4761H60.5817M49.6034 41.0061H60.5817" stroke="white" stroke-width="1.4"/>
</g>
<g filter="url(#filter5_d_18_514)">
<path d="M271.395 32.7507C263.438 44.2594 262.058 59.9657 269.078 72.9168C276.097 85.868 289.555 92.4483 302.89 90.8618C300.055 94.9627 296.384 98.5306 291.961 101.251C275.125 111.606 253.759 105.76 244.238 88.1939C234.718 70.6278 240.648 47.9934 257.485 37.6386C261.908 34.9182 266.644 33.316 271.395 32.7507Z" fill="white"/>
<ellipse cx="9.0318" cy="3.49661" rx="9.0318" ry="3.49661" transform="matrix(0.26968 0.96295 -0.953029 0.302878 248.27 57.7837)" fill="black"/>
<ellipse cx="8.81973" cy="3.58567" rx="8.81973" ry="3.58567" transform="matrix(0.661307 0.750116 -0.706951 0.707262 254.326 85.5671)" fill="black"/>
<ellipse cx="8.81973" cy="3.58567" rx="8.81973" ry="3.58567" transform="matrix(0.661307 0.750116 -0.706951 0.707262 279.712 85.5671)" fill="black"/>
<ellipse cx="6.41419" cy="2.60769" rx="6.41419" ry="2.60769" transform="matrix(0.661307 0.750116 -0.706951 0.707262 260.594 70.7493)" fill="black"/>
<ellipse cx="6.41419" cy="2.60769" rx="6.41419" ry="2.60769" transform="matrix(0.661307 0.750116 -0.706951 0.707262 255.377 40.7432)" fill="black"/>
</g>
<g filter="url(#filter6_bdd_18_514)">
<path d="M283.155 101.098C283.288 100.289 283.358 99.4562 283.358 98.6065C283.358 90.658 277.253 84.2144 269.722 84.2144C264.123 84.2144 259.312 87.7755 257.212 92.8688C255.511 91.3185 253.303 90.3824 250.891 90.3824C245.511 90.3824 241.15 95.0362 241.15 100.777C241.15 101.096 241.164 101.413 241.19 101.725C238.603 103.063 236.821 105.869 236.821 109.115C236.821 113.657 240.31 117.339 244.614 117.339H281.41C285.714 117.339 289.202 113.657 289.202 109.115C289.202 105.206 286.618 101.934 283.155 101.098Z" fill="white"/>
</g>
<g filter="url(#filter7_bdd_18_514)">
<path d="M320.952 52.5903C321.086 51.7811 321.156 50.9486 321.156 50.099C321.156 42.1504 315.051 35.7068 307.519 35.7068C301.921 35.7068 297.11 39.268 295.01 44.3612C293.309 42.8109 291.101 41.8749 288.688 41.8749C283.309 41.8749 278.948 46.5286 278.948 52.2692C278.948 52.5889 278.962 52.9052 278.988 53.2175C276.401 54.5551 274.619 57.3617 274.619 60.6076C274.619 65.1496 278.108 68.8317 282.411 68.8317H319.208C323.511 68.8317 327 65.1496 327 60.6076C327 56.6985 324.416 53.4264 320.952 52.5903Z" fill="white"/>
</g>
<defs>
<filter id="filter0_d_18_514" x="363.139" y="140.312" width="161.333" height="80.7266" filterUnits="userSpaceOnUse" color-interpolation-filters="sRGB">
<feFlood flood-opacity="0" result="BackgroundImageFix"/>
<feColorMatrix in="SourceAlpha" type="matrix" values="0 0 0 0 0 0 0 0 0 0 0 0 0 0 0 0 0 0 127 0" result="hardAlpha"/>
<feOffset dx="-8" dy="8"/>
<feGaussianBlur stdDeviation="2"/>
<feComposite in2="hardAlpha" operator="out"/>
<feColorMatrix type="matrix" values="0 0 0 0 0 0 0 0 0 0 0 0 0 0 0 0 0 0 0.5 0"/>
<feBlend mode="normal" in2="BackgroundImageFix" result="effect1_dropShadow_18_514"/>
<feBlend mode="normal" in="SourceGraphic" in2="effect1_dropShadow_18_514" result="shape"/>
</filter>
<filter id="filter1_d_18_514" x="-77.006" y="67.8164" width="161.333" height="80.7014" filterUnits="userSpaceOnUse" color-interpolation-filters="sRGB">
<feFlood flood-opacity="0" result="BackgroundImageFix"/>
<feColorMatrix in="SourceAlpha" type="matrix" values="0 0 0 0 0 0 0 0 0 0 0 0 0 0 0 0 0 0 127 0" result="hardAlpha"/>
<feOffset dx="8" dy="8"/>
<feGaussianBlur stdDeviation="2"/>
<feComposite in2="hardAlpha" operator="out"/>
<feColorMatrix type="matrix" values="0 0 0 0 0 0 0 0 0 0 0 0 0 0 0 0 0 0 0.5 0"/>
<feBlend mode="normal" in2="BackgroundImageFix" result="effect1_dropShadow_18_514"/>
<feBlend mode="normal" in="SourceGraphic" in2="effect1_dropShadow_18_514" result="shape"/>
</filter>
<filter id="filter2_d_18_514" x="23.2783" y="243.455" width="120.173" height="16.1819" filterUnits="userSpaceOnUse" color-interpolation-filters="sRGB">
<feFlood flood-opacity="0" result="BackgroundImageFix"/>
<feColorMatrix in="SourceAlpha" type="matrix" values="0 0 0 0 0 0 0 0 0 0 0 0 0 0 0 0 0 0 127 0" result="hardAlpha"/>
<feOffset dy="4"/>
<feGaussianBlur stdDeviation="2"/>
<feComposite in2="hardAlpha" operator="out"/>
<feColorMatrix type="matrix" values="0 0 0 0 0.3625 0 0 0 0 0.3625 0 0 0 0 0.3625 0 0 0 0.25 0"/>
<feBlend mode="normal" in2="BackgroundImageFix" result="effect1_dropShadow_18_514"/>
<feBlend mode="normal" in="SourceGraphic" in2="effect1_dropShadow_18_514" result="shape"/>
</filter>
<filter id="filter3_d_18_514" x="363.129" y="244.773" width="64.0707" height="25.4148" filterUnits="userSpaceOnUse" color-interpolation-filters="sRGB">
<feFlood flood-opacity="0" result="BackgroundImageFix"/>
<feColorMatrix in="SourceAlpha" type="matrix" values="0 0 0 0 0 0 0 0 0 0 0 0 0 0 0 0 0 0 127 0" result="hardAlpha"/>
<feOffset dy="4"/>
<feGaussianBlur stdDeviation="2"/>
<feComposite in2="hardAlpha" operator="out"/>
<feColorMatrix type="matrix" values="0 0 0 0 0.3625 0 0 0 0 0.3625 0 0 0 0 0.3625 0 0 0 0.25 0"/>
<feBlend mode="normal" in2="BackgroundImageFix" result="effect1_dropShadow_18_514"/>
<feBlend mode="normal" in="SourceGraphic" in2="effect1_dropShadow_18_514" result="shape"/>
</filter>
<filter id="filter4_i_18_514" x="27.1058" y="198.909" width="213.975" height="17.8515" filterUnits="userSpaceOnUse" color-interpolation-filters="sRGB">
<feFlood flood-opacity="0" result="BackgroundImageFix"/>
<feBlend mode="normal" in="SourceGraphic" in2="BackgroundImageFix" result="shape"/>
<feColorMatrix in="SourceAlpha" type="matrix" values="0 0 0 0 0 0 0 0 0 0 0 0 0 0 0 0 0 0 127 0" result="hardAlpha"/>
<feOffset dy="4.58177"/>
<feGaussianBlur stdDeviation="2.29088"/>
<feComposite in2="hardAlpha" operator="arithmetic" k2="-1" k3="1"/>
<feColorMatrix type="matrix" values="0 0 0 0 0.916667 0 0 0 0 0.916667 0 0 0 0 0.916667 0 0 0 0.25 0"/>
<feBlend mode="normal" in2="shape" result="effect1_innerShadow_18_514"/>
</filter>
<filter id="filter5_d_18_514" x="239.696" y="32.7507" width="75.1943" height="85.6208" filterUnits="userSpaceOnUse" color-interpolation-filters="sRGB">
<feFlood flood-opacity="0" result="BackgroundImageFix"/>
<feColorMatrix in="SourceAlpha" type="matrix" values="0 0 0 0 0 0 0 0 0 0 0 0 0 0 0 0 0 0 127 0" result="hardAlpha"/>
<feOffset dx="8" dy="8"/>
<feGaussianBlur stdDeviation="2"/>
<feComposite in2="hardAlpha" operator="out"/>
<feColorMatrix type="matrix" values="0 0 0 0 0 0 0 0 0 0 0 0 0 0 0 0 0 0 0.5 0"/>
<feBlend mode="normal" in2="BackgroundImageFix" result="effect1_dropShadow_18_514"/>
<feBlend mode="normal" in="SourceGraphic" in2="effect1_dropShadow_18_514" result="shape"/>
</filter>
<filter id="filter6_bdd_18_514" x="209.821" y="57.2144" width="106.381" height="87.125" filterUnits="userSpaceOnUse" color-interpolation-filters="sRGB">
<feFlood flood-opacity="0" result="BackgroundImageFix"/>
<feGaussianBlur in="BackgroundImageFix" stdDeviation="13.5"/>
<feComposite in2="SourceAlpha" operator="in" result="effect1_backgroundBlur_18_514"/>
<feColorMatrix in="SourceAlpha" type="matrix" values="0 0 0 0 0 0 0 0 0 0 0 0 0 0 0 0 0 0 127 0" result="hardAlpha"/>
<feOffset dx="4" dy="4"/>
<feGaussianBlur stdDeviation="2"/>
<feComposite in2="hardAlpha" operator="out"/>
<feColorMatrix type="matrix" values="0 0 0 0 0 0 0 0 0 0 0 0 0 0 0 0 0 0 0.25 0"/>
<feBlend mode="normal" in2="effect1_backgroundBlur_18_514" result="effect2_dropShadow_18_514"/>
<feColorMatrix in="SourceAlpha" type="matrix" values="0 0 0 0 0 0 0 0 0 0 0 0 0 0 0 0 0 0 127 0" result="hardAlpha"/>
<feOffset dx="-4" dy="4"/>
<feGaussianBlur stdDeviation="2"/>
<feComposite in2="hardAlpha" operator="out"/>
<feColorMatrix type="matrix" values="0 0 0 0 0 0 0 0 0 0 0 0 0 0 0 0 0 0 0.25 0"/>
<feBlend mode="normal" in2="effect2_dropShadow_18_514" result="effect3_dropShadow_18_514"/>
<feBlend mode="normal" in="SourceGraphic" in2="effect3_dropShadow_18_514" result="shape"/>
</filter>
<filter id="filter7_bdd_18_514" x="247.619" y="8.70679" width="106.381" height="87.125" filterUnits="userSpaceOnUse" color-interpolation-filters="sRGB">
<feFlood flood-opacity="0" result="BackgroundImageFix"/>
<feGaussianBlur in="BackgroundImageFix" stdDeviation="13.5"/>
<feComposite in2="SourceAlpha" operator="in" result="effect1_backgroundBlur_18_514"/>
<feColorMatrix in="SourceAlpha" type="matrix" values="0 0 0 0 0 0 0 0 0 0 0 0 0 0 0 0 0 0 127 0" result="hardAlpha"/>
<feOffset dx="4" dy="4"/>
<feGaussianBlur stdDeviation="2"/>
<feComposite in2="hardAlpha" operator="out"/>
<feColorMatrix type="matrix" values="0 0 0 0 0 0 0 0 0 0 0 0 0 0 0 0 0 0 0.5 0"/>
<feBlend mode="normal" in2="effect1_backgroundBlur_18_514" result="effect2_dropShadow_18_514"/>
<feColorMatrix in="SourceAlpha" type="matrix" values="0 0 0 0 0 0 0 0 0 0 0 0 0 0 0 0 0 0 127 0" result="hardAlpha"/>
<feOffset dx="-4" dy="4"/>
<feGaussianBlur stdDeviation="2"/>
<feComposite in2="hardAlpha" operator="out"/>
<feColorMatrix type="matrix" values="0 0 0 0 0 0 0 0 0 0 0 0 0 0 0 0 0 0 0.25 0"/>
<feBlend mode="normal" in2="effect2_dropShadow_18_514" result="effect3_dropShadow_18_514"/>
<feBlend mode="normal" in="SourceGraphic" in2="effect3_dropShadow_18_514" result="shape"/>
</filter>
<linearGradient id="paint0_linear_18_514" x1="0.123781" y1="125.102" x2="450.024" y2="143.926" gradientUnits="userSpaceOnUse">
<stop offset="0.00638632" stop-color="#3A3A3A" stop-opacity="0.32"/>
<stop offset="1" stop-color="#323232" stop-opacity="0.37"/>
</linearGradient>
<linearGradient id="paint1_linear_18_514" x1="94.0785" y1="30" x2="94.0785" y2="49.2524" gradientUnits="userSpaceOnUse">
<stop stop-color="white"/>
<stop offset="1" stop-color="white" stop-opacity="0.75"/>
</linearGradient>
<linearGradient id="paint2_linear_18_514" x1="71.6498" y1="30.3706" x2="71.6498" y2="40.5192" gradientUnits="userSpaceOnUse">
<stop stop-color="white"/>
<stop offset="1" stop-color="white" stop-opacity="0.75"/>
</linearGradient>
<clipPath id="clip0_18_514">
<rect width="31.4224" height="25" fill="white" transform="translate(394.578 27)"/>
</clipPath>
</defs>
</svg>
