<svg xmlns="http://www.w3.org/2000/svg" width="450" height="289" fill="none"><rect width="447.876" height="287" x="1.124" y="1" fill="#000" stroke="url(#a)" stroke-width="2" rx="29"/><mask id="b" width="448" height="289" x="2" y="0" maskUnits="userSpaceOnUse" style="mask-type:alpha"><rect width="448" height="289" x="2" fill="#000" rx="30"/></mask><g mask="url(#b)"><g fill="#fff" filter="url(#c)"><rect width="103.493" height="31.998" x="402.527" y="140.312" rx="15.999"/><rect width="149.333" height="46.729" x="375.139" y="162.31" rx="23.364"/></g><g fill="#fff" filter="url(#d)"><rect width="103.493" height="31.998" x="-49.618" y="67.816" rx="15.999"/><rect width="149.333" height="46.729" x="-77.006" y="89.789" rx="23.364"/></g><g filter="url(#e)"><path fill="#fff" d="m30.446 251.636.135-2.997-2.529 1.627-.774-1.35 2.685-1.371-2.685-1.37.774-1.35 2.529 1.627-.135-2.997h1.541l-.135 2.997 2.529-1.627.774 1.35-2.685 1.37 2.685 1.371-.774 1.35-2.529-1.627.135 2.997zm10.43 0 .135-2.997-2.529 1.627-.774-1.35 2.685-1.371-2.685-1.37.774-1.35 2.529 1.627-.135-2.997h1.54l-.134 2.997 2.528-1.627.774 1.35-2.684 1.37 2.685 1.371-.775 1.35-2.528-1.627.135 2.997zm10.43 0 .134-2.997-2.528 1.627-.774-1.35 2.684-1.371-2.684-1.37.774-1.35 2.528 1.627-.135-2.997h1.541l-.134 2.997 2.528-1.627.774 1.35-2.684 1.37 2.684 1.371-.774 1.35-2.528-1.627.134 2.997zm10.429 0 .135-2.997-2.528 1.627-.775-1.35 2.685-1.371-2.685-1.37.775-1.35 2.528 1.627-.135-2.997h1.541l-.135 2.997 2.529-1.627.774 1.35-2.685 1.37 2.685 1.371-.774 1.35-2.529-1.627.135 2.997zm10.43 0 .135-2.997-2.529 1.627-.774-1.35 2.685-1.371-2.685-1.37.774-1.35 2.529 1.627-.135-2.997h1.54l-.134 2.997 2.528-1.627.775 1.35-2.685 1.37 2.685 1.371-.775 1.35-2.528-1.627.135 2.997zm10.43 0 .134-2.997-2.528 1.627-.774-1.35 2.684-1.371-2.684-1.37.774-1.35 2.528 1.627-.135-2.997h1.542L84 246.452l2.528-1.627.774 1.35-2.684 1.37 2.684 1.371-.774 1.35-2.528-1.627.135 2.997zm10.43 0 .134-2.997-2.528 1.627-.775-1.35 2.685-1.371-2.684-1.37.774-1.35 2.528 1.627-.135-2.997h1.541l-.135 2.997 2.529-1.627.774 1.35-2.685 1.37 2.685 1.371-.774 1.35-2.529-1.627.135 2.997zm10.429 0 .135-2.997-2.529 1.627-.774-1.35 2.685-1.371-2.685-1.37.774-1.35 2.529 1.627-.135-2.997h1.541l-.135 2.997 2.528-1.627.775 1.35-2.685 1.37 2.685 1.371-.775 1.35-2.528-1.627.135 2.997zm10.429 0 .135-2.997-2.528 1.627-.774-1.35 2.685-1.371-2.685-1.37.774-1.35 2.528 1.627-.135-2.997h1.542l-.135 2.997 2.528-1.627.774 1.35-2.684 1.37 2.684 1.371-.774 1.35-2.528-1.627.135 2.997zm10.43 0 .135-2.997-2.528 1.627-.774-1.35 2.684-1.371-2.684-1.37.774-1.35 2.528 1.627-.135-2.997h1.541l-.135 2.997 2.529-1.627.774 1.35-2.685 1.37 2.685 1.371-.774 1.35-2.529-1.627.135 2.997zm10.43 0 .135-2.997-2.529 1.627-.774-1.35 2.685-1.371-2.685-1.37.774-1.35 2.529 1.627-.135-2.997h1.541l-.135 2.997 2.528-1.627.775 1.35-2.685 1.37 2.685 1.371-.775 1.35-2.528-1.627.135 2.997z"/></g><g filter="url(#f)"><path fill="#fff" d="M372.463 260.241q-1.683-.006-2.876-.887-1.193-.88-1.826-2.564-.632-1.683-.632-4.056 0-2.364.632-4.041.64-1.676 1.833-2.557 1.2-.88 2.869-.88t2.862.887q1.193.882 1.826 2.557.639 1.67.639 4.034 0 2.38-.632 4.063-.632 1.676-1.826 2.564-1.193.88-2.869.88m0-1.896q1.477 0 2.308-1.442.838-1.441.838-4.169 0-1.81-.383-3.061-.376-1.257-1.087-1.903a2.38 2.38 0 0 0-1.676-.654q-1.47 0-2.308 1.449-.839 1.45-.845 4.169 0 1.819.376 3.076.384 1.25 1.087 1.896.702.639 1.69.639m7.846 1.655v-1.591l4.922-5.099q.789-.832 1.3-1.456.519-.633.774-1.201.256-.567.256-1.207 0-.725-.341-1.25a2.23 2.23 0 0 0-.931-.817 2.96 2.96 0 0 0-1.328-.291q-.781 0-1.363.32a2.2 2.2 0 0 0-.895.902q-.313.582-.313 1.363h-2.095q0-1.327.611-2.322a4.14 4.14 0 0 1 1.676-1.541q1.065-.555 2.422-.554 1.371 0 2.415.547 1.05.539 1.64 1.477.59.93.59 2.102 0 .81-.306 1.584-.297.774-1.044 1.726-.745.944-2.074 2.294l-2.89 3.025v.107h6.548V260zm17.834-15.227-4.687 17.415h-1.897l4.688-17.415zm6.84 15.426q-1.464 0-2.614-.504-1.143-.505-1.811-1.4-.66-.901-.71-2.088h2.23q.043.646.433 1.123.398.469 1.037.724.64.255 1.42.256.86 0 1.52-.299a2.5 2.5 0 0 0 1.044-.831q.377-.54.377-1.242 0-.732-.377-1.286-.369-.561-1.086-.881-.711-.32-1.719-.319h-1.229v-1.79h1.229q.81 0 1.42-.291.618-.291.966-.81.348-.525.348-1.229 0-.674-.305-1.171a2.05 2.05 0 0 0-.852-.789q-.548-.284-1.293-.284-.71 0-1.328.263a2.45 2.45 0 0 0-.994.738 1.9 1.9 0 0 0-.412 1.144h-2.124q.036-1.179.696-2.074.668-.895 1.761-1.399 1.095-.504 2.429-.504 1.4 0 2.415.547 1.023.539 1.577 1.441a3.6 3.6 0 0 1 .554 1.975q.007 1.22-.682 2.074-.682.852-1.818 1.143v.114q1.449.22 2.244 1.15.802.931.796 2.309.007 1.2-.668 2.152-.667.951-1.825 1.498-1.158.54-2.649.54m12.89.042q-1.683-.006-2.876-.887-1.194-.88-1.825-2.564-.633-1.683-.633-4.056 0-2.364.633-4.041.639-1.676 1.832-2.557 1.2-.88 2.869-.88t2.862.887q1.193.882 1.826 2.557.639 1.67.639 4.034 0 2.38-.632 4.063-.633 1.676-1.825 2.564-1.194.88-2.87.88m0-1.896q1.477 0 2.308-1.442.839-1.441.839-4.169 0-1.81-.384-3.061-.376-1.257-1.087-1.903a2.37 2.37 0 0 0-1.676-.654q-1.47 0-2.308 1.449t-.845 4.169q0 1.819.376 3.076.384 1.25 1.087 1.896.703.639 1.69.639"/></g><path stroke="#fff" stroke-opacity=".2" stroke-width="2" d="M26 226h400"/><g filter="url(#g)"><path fill="#fff" d="M31.842 212.179q-1.354 0-2.416-.499-1.054-.498-1.675-1.374a3.53 3.53 0 0 1-.645-2.007h2.684q.045.76.64 1.234.594.473 1.412.473.653 0 1.15-.288a2.06 2.06 0 0 0 .787-.812q.288-.524.288-1.201 0-.692-.294-1.215a2.1 2.1 0 0 0-.8-.818 2.36 2.36 0 0 0-1.17-.301 2.8 2.8 0 0 0-1.118.237 2 2 0 0 0-.837.646l-2.461-.442.62-6.903h8.003v2.263h-5.721l-.339 3.279h.077q.345-.486 1.042-.805a3.7 3.7 0 0 1 1.56-.32q1.182 0 2.109.556t1.464 1.528q.536.965.53 2.224.006 1.323-.614 2.353a4.33 4.33 0 0 1-1.719 1.61q-1.1.582-2.557.582m12.322 0q-1.356 0-2.416-.499-1.055-.498-1.675-1.374a3.53 3.53 0 0 1-.646-2.007h2.685q.045.76.64 1.234.593.473 1.412.473.651 0 1.15-.288a2.06 2.06 0 0 0 .787-.812q.287-.524.287-1.201 0-.692-.294-1.215a2.1 2.1 0 0 0-.799-.818 2.36 2.36 0 0 0-1.17-.301 2.8 2.8 0 0 0-1.118.237 2 2 0 0 0-.837.646l-2.461-.442.62-6.903h8.002v2.263h-5.72l-.34 3.279h.078q.345-.486 1.041-.805a3.7 3.7 0 0 1 1.56-.32q1.182 0 2.11.556.926.556 1.463 1.528.537.965.53 2.224.007 1.323-.613 2.353a4.33 4.33 0 0 1-1.72 1.61q-1.099.582-2.556.582m12.321 0q-1.354 0-2.416-.499-1.054-.498-1.675-1.374a3.53 3.53 0 0 1-.645-2.007h2.685q.044.76.639 1.234.594.473 1.412.473.653 0 1.151-.288a2.06 2.06 0 0 0 .786-.812q.288-.524.288-1.201 0-.692-.294-1.215a2.1 2.1 0 0 0-.8-.818 2.36 2.36 0 0 0-1.169-.301 2.8 2.8 0 0 0-1.119.237 2 2 0 0 0-.837.646l-2.46-.442.62-6.903h8.002v2.263h-5.72l-.34 3.279h.077q.346-.486 1.042-.805t1.56-.32q1.182 0 2.109.556t1.464 1.528q.537.965.53 2.224.007 1.323-.613 2.353a4.33 4.33 0 0 1-1.72 1.61q-1.1.582-2.557.582m12.322 0q-1.356 0-2.416-.499-1.055-.498-1.675-1.374a3.53 3.53 0 0 1-.645-2.007h2.684q.045.76.64 1.234.594.473 1.412.473.652 0 1.15-.288a2.06 2.06 0 0 0 .787-.812q.287-.524.287-1.201 0-.692-.294-1.215a2.1 2.1 0 0 0-.799-.818 2.36 2.36 0 0 0-1.17-.301 2.8 2.8 0 0 0-1.118.237 2 2 0 0 0-.837.646l-2.461-.442.62-6.903h8.003v2.263h-5.721l-.34 3.279h.078q.345-.486 1.041-.805a3.7 3.7 0 0 1 1.56-.32q1.183 0 2.11.556t1.463 1.528q.537.965.53 2.224.007 1.323-.613 2.353a4.33 4.33 0 0 1-1.72 1.61q-1.099.582-2.556.582m12.228-2.48v-2.18l5.465-8.61h1.88v3.017h-1.113l-3.445 5.453v.102h7.766v2.218zM87.32 212v-2.966l.05-.965v-9.16h2.596V212zm6.635-2.301v-2.18l5.466-8.61h1.879v3.017h-1.112l-3.446 5.453v.102h7.767v2.218zm6.284 2.301v-2.966l.051-.965v-9.16h2.595V212zm6.636-2.301v-2.18l5.465-8.61h1.879v3.017h-1.112l-3.445 5.453v.102h7.766v2.218zm6.283 2.301v-2.966l.051-.965v-9.16h2.595V212zm6.636-2.301v-2.18l5.465-8.61h1.879v3.017h-1.112l-3.445 5.453v.102h7.766v2.218zm6.283 2.301v-2.966l.051-.965v-9.16h2.595V212zm16.501.179q-1.354 0-2.416-.499-1.054-.498-1.674-1.374a3.53 3.53 0 0 1-.646-2.007h2.685q.043.76.639 1.234.594.473 1.412.473.653 0 1.151-.288.505-.294.786-.812.288-.524.288-1.201 0-.692-.294-1.215a2.1 2.1 0 0 0-.799-.818 2.36 2.36 0 0 0-1.17-.301q-.575 0-1.119.237a2 2 0 0 0-.837.646l-2.461-.442.62-6.903h8.003v2.263h-5.721l-.339 3.279h.077q.345-.486 1.042-.805.696-.32 1.56-.32 1.182 0 2.109.556t1.464 1.528q.537.965.53 2.224.007 1.323-.613 2.353a4.33 4.33 0 0 1-1.72 1.61q-1.1.582-2.557.582m12.322 0q-1.355 0-2.416-.499-1.055-.498-1.675-1.374a3.54 3.54 0 0 1-.646-2.007h2.685q.045.76.639 1.234.595.473 1.413.473.652 0 1.151-.288.504-.294.786-.812.287-.524.287-1.201 0-.692-.294-1.215a2.1 2.1 0 0 0-.799-.818 2.36 2.36 0 0 0-1.169-.301 2.8 2.8 0 0 0-1.119.237 2 2 0 0 0-.837.646l-2.461-.442.62-6.903h8.003v2.263h-5.721l-.339 3.279h.077q.345-.486 1.042-.805.696-.32 1.559-.32 1.183 0 2.11.556a4 4 0 0 1 1.463 1.528q.537.965.531 2.224.006 1.323-.614 2.353a4.33 4.33 0 0 1-1.719 1.61q-1.1.582-2.557.582m12.322 0q-1.356 0-2.417-.499-1.054-.498-1.674-1.374a3.53 3.53 0 0 1-.646-2.007h2.685q.045.76.639 1.234.594.473 1.413.473.652 0 1.15-.288.505-.294.786-.812.288-.524.288-1.201 0-.692-.294-1.215a2.1 2.1 0 0 0-.799-.818 2.36 2.36 0 0 0-1.17-.301 2.8 2.8 0 0 0-1.118.237 2.03 2.03 0 0 0-.838.646l-2.461-.442.62-6.903h8.003v2.263h-5.721l-.338 3.279h.076q.345-.486 1.042-.805a3.7 3.7 0 0 1 1.56-.32q1.182 0 2.109.556t1.464 1.528q.537.965.53 2.224.007 1.323-.613 2.353a4.33 4.33 0 0 1-1.72 1.61q-1.1.582-2.556.582m12.321 0q-1.355 0-2.416-.499-1.054-.498-1.675-1.374a3.53 3.53 0 0 1-.645-2.007h2.684q.045.76.639 1.234.595.473 1.413.473.652 0 1.151-.288.504-.294.786-.812.288-.524.288-1.201 0-.692-.294-1.215a2.1 2.1 0 0 0-.799-.818 2.36 2.36 0 0 0-1.17-.301 2.8 2.8 0 0 0-1.119.237 2 2 0 0 0-.837.646l-2.461-.442.62-6.903h8.003v2.263h-5.721l-.339 3.279h.077q.345-.486 1.042-.805.696-.32 1.559-.32 1.183 0 2.11.556t1.463 1.528q.537.965.531 2.224.007 1.323-.614 2.353a4.33 4.33 0 0 1-1.719 1.61q-1.1.582-2.557.582m12.228-2.48v-2.18l5.465-8.61h1.88v3.017h-1.112l-3.446 5.453v.102h7.767v2.218zm6.284 2.301v-2.966l.051-.965v-9.16h2.595V212zm6.636-2.301v-2.18l5.465-8.61h1.879v3.017h-1.112l-3.446 5.453v.102h7.767v2.218zm6.283 2.301v-2.966l.051-.965v-9.16h2.595V212zm6.636-2.301v-2.18l5.465-8.61h1.879v3.017h-1.112l-3.445 5.453v.102h7.766v2.218zm6.283 2.301v-2.966l.051-.965v-9.16h2.595V212zm6.636-2.301v-2.18l5.465-8.61h1.879v3.017h-1.112l-3.445 5.453v.102h7.766v2.218zm6.283 2.301v-2.966l.051-.965v-9.16h2.596V212z"/></g></g><g fill="#fff" clip-path="url(#h)"><path d="M406.428 27h-5.593l20.033 24.98h5.609L416.459 39.5l10.002-12.48-5.593.009-7.209 8.982zm5.739 17.844-2.801-3.494L400.819 52h5.609z"/><path fill-rule="evenodd" d="m418.849 52-19.167-25h-5.104v24.99h4.083V32.342L413.719 52z" clip-rule="evenodd"/></g><path fill="url(#i)" d="m84.58 49.049 2.542-18.674h4.064l-2.543 18.673zm18.726-18.265A8.6 8.6 0 0 0 99.668 30c-4.01 0-6.836 2.53-6.86 6.156-.022 2.68 2.017 4.175 3.557 5.067 1.58.914 2.111 1.497 2.104 2.314-.01 1.25-1.262 1.82-2.429 1.82-1.625 0-2.487-.285-3.82-.978l-.523-.296-.57 4.175c.948.52 2.701.972 4.52.994 4.268 0 7.037-2.5 7.069-6.372.015-2.121-1.065-3.736-3.408-5.067-1.418-.858-2.287-1.439-2.278-2.312 0-.775.736-1.604 2.325-1.604a6.2 6.2 0 0 1 3.037.715l.364.215zm10.44-.41h-3.126c-.969 0-1.693.332-2.119 1.542l-6.009 17.037h4.277s.685-2.265.842-2.763l5.125.008c.12.644.487 2.755.487 2.755h3.797zm-4.971 12.005c.336-1.074 1.617-5.213 1.617-5.213-.024.05.334-1.08.538-1.78l.275 1.607.939 5.386zM81.132 30.375l-3.965 12.69-.422-2.58c-.738-2.972-3.037-6.193-5.608-7.805l3.625 16.273 4.284-.006 6.376-18.572h-4.31"/><path fill="url(#j)" d="M73.29 30.374h-6.518l-.052.388c5.092 1.545 8.46 5.276 9.86 9.757l-1.423-8.574c-.246-1.18-.958-1.533-1.84-1.574"/><g stroke="#fff" stroke-width="1.4" opacity=".7"><rect width="33.731" height="29.6" x="26.7" y="24.7" fill="#fff" fill-opacity=".26" rx="6.55"/><path d="M26.55 33.536h7.901a3.625 3.625 0 0 1 3.625 3.625v3.845m0 13.383v-5.913m0 0v-7.47m0 7.47H26.55m11.527-7.47H26.55M60.582 33.536H49.603m0 0v7.47m0-7.47v-8.9m0 29.753v-5.913m0 0v-7.47m0 7.47h10.979m-10.979-7.47h10.979"/></g><g filter="url(#k)"><path fill="#fff" d="M271.395 32.75c-7.957 11.51-9.337 27.216-2.317 40.167s20.477 19.531 33.812 17.945a36.6 36.6 0 0 1-10.929 10.389c-16.836 10.355-38.202 4.509-47.723-13.057-9.52-17.566-3.59-40.2 13.247-50.555 4.423-2.72 9.159-4.323 13.91-4.888"/><ellipse cx="9.032" cy="3.497" fill="#000" rx="9.032" ry="3.497" transform="matrix(.26968 .96295 -.95303 .30288 248.27 57.784)"/><ellipse cx="8.82" cy="3.586" fill="#000" rx="8.82" ry="3.586" transform="matrix(.6613 .75012 -.70695 .70726 254.326 85.567)"/><ellipse cx="8.82" cy="3.586" fill="#000" rx="8.82" ry="3.586" transform="matrix(.6613 .75012 -.70695 .70726 279.712 85.567)"/><ellipse cx="6.414" cy="2.608" fill="#000" rx="6.414" ry="2.608" transform="matrix(.6613 .75012 -.70695 .70726 260.594 70.75)"/><ellipse cx="6.414" cy="2.608" fill="#000" rx="6.414" ry="2.608" transform="matrix(.6613 .75012 -.70695 .70726 255.377 40.743)"/></g><g filter="url(#l)"><path fill="#fff" d="M283.155 101.098q.201-1.215.203-2.492c0-7.948-6.105-14.392-13.636-14.392-5.599 0-10.41 3.561-12.51 8.655-1.701-1.55-3.909-2.487-6.321-2.487-5.38 0-9.741 4.654-9.741 10.395q0 .48.04.948c-2.587 1.338-4.369 4.144-4.369 7.39 0 4.542 3.489 8.224 7.793 8.224h36.796c4.304 0 7.792-3.682 7.792-8.224 0-3.909-2.584-7.181-6.047-8.017"/></g><g filter="url(#m)"><path fill="#fff" d="M320.952 52.59q.203-1.215.204-2.491c0-7.949-6.105-14.392-13.637-14.392-5.598 0-10.409 3.561-12.509 8.654-1.701-1.55-3.909-2.486-6.322-2.486-5.379 0-9.74 4.654-9.74 10.394q0 .48.04.949c-2.587 1.337-4.369 4.144-4.369 7.39 0 4.542 3.489 8.224 7.792 8.224h36.797c4.303 0 7.792-3.682 7.792-8.224 0-3.91-2.584-7.182-6.048-8.018"/></g><defs><filter id="c" width="161.333" height="80.727" x="363.139" y="140.312" color-interpolation-filters="sRGB" filterUnits="userSpaceOnUse"><feFlood flood-opacity="0" result="BackgroundImageFix"/><feColorMatrix in="SourceAlpha" result="hardAlpha" values="0 0 0 0 0 0 0 0 0 0 0 0 0 0 0 0 0 0 127 0"/><feOffset dx="-8" dy="8"/><feGaussianBlur stdDeviation="2"/><feComposite in2="hardAlpha" operator="out"/><feColorMatrix values="0 0 0 0 0 0 0 0 0 0 0 0 0 0 0 0 0 0 0.5 0"/><feBlend in2="BackgroundImageFix" result="effect1_dropShadow_18_514"/><feBlend in="SourceGraphic" in2="effect1_dropShadow_18_514" result="shape"/></filter><filter id="d" width="161.333" height="80.701" x="-77.006" y="67.816" color-interpolation-filters="sRGB" filterUnits="userSpaceOnUse"><feFlood flood-opacity="0" result="BackgroundImageFix"/><feColorMatrix in="SourceAlpha" result="hardAlpha" values="0 0 0 0 0 0 0 0 0 0 0 0 0 0 0 0 0 0 127 0"/><feOffset dx="8" dy="8"/><feGaussianBlur stdDeviation="2"/><feComposite in2="hardAlpha" operator="out"/><feColorMatrix values="0 0 0 0 0 0 0 0 0 0 0 0 0 0 0 0 0 0 0.5 0"/><feBlend in2="BackgroundImageFix" result="effect1_dropShadow_18_514"/><feBlend in="SourceGraphic" in2="effect1_dropShadow_18_514" result="shape"/></filter><filter id="e" width="120.173" height="16.182" x="23.278" y="243.455" color-interpolation-filters="sRGB" filterUnits="userSpaceOnUse"><feFlood flood-opacity="0" result="BackgroundImageFix"/><feColorMatrix in="SourceAlpha" result="hardAlpha" values="0 0 0 0 0 0 0 0 0 0 0 0 0 0 0 0 0 0 127 0"/><feOffset dy="4"/><feGaussianBlur stdDeviation="2"/><feComposite in2="hardAlpha" operator="out"/><feColorMatrix values="0 0 0 0 0.3625 0 0 0 0 0.3625 0 0 0 0 0.3625 0 0 0 0.25 0"/><feBlend in2="BackgroundImageFix" result="effect1_dropShadow_18_514"/><feBlend in="SourceGraphic" in2="effect1_dropShadow_18_514" result="shape"/></filter><filter id="f" width="64.071" height="25.415" x="363.129" y="244.773" color-interpolation-filters="sRGB" filterUnits="userSpaceOnUse"><feFlood flood-opacity="0" result="BackgroundImageFix"/><feColorMatrix in="SourceAlpha" result="hardAlpha" values="0 0 0 0 0 0 0 0 0 0 0 0 0 0 0 0 0 0 127 0"/><feOffset dy="4"/><feGaussianBlur stdDeviation="2"/><feComposite in2="hardAlpha" operator="out"/><feColorMatrix values="0 0 0 0 0.3625 0 0 0 0 0.3625 0 0 0 0 0.3625 0 0 0 0.25 0"/><feBlend in2="BackgroundImageFix" result="effect1_dropShadow_18_514"/><feBlend in="SourceGraphic" in2="effect1_dropShadow_18_514" result="shape"/></filter><filter id="g" width="213.975" height="17.852" x="27.106" y="198.909" color-interpolation-filters="sRGB" filterUnits="userSpaceOnUse"><feFlood flood-opacity="0" result="BackgroundImageFix"/><feBlend in="SourceGraphic" in2="BackgroundImageFix" result="shape"/><feColorMatrix in="SourceAlpha" result="hardAlpha" values="0 0 0 0 0 0 0 0 0 0 0 0 0 0 0 0 0 0 127 0"/><feOffset dy="4.582"/><feGaussianBlur stdDeviation="2.291"/><feComposite in2="hardAlpha" k2="-1" k3="1" operator="arithmetic"/><feColorMatrix values="0 0 0 0 0.916667 0 0 0 0 0.916667 0 0 0 0 0.916667 0 0 0 0.25 0"/><feBlend in2="shape" result="effect1_innerShadow_18_514"/></filter><filter id="k" width="75.194" height="85.621" x="239.696" y="32.751" color-interpolation-filters="sRGB" filterUnits="userSpaceOnUse"><feFlood flood-opacity="0" result="BackgroundImageFix"/><feColorMatrix in="SourceAlpha" result="hardAlpha" values="0 0 0 0 0 0 0 0 0 0 0 0 0 0 0 0 0 0 127 0"/><feOffset dx="8" dy="8"/><feGaussianBlur stdDeviation="2"/><feComposite in2="hardAlpha" operator="out"/><feColorMatrix values="0 0 0 0 0 0 0 0 0 0 0 0 0 0 0 0 0 0 0.5 0"/><feBlend in2="BackgroundImageFix" result="effect1_dropShadow_18_514"/><feBlend in="SourceGraphic" in2="effect1_dropShadow_18_514" result="shape"/></filter><filter id="l" width="106.381" height="87.125" x="209.821" y="57.214" color-interpolation-filters="sRGB" filterUnits="userSpaceOnUse"><feFlood flood-opacity="0" result="BackgroundImageFix"/><feGaussianBlur in="BackgroundImageFix" stdDeviation="13.5"/><feComposite in2="SourceAlpha" operator="in" result="effect1_backgroundBlur_18_514"/><feColorMatrix in="SourceAlpha" result="hardAlpha" values="0 0 0 0 0 0 0 0 0 0 0 0 0 0 0 0 0 0 127 0"/><feOffset dx="4" dy="4"/><feGaussianBlur stdDeviation="2"/><feComposite in2="hardAlpha" operator="out"/><feColorMatrix values="0 0 0 0 0 0 0 0 0 0 0 0 0 0 0 0 0 0 0.25 0"/><feBlend in2="effect1_backgroundBlur_18_514" result="effect2_dropShadow_18_514"/><feColorMatrix in="SourceAlpha" result="hardAlpha" values="0 0 0 0 0 0 0 0 0 0 0 0 0 0 0 0 0 0 127 0"/><feOffset dx="-4" dy="4"/><feGaussianBlur stdDeviation="2"/><feComposite in2="hardAlpha" operator="out"/><feColorMatrix values="0 0 0 0 0 0 0 0 0 0 0 0 0 0 0 0 0 0 0.25 0"/><feBlend in2="effect2_dropShadow_18_514" result="effect3_dropShadow_18_514"/><feBlend in="SourceGraphic" in2="effect3_dropShadow_18_514" result="shape"/></filter><filter id="m" width="106.381" height="87.125" x="247.619" y="8.707" color-interpolation-filters="sRGB" filterUnits="userSpaceOnUse"><feFlood flood-opacity="0" result="BackgroundImageFix"/><feGaussianBlur in="BackgroundImageFix" stdDeviation="13.5"/><feComposite in2="SourceAlpha" operator="in" result="effect1_backgroundBlur_18_514"/><feColorMatrix in="SourceAlpha" result="hardAlpha" values="0 0 0 0 0 0 0 0 0 0 0 0 0 0 0 0 0 0 127 0"/><feOffset dx="4" dy="4"/><feGaussianBlur stdDeviation="2"/><feComposite in2="hardAlpha" operator="out"/><feColorMatrix values="0 0 0 0 0 0 0 0 0 0 0 0 0 0 0 0 0 0 0.5 0"/><feBlend in2="effect1_backgroundBlur_18_514" result="effect2_dropShadow_18_514"/><feColorMatrix in="SourceAlpha" result="hardAlpha" values="0 0 0 0 0 0 0 0 0 0 0 0 0 0 0 0 0 0 127 0"/><feOffset dx="-4" dy="4"/><feGaussianBlur stdDeviation="2"/><feComposite in2="hardAlpha" operator="out"/><feColorMatrix values="0 0 0 0 0 0 0 0 0 0 0 0 0 0 0 0 0 0 0.25 0"/><feBlend in2="effect2_dropShadow_18_514" result="effect3_dropShadow_18_514"/><feBlend in="SourceGraphic" in2="effect3_dropShadow_18_514" result="shape"/></filter><linearGradient id="a" x1=".124" x2="450.024" y1="125.102" y2="143.926" gradientUnits="userSpaceOnUse"><stop offset=".006" stop-color="#3A3A3A" stop-opacity=".32"/><stop offset="1" stop-color="#323232" stop-opacity=".37"/></linearGradient><linearGradient id="i" x1="94.079" x2="94.079" y1="30" y2="49.252" gradientUnits="userSpaceOnUse"><stop stop-color="#fff"/><stop offset="1" stop-color="#fff" stop-opacity=".75"/></linearGradient><linearGradient id="j" x1="71.65" x2="71.65" y1="30.371" y2="40.519" gradientUnits="userSpaceOnUse"><stop stop-color="#fff"/><stop offset="1" stop-color="#fff" stop-opacity=".75"/></linearGradient><clipPath id="h"><path fill="#fff" d="M394.578 27H426v25h-31.422z"/></clipPath></defs></svg>