<svg width="120" height="90" viewBox="0 0 120 90" fill="none" xmlns="http://www.w3.org/2000/svg">
<rect x="11.25" y="16.875" width="90" height="56.25" rx="5" fill="white"/>
<path d="M23.4375 28.125C24.9908 28.125 26.25 27.1806 26.25 26.0156C26.25 24.8506 24.9908 23.9062 23.4375 23.9062C21.8842 23.9062 20.625 24.8506 20.625 26.0156C20.625 27.1806 21.8842 28.125 23.4375 28.125Z" fill="black"/>
<path d="M32.8125 28.125C34.3658 28.125 35.625 27.1806 35.625 26.0156C35.625 24.8506 34.3658 23.9062 32.8125 23.9062C31.2592 23.9062 30 24.8506 30 26.0156C30 27.1806 31.2592 28.125 32.8125 28.125Z" fill="black"/>
<path d="M42.1875 28.125C43.7408 28.125 45 27.1806 45 26.0156C45 24.8506 43.7408 23.9062 42.1875 23.9062C40.6342 23.9062 39.375 24.8506 39.375 26.0156C39.375 27.1806 40.6342 28.125 42.1875 28.125Z" fill="black"/>
<path d="M54.6176 32.1348C54.7645 30.8268 55.8359 29.8717 57.1446 29.7317C59.9187 29.4349 64.7487 28.8496 68.2536 28.0537C72.3239 27.1293 78.1814 25.1091 80.5305 24.2764C81.1984 24.0396 81.9266 24.0396 82.5945 24.2764C84.9436 25.1091 90.801 27.1293 94.8714 28.0537C98.3762 28.8496 103.206 29.4349 105.98 29.7317C107.289 29.8717 108.36 30.8268 108.507 32.1348C109.321 39.3761 109.664 62.4938 82.2087 68.7629C81.7937 68.8577 81.3313 68.8577 80.9163 68.7629C53.4613 62.4938 53.8041 39.3761 54.6176 32.1348Z" fill="black"/>
<path fill-rule="evenodd" clip-rule="evenodd" d="M72.4576 59.7116C70.437 58.4609 68.791 57.0224 67.4531 55.4784L74.4041 31.9691C76.7035 31.2822 79.1447 30.4178 80.499 29.9246C80.7649 29.8278 81.0401 29.7683 81.3174 29.7463L72.4576 59.7116ZM77.9559 62.2747C76.9646 61.9368 76.033 61.5635 75.1576 61.1592L84.2239 30.4956C85.0725 30.7931 86.0557 31.1285 87.0683 31.4549L77.9559 62.2747Z" fill="white"/>
<path d="M61.9953 36.2657C62.1117 34.9502 63.1845 33.9827 64.4963 33.8305C66.5503 33.5922 69.63 33.1816 71.9251 32.6418C74.7039 31.9882 78.6331 30.6041 80.499 29.9245C81.1871 29.6739 81.9379 29.6739 82.626 29.9245C84.4919 30.6041 88.4211 31.9882 91.1999 32.6418C93.495 33.1816 96.5747 33.5922 98.6287 33.8305C99.9405 33.9827 101.013 34.9502 101.13 36.2657C101.657 42.2205 101.272 58.5114 82.2282 63.1264C81.8 63.2302 81.325 63.2302 80.8968 63.1264C61.8532 58.5114 61.4684 42.2206 61.9953 36.2657Z" stroke="white" stroke-opacity="0.2" stroke-width="2"/>
</svg>
