<svg xmlns="http://www.w3.org/2000/svg" width="450" height="289" fill="none"><rect width="447.876" height="287" x="1.124" y="1" fill="#585858" stroke="url(#a)" stroke-width="2" rx="29"/><mask id="b" width="450" height="289" x="0" y="0" maskUnits="userSpaceOnUse" style="mask-type:alpha"><rect width="450" height="289" fill="#585858" rx="30"/></mask><g mask="url(#b)"><g fill="#fff" filter="url(#c)"><rect width="103.955" height="31.998" x="-51.848" y="67.816" rx="15.999"/><rect width="150" height="46.729" x="-79.359" y="89.789" rx="23.364"/></g><g fill="#fff" filter="url(#d)"><rect width="3" height="18" x="228" y="115" rx="1.5"/><rect width="3" height="20" x="250" y="120" rx="1.5"/><rect width="3" height="20" x="238" y="104" rx="1.5"/><rect width="3" height="20" x="285" y="113" rx="1.5"/><rect width="3" height="14" x="275" y="104" rx="1.5"/><rect width="3" height="14" x="220" y="106" rx="1.5"/><rect width="3" height="14" x="310" y="107" rx="1.5"/><rect width="3" height="25" x="302" y="103" rx="1.5"/><rect width="3" height="25" x="260" y="112" rx="1.5"/><rect width="70" height="35" x="232" y="41" rx="17.5"/><rect width="120" height="46.729" x="207" y="59.973" rx="23.364"/></g><g fill="#fff" filter="url(#e)"><rect width="103.955" height="31.998" x="402.315" y="140.312" rx="15.999"/><rect width="150" height="46.729" x="374.805" y="162.285" rx="23.364"/></g><g filter="url(#f)"><path fill="#fff" d="m28.001 251.273.122-2.698-2.276 1.464-.696-1.214 2.416-1.234-2.416-1.234.696-1.214 2.276 1.464-.122-2.698h1.387l-.121 2.698 2.276-1.464.696 1.214-2.416 1.234 2.416 1.234-.696 1.214-2.276-1.464.122 2.698zm9.387 0 .122-2.698-2.276 1.464-.697-1.214 2.416-1.234-2.416-1.234.697-1.214 2.276 1.464-.122-2.698h1.387l-.121 2.698 2.275-1.464.697 1.214-2.416 1.234 2.416 1.234-.697 1.214-2.275-1.464.121 2.698zm9.387 0 .121-2.698-2.275 1.464-.697-1.214 2.416-1.234-2.416-1.234.697-1.214 2.275 1.464-.121-2.698h1.387l-.121 2.698 2.275-1.464.697 1.214-2.416 1.234 2.416 1.234-.697 1.214-2.276-1.464.122 2.698zm9.387 0 .121-2.698-2.276 1.464-.696-1.214 2.416-1.234-2.416-1.234.697-1.214 2.275 1.464-.121-2.698h1.387l-.122 2.698 2.276-1.464.697 1.214-2.417 1.234 2.417 1.234-.697 1.214-2.276-1.464.122 2.698zm9.386 0 .122-2.698-2.276 1.464-.697-1.214 2.417-1.234-2.417-1.234.697-1.214 2.276 1.464-.122-2.698h1.387l-.121 2.698 2.276-1.464.696 1.214-2.416 1.234 2.416 1.234-.697 1.214-2.275-1.464.121 2.698zm9.387 0 .121-2.698-2.275 1.464-.697-1.214 2.416-1.234-2.416-1.234.697-1.214 2.275 1.464-.121-2.698h1.387l-.121 2.698 2.275-1.464.697 1.214-2.416 1.234 2.416 1.234-.697 1.214-2.275-1.464.121 2.698zm9.387 0 .121-2.698-2.275 1.464-.697-1.214 2.416-1.234-2.416-1.234.697-1.214 2.275 1.464-.121-2.698h1.387l-.122 2.698 2.276-1.464.697 1.214-2.416 1.234 2.416 1.234-.697 1.214-2.276-1.464.122 2.698zm9.386 0 .122-2.698-2.276 1.464-.696-1.214 2.416-1.234-2.416-1.234.696-1.214 2.276 1.464-.121-2.698h1.386l-.12 2.698 2.275-1.464.696 1.214-2.416 1.234 2.416 1.234-.696 1.214-2.276-1.464.121 2.698zm9.387 0 .122-2.698-2.276 1.464-.697-1.214 2.417-1.234-2.417-1.234.697-1.214 2.276 1.464-.122-2.698h1.387l-.121 2.698 2.275-1.464.697 1.214-2.416 1.234 2.416 1.234-.697 1.214-2.275-1.464.121 2.698zm9.387 0 .121-2.698-2.275 1.464-.697-1.214 2.416-1.234-2.416-1.234.697-1.214 2.275 1.464-.121-2.698h1.387l-.121 2.698 2.275-1.464.697 1.214-2.416 1.234 2.416 1.234-.697 1.214-2.275-1.464.121 2.698zm9.387 0 .121-2.698-2.276 1.464-.696-1.214 2.416-1.234-2.416-1.234.696-1.214 2.276 1.464-.121-2.698h1.387l-.122 2.698 2.276-1.464.697 1.214-2.417 1.234 2.417 1.234-.697 1.214-2.276-1.464.122 2.698z"/></g><g filter="url(#g)"><path fill="#fff" d="M375.817 259.217q-1.515-.006-2.589-.799-1.074-.792-1.643-2.307t-.569-3.65q0-2.128.569-3.637.575-1.509 1.649-2.301 1.08-.793 2.583-.793 1.502 0 2.576.799 1.074.793 1.643 2.301.575 1.503.575 3.631 0 2.14-.569 3.656-.569 1.509-1.643 2.308-1.074.792-2.582.792m0-1.706q1.33 0 2.077-1.298.754-1.298.754-3.752 0-1.63-.345-2.755-.339-1.131-.978-1.713a2.14 2.14 0 0 0-1.508-.588q-1.323 0-2.078 1.304t-.76 3.752q0 1.636.338 2.768.346 1.125.978 1.706.633.576 1.522.576m7.061 1.489v-1.432l4.43-4.589a25 25 0 0 0 1.17-1.311q.466-.568.697-1.08.23-.511.23-1.087 0-.651-.307-1.125a2 2 0 0 0-.838-.735 2.7 2.7 0 0 0-1.195-.262q-.703 0-1.227.288a1.97 1.97 0 0 0-.806.812q-.28.523-.281 1.227h-1.885q0-1.196.549-2.09a3.74 3.74 0 0 1 1.509-1.387q.959-.5 2.18-.499 1.233 0 2.173.492.946.486 1.476 1.33.531.837.531 1.892 0 .729-.275 1.425-.268.697-.94 1.554-.67.85-1.866 2.064l-2.602 2.723v.096h5.894V259zm16.051-13.705-4.219 15.674h-1.707l4.219-15.674zm6.155 13.884q-1.317 0-2.352-.454-1.029-.453-1.63-1.259a3.35 3.35 0 0 1-.639-1.879h2.007q.039.58.39 1.01.358.421.933.652.576.23 1.279.23.773 0 1.367-.269.601-.268.94-.748.339-.486.339-1.118 0-.659-.339-1.157-.333-.505-.978-.793-.64-.287-1.547-.287h-1.106v-1.611h1.106q.729 0 1.279-.262.555-.263.869-.729.313-.473.313-1.106 0-.607-.275-1.055a1.84 1.84 0 0 0-.767-.709q-.492-.256-1.163-.256-.64 0-1.195.237a2.2 2.2 0 0 0-.895.665q-.345.427-.371 1.029h-1.911a3.23 3.23 0 0 1 .626-1.867 4.06 4.06 0 0 1 1.585-1.259q.985-.454 2.186-.454 1.26 0 2.174.492.92.486 1.419 1.298.505.811.498 1.777.007 1.1-.613 1.866-.614.768-1.637 1.029v.103q1.305.198 2.02 1.035.723.837.716 2.078a3.23 3.23 0 0 1-.601 1.936q-.6.857-1.642 1.349-1.043.486-2.385.486m11.602.038q-1.515-.006-2.589-.799-1.073-.792-1.643-2.307-.569-1.515-.569-3.65 0-2.128.569-3.637.576-1.509 1.65-2.301 1.08-.793 2.582-.793t2.576.799q1.073.793 1.643 2.301.575 1.503.575 3.631 0 2.14-.569 3.656-.569 1.509-1.643 2.308-1.074.792-2.582.792m0-1.706q1.33 0 2.077-1.298.755-1.298.755-3.752 0-1.63-.346-2.755-.338-1.131-.978-1.713a2.14 2.14 0 0 0-1.508-.588q-1.323 0-2.078 1.304-.753 1.304-.76 3.752 0 1.636.339 2.768.345 1.125.978 1.706a2.18 2.18 0 0 0 1.521.576"/></g><path stroke="#fff" stroke-opacity=".2" stroke-width="2" d="M24 226h402"/><g filter="url(#h)"><path fill="#fff" d="M29.842 212.179q-1.354 0-2.416-.499-1.054-.498-1.675-1.374a3.53 3.53 0 0 1-.645-2.007h2.685q.044.76.639 1.234.594.473 1.412.473.653 0 1.15-.288a2.06 2.06 0 0 0 .787-.812q.288-.524.288-1.201 0-.692-.294-1.215a2.1 2.1 0 0 0-.8-.818 2.36 2.36 0 0 0-1.169-.301 2.8 2.8 0 0 0-1.119.237 2 2 0 0 0-.837.646l-2.46-.442.62-6.903h8.002v2.263h-5.72l-.34 3.279h.077q.345-.486 1.042-.805a3.7 3.7 0 0 1 1.56-.32q1.182 0 2.109.556t1.464 1.528q.537.965.53 2.224.007 1.323-.613 2.353a4.33 4.33 0 0 1-1.72 1.61q-1.1.582-2.557.582m12.322 0q-1.356 0-2.416-.499-1.055-.498-1.675-1.374a3.53 3.53 0 0 1-.646-2.007h2.685q.045.76.64 1.234.594.473 1.412.473.652 0 1.15-.288a2.06 2.06 0 0 0 .787-.812q.287-.524.287-1.201 0-.692-.294-1.215a2.1 2.1 0 0 0-.799-.818 2.36 2.36 0 0 0-1.17-.301 2.8 2.8 0 0 0-1.118.237 2 2 0 0 0-.837.646l-2.461-.442.62-6.903h8.002v2.263h-5.72l-.34 3.279h.078q.345-.486 1.042-.805.696-.32 1.56-.32 1.181 0 2.108.556t1.464 1.528q.537.965.53 2.224.007 1.323-.613 2.353a4.33 4.33 0 0 1-1.72 1.61q-1.098.582-2.556.582m12.322 0q-1.356 0-2.417-.499-1.054-.498-1.675-1.374a3.53 3.53 0 0 1-.645-2.007h2.685q.044.76.639 1.234.594.473 1.413.473.651 0 1.15-.288a2.06 2.06 0 0 0 .786-.812q.288-.524.288-1.201 0-.692-.294-1.215a2.1 2.1 0 0 0-.8-.818 2.36 2.36 0 0 0-1.169-.301 2.8 2.8 0 0 0-1.119.237 2 2 0 0 0-.837.646l-2.46-.442.62-6.903h8.002v2.263h-5.72l-.34 3.279h.077q.346-.486 1.042-.805a3.7 3.7 0 0 1 1.56-.32q1.182 0 2.11.556.926.556 1.463 1.528.537.965.53 2.224.007 1.323-.613 2.353a4.33 4.33 0 0 1-1.72 1.61q-1.1.582-2.556.582m12.321 0q-1.355 0-2.416-.499-1.055-.498-1.675-1.374a3.53 3.53 0 0 1-.645-2.007h2.684q.045.76.64 1.234.594.473 1.412.473.652 0 1.15-.288a2.06 2.06 0 0 0 .787-.812q.287-.524.287-1.201 0-.692-.294-1.215a2.1 2.1 0 0 0-.799-.818 2.36 2.36 0 0 0-1.17-.301 2.8 2.8 0 0 0-1.118.237 2 2 0 0 0-.837.646l-2.461-.442.62-6.903h8.003v2.263h-5.721l-.339 3.279h.077q.345-.486 1.042-.805a3.7 3.7 0 0 1 1.56-.32q1.181 0 2.109.556.926.556 1.463 1.528.537.965.53 2.224.007 1.323-.613 2.353a4.33 4.33 0 0 1-1.72 1.61q-1.098.582-2.556.582m12.228-2.48v-2.18l5.465-8.61h1.88v3.017h-1.113l-3.445 5.453v.102h7.766v2.218zM85.32 212v-2.966l.05-.965v-9.16h2.596V212zm6.635-2.301v-2.18l5.466-8.61h1.879v3.017h-1.112l-3.446 5.453v.102h7.767v2.218zM98.238 212v-2.966l.05-.965v-9.16h2.596V212zm6.636-2.301v-2.18l5.465-8.61h1.879v3.017h-1.112l-3.445 5.453v.102h7.766v2.218zm6.283 2.301v-2.966l.051-.965v-9.16h2.595V212zm6.636-2.301v-2.18l5.465-8.61h1.879v3.017h-1.112l-3.445 5.453v.102h7.766v2.218zm6.283 2.301v-2.966l.051-.965v-9.16h2.596V212zm16.501.179q-1.354 0-2.416-.499-1.054-.498-1.674-1.374a3.53 3.53 0 0 1-.646-2.007h2.685q.044.76.639 1.234.594.473 1.412.473.653 0 1.151-.288.505-.294.786-.812.288-.524.288-1.201 0-.692-.294-1.215a2.1 2.1 0 0 0-.799-.818 2.36 2.36 0 0 0-1.17-.301 2.8 2.8 0 0 0-1.118.237 2 2 0 0 0-.838.646l-2.461-.442.62-6.903h8.003v2.263h-5.721l-.339 3.279h.077q.346-.486 1.042-.805a3.7 3.7 0 0 1 1.56-.32q1.182 0 2.109.556t1.464 1.528q.537.965.53 2.224.007 1.323-.613 2.353a4.33 4.33 0 0 1-1.72 1.61q-1.1.582-2.557.582m12.322 0q-1.355 0-2.416-.499-1.055-.498-1.675-1.374a3.53 3.53 0 0 1-.645-2.007h2.684q.045.76.639 1.234.595.473 1.413.473.652 0 1.151-.288.504-.294.786-.812.287-.524.287-1.201 0-.692-.294-1.215a2.1 2.1 0 0 0-.799-.818 2.35 2.35 0 0 0-1.169-.301 2.8 2.8 0 0 0-1.119.237 2 2 0 0 0-.837.646l-2.461-.442.62-6.903h8.003v2.263h-5.721l-.339 3.279h.077q.345-.486 1.042-.805.696-.32 1.559-.32 1.183 0 2.11.556t1.463 1.528q.537.965.531 2.224.006 1.323-.614 2.353a4.33 4.33 0 0 1-1.719 1.61q-1.1.582-2.557.582m12.322 0q-1.356 0-2.417-.499-1.054-.498-1.674-1.374a3.53 3.53 0 0 1-.646-2.007h2.685q.045.76.639 1.234.594.473 1.413.473.652 0 1.15-.288.505-.294.786-.812.288-.524.288-1.201 0-.692-.294-1.215a2.1 2.1 0 0 0-.799-.818 2.36 2.36 0 0 0-1.17-.301 2.8 2.8 0 0 0-1.118.237 2.03 2.03 0 0 0-.838.646l-2.461-.442.62-6.903h8.003v2.263h-5.721l-.338 3.279h.076q.345-.486 1.042-.805t1.56-.32q1.182 0 2.109.556t1.464 1.528q.537.965.531 2.224.006 1.323-.614 2.353a4.33 4.33 0 0 1-1.72 1.61q-1.1.582-2.556.582m12.321 0q-1.355 0-2.416-.499-1.054-.498-1.675-1.374a3.53 3.53 0 0 1-.645-2.007h2.684q.045.76.64 1.234.594.473 1.412.473.652 0 1.151-.288.504-.294.786-.812.288-.524.288-1.201 0-.692-.294-1.215a2.1 2.1 0 0 0-.799-.818 2.36 2.36 0 0 0-1.17-.301 2.8 2.8 0 0 0-1.119.237 2 2 0 0 0-.837.646l-2.461-.442.62-6.903h8.003v2.263h-5.721l-.339 3.279h.077q.345-.486 1.042-.805.696-.32 1.559-.32 1.183 0 2.11.556t1.464 1.528q.536.965.53 2.224.007 1.323-.614 2.353a4.33 4.33 0 0 1-1.719 1.61q-1.1.582-2.557.582m12.228-2.48v-2.18l5.466-8.61h1.879v3.017h-1.112l-3.446 5.453v.102h7.767v2.218zm6.284 2.301v-2.966l.051-.965v-9.16h2.595V212zm6.636-2.301v-2.18l5.465-8.61h1.879v3.017h-1.112l-3.445 5.453v.102h7.766v2.218zm6.283 2.301v-2.966l.051-.965v-9.16h2.595V212zm6.636-2.301v-2.18l5.465-8.61h1.879v3.017h-1.112l-3.445 5.453v.102h7.766v2.218zm6.283 2.301v-2.966l.051-.965v-9.16h2.595V212zm6.636-2.301v-2.18l5.465-8.61h1.879v3.017h-1.112l-3.445 5.453v.102h7.766v2.218zm6.283 2.301v-2.966l.052-.965v-9.16h2.595V212z"/></g></g><g fill="#fff" clip-path="url(#i)"><path d="M406.33 27h-5.621l20.133 24.98h5.637L416.411 39.5l10.052-12.48-5.621.009-7.245 8.982zm5.768 17.844-2.815-3.494-8.59 10.65h5.637z"/><path fill-rule="evenodd" d="M418.813 52 399.55 27h-5.13v24.99h4.104V32.342L413.657 52z" clip-rule="evenodd"/></g><path fill="url(#j)" d="m82.874 49.049 2.554-18.674h4.084l-2.555 18.673zm18.819-18.265A8.7 8.7 0 0 0 98.037 30c-4.03 0-6.87 2.53-6.895 6.156-.022 2.68 2.028 4.175 3.575 5.067 1.588.914 2.122 1.497 2.114 2.314-.01 1.25-1.268 1.82-2.44 1.82-1.633 0-2.5-.285-3.84-.978l-.526-.296-.572 4.175c.952.52 2.715.972 4.543.994 4.288 0 7.072-2.5 7.104-6.372.015-2.121-1.07-3.736-3.425-5.067-1.426-.858-2.299-1.439-2.29-2.312 0-.775.74-1.604 2.337-1.604a6.24 6.24 0 0 1 3.052.715l.366.215zm10.492-.41h-3.142c-.973 0-1.702.332-2.129 1.542l-6.04 17.037h4.299s.688-2.265.846-2.763l5.151.008c.12.644.489 2.755.489 2.755h3.817zm-4.996 12.005c.337-1.074 1.625-5.213 1.625-5.213-.024.05.335-1.08.541-1.78l.276 1.607.944 5.386zM79.408 30.375l-3.984 12.69-.425-2.58c-.741-2.972-3.052-6.193-5.636-7.805l3.643 16.273 4.306-.006 6.407-18.572h-4.33"/><path fill="url(#k)" d="M71.526 30.374h-6.55l-.053.388c5.118 1.545 8.504 5.276 9.91 9.757l-1.43-8.574c-.248-1.18-.963-1.533-1.85-1.574"/><g stroke="#000" stroke-width="1.4" opacity=".7"><rect width="33.906" height="29.6" x="24.7" y="24.7" fill="#fff" fill-opacity=".26" rx="6.55"/><path d="M24.552 33.536h7.96a3.625 3.625 0 0 1 3.625 3.625v3.845m0 13.383v-5.913m0 0v-7.47m0 7.47H24.552m11.585-7.47H24.552M58.755 33.536H47.72m0 0v7.47m0-7.47v-8.9m0 29.753v-5.913m0 0v-7.47m0 7.47h11.034m-11.034-7.47h11.034"/></g><defs><filter id="c" width="162" height="80.701" x="-79.359" y="67.816" color-interpolation-filters="sRGB" filterUnits="userSpaceOnUse"><feFlood flood-opacity="0" result="BackgroundImageFix"/><feColorMatrix in="SourceAlpha" result="hardAlpha" values="0 0 0 0 0 0 0 0 0 0 0 0 0 0 0 0 0 0 127 0"/><feOffset dx="8" dy="8"/><feGaussianBlur stdDeviation="2"/><feComposite in2="hardAlpha" operator="out"/><feColorMatrix values="0 0 0 0 0 0 0 0 0 0 0 0 0 0 0 0 0 0 0.5 0"/><feBlend in2="BackgroundImageFix" result="effect1_dropShadow_18_515"/><feBlend in="SourceGraphic" in2="effect1_dropShadow_18_515" result="shape"/></filter><filter id="d" width="132" height="111" x="207" y="41" color-interpolation-filters="sRGB" filterUnits="userSpaceOnUse"><feFlood flood-opacity="0" result="BackgroundImageFix"/><feColorMatrix in="SourceAlpha" result="hardAlpha" values="0 0 0 0 0 0 0 0 0 0 0 0 0 0 0 0 0 0 127 0"/><feOffset dx="8" dy="8"/><feGaussianBlur stdDeviation="2"/><feComposite in2="hardAlpha" operator="out"/><feColorMatrix values="0 0 0 0 0 0 0 0 0 0 0 0 0 0 0 0 0 0 0.5 0"/><feBlend in2="BackgroundImageFix" result="effect1_dropShadow_18_515"/><feBlend in="SourceGraphic" in2="effect1_dropShadow_18_515" result="shape"/></filter><filter id="e" width="162" height="80.701" x="362.805" y="140.312" color-interpolation-filters="sRGB" filterUnits="userSpaceOnUse"><feFlood flood-opacity="0" result="BackgroundImageFix"/><feColorMatrix in="SourceAlpha" result="hardAlpha" values="0 0 0 0 0 0 0 0 0 0 0 0 0 0 0 0 0 0 127 0"/><feOffset dx="-8" dy="8"/><feGaussianBlur stdDeviation="2"/><feComposite in2="hardAlpha" operator="out"/><feColorMatrix values="0 0 0 0 0 0 0 0 0 0 0 0 0 0 0 0 0 0 0.5 0"/><feBlend in2="BackgroundImageFix" result="effect1_dropShadow_18_515"/><feBlend in="SourceGraphic" in2="effect1_dropShadow_18_515" result="shape"/></filter><filter id="f" width="108.956" height="15.364" x="21.151" y="243.909" color-interpolation-filters="sRGB" filterUnits="userSpaceOnUse"><feFlood flood-opacity="0" result="BackgroundImageFix"/><feColorMatrix in="SourceAlpha" result="hardAlpha" values="0 0 0 0 0 0 0 0 0 0 0 0 0 0 0 0 0 0 127 0"/><feOffset dy="4"/><feGaussianBlur stdDeviation="2"/><feComposite in2="hardAlpha" operator="out"/><feColorMatrix values="0 0 0 0 0.3625 0 0 0 0 0.3625 0 0 0 0 0.3625 0 0 0 0.25 0"/><feBlend in2="BackgroundImageFix" result="effect1_dropShadow_18_515"/><feBlend in="SourceGraphic" in2="effect1_dropShadow_18_515" result="shape"/></filter><filter id="g" width="58.464" height="23.673" x="367.016" y="245.295" color-interpolation-filters="sRGB" filterUnits="userSpaceOnUse"><feFlood flood-opacity="0" result="BackgroundImageFix"/><feColorMatrix in="SourceAlpha" result="hardAlpha" values="0 0 0 0 0 0 0 0 0 0 0 0 0 0 0 0 0 0 127 0"/><feOffset dy="4"/><feGaussianBlur stdDeviation="2"/><feComposite in2="hardAlpha" operator="out"/><feColorMatrix values="0 0 0 0 0.3625 0 0 0 0 0.3625 0 0 0 0 0.3625 0 0 0 0.25 0"/><feBlend in2="BackgroundImageFix" result="effect1_dropShadow_18_515"/><feBlend in="SourceGraphic" in2="effect1_dropShadow_18_515" result="shape"/></filter><filter id="h" width="213.975" height="17.852" x="25.106" y="198.909" color-interpolation-filters="sRGB" filterUnits="userSpaceOnUse"><feFlood flood-opacity="0" result="BackgroundImageFix"/><feBlend in="SourceGraphic" in2="BackgroundImageFix" result="shape"/><feColorMatrix in="SourceAlpha" result="hardAlpha" values="0 0 0 0 0 0 0 0 0 0 0 0 0 0 0 0 0 0 127 0"/><feOffset dy="4.582"/><feGaussianBlur stdDeviation="2.291"/><feComposite in2="hardAlpha" k2="-1" k3="1" operator="arithmetic"/><feColorMatrix values="0 0 0 0 0.916667 0 0 0 0 0.916667 0 0 0 0 0.916667 0 0 0 0.25 0"/><feBlend in2="shape" result="effect1_innerShadow_18_515"/></filter><linearGradient id="a" x1=".124" x2="450.024" y1="125.102" y2="143.926" gradientUnits="userSpaceOnUse"><stop offset=".006" stop-color="#3A3A3A" stop-opacity=".32"/><stop offset="1" stop-color="#323232" stop-opacity=".37"/></linearGradient><linearGradient id="j" x1="92.419" x2="92.419" y1="30" y2="49.252" gradientUnits="userSpaceOnUse"><stop stop-color="#fff"/><stop offset="1" stop-color="#fff" stop-opacity=".75"/></linearGradient><linearGradient id="k" x1="69.878" x2="69.878" y1="30.371" y2="40.519" gradientUnits="userSpaceOnUse"><stop stop-color="#fff"/><stop offset="1" stop-color="#fff" stop-opacity=".75"/></linearGradient><clipPath id="i"><path fill="#fff" d="M394.42 27h31.579v25H394.42z"/></clipPath></defs></svg>