<svg width="450" height="289" viewBox="0 0 450 289" fill="none" xmlns="http://www.w3.org/2000/svg">
<rect x="1.12375" y="1" width="447.876" height="287" rx="29" fill="#585858" stroke="url(#paint0_linear_18_515)" stroke-width="2"/>
<mask id="mask0_18_515" style="mask-type:alpha" maskUnits="userSpaceOnUse" x="0" y="0" width="450" height="289">
<rect width="450" height="289" rx="30" fill="#585858"/>
</mask>
<g mask="url(#mask0_18_515)">
<g filter="url(#filter0_d_18_515)">
<rect x="-51.8483" y="67.8164" width="103.955" height="31.9977" rx="15.9989" fill="white"/>
<rect x="-79.3588" y="89.7891" width="150" height="46.7287" rx="23.3643" fill="white"/>
</g>
<g filter="url(#filter1_d_18_515)">
<rect x="228" y="115" width="3" height="18" rx="1.5" fill="white"/>
<rect x="250" y="120" width="3" height="20" rx="1.5" fill="white"/>
<rect x="238" y="104" width="3" height="20" rx="1.5" fill="white"/>
<rect x="285" y="113" width="3" height="20" rx="1.5" fill="white"/>
<rect x="275" y="104" width="3" height="14" rx="1.5" fill="white"/>
<rect x="220" y="106" width="3" height="14" rx="1.5" fill="white"/>
<rect x="310" y="107" width="3" height="14" rx="1.5" fill="white"/>
<rect x="302" y="103" width="3" height="25" rx="1.5" fill="white"/>
<rect x="260" y="112" width="3" height="25" rx="1.5" fill="white"/>
<rect x="232" y="41" width="70" height="35" rx="17.5" fill="white"/>
<rect x="207" y="59.9727" width="120" height="46.7287" rx="23.3643" fill="white"/>
</g>
<g filter="url(#filter2_d_18_515)">
<rect x="402.315" y="140.312" width="103.955" height="31.9977" rx="15.9989" fill="white"/>
<rect x="374.805" y="162.285" width="150" height="46.7287" rx="23.3643" fill="white"/>
</g>
<g filter="url(#filter3_d_18_515)">
<path d="M28.0014 251.273L28.1229 248.575L25.8473 250.039L25.1506 248.825L27.5668 247.591L25.1506 246.357L25.8473 245.143L28.1229 246.607L28.0014 243.909H29.3885L29.267 246.607L31.5426 245.143L32.2393 246.357L29.8232 247.591L32.2393 248.825L31.5426 250.039L29.267 248.575L29.3885 251.273H28.0014ZM37.3881 251.273L37.5096 248.575L35.234 250.039L34.5373 248.825L36.9535 247.591L34.5373 246.357L35.234 245.143L37.5096 246.607L37.3881 243.909H38.7752L38.6538 246.607L40.9293 245.143L41.6261 246.357L39.2099 247.591L41.6261 248.825L40.9293 250.039L38.6538 248.575L38.7752 251.273H37.3881ZM46.7749 251.273L46.8963 248.575L44.6207 250.039L43.924 248.825L46.3402 247.591L43.924 246.357L44.6207 245.143L46.8963 246.607L46.7749 243.909H48.1619L48.0405 246.607L50.3161 245.143L51.0128 246.357L48.5966 247.591L51.0128 248.825L50.3161 250.039L48.0405 248.575L48.1619 251.273H46.7749ZM56.1616 251.273L56.283 248.575L54.0075 250.039L53.3107 248.825L55.7269 247.591L53.3107 246.357L54.0075 245.143L56.283 246.607L56.1616 243.909H57.5487L57.4272 246.607L59.7028 245.143L60.3995 246.357L57.9833 247.591L60.3995 248.825L59.7028 250.039L57.4272 248.575L57.5487 251.273H56.1616ZM65.5483 251.273L65.6697 248.575L63.3942 250.039L62.6974 248.825L65.1136 247.591L62.6974 246.357L63.3942 245.143L65.6697 246.607L65.5483 243.909H66.9354L66.8139 246.607L69.0895 245.143L69.7862 246.357L67.37 247.591L69.7862 248.825L69.0895 250.039L66.8139 248.575L66.9354 251.273H65.5483ZM74.935 251.273L75.0565 248.575L72.7809 250.039L72.0842 248.825L74.5004 247.591L72.0842 246.357L72.7809 245.143L75.0565 246.607L74.935 243.909H76.3221L76.2006 246.607L78.4762 245.143L79.1729 246.357L76.7567 247.591L79.1729 248.825L78.4762 250.039L76.2006 248.575L76.3221 251.273H74.935ZM84.3217 251.273L84.4432 248.575L82.1676 250.039L81.4709 248.825L83.8871 247.591L81.4709 246.357L82.1676 245.143L84.4432 246.607L84.3217 243.909H85.7088L85.5874 246.607L87.8629 245.143L88.5597 246.357L86.1435 247.591L88.5597 248.825L87.8629 250.039L85.5874 248.575L85.7088 251.273H84.3217ZM93.7085 251.273L93.8299 248.575L91.5543 250.039L90.8576 248.825L93.2738 247.591L90.8576 246.357L91.5543 245.143L93.8299 246.607L93.7085 243.909H95.0955L94.9741 246.607L97.2496 245.143L97.9464 246.357L95.5302 247.591L97.9464 248.825L97.2496 250.039L94.9741 248.575L95.0955 251.273H93.7085ZM103.095 251.273L103.217 248.575L100.941 250.039L100.244 248.825L102.661 247.591L100.244 246.357L100.941 245.143L103.217 246.607L103.095 243.909H104.482L104.361 246.607L106.636 245.143L107.333 246.357L104.917 247.591L107.333 248.825L106.636 250.039L104.361 248.575L104.482 251.273H103.095ZM112.482 251.273L112.603 248.575L110.328 250.039L109.631 248.825L112.047 247.591L109.631 246.357L110.328 245.143L112.603 246.607L112.482 243.909H113.869L113.748 246.607L116.023 245.143L116.72 246.357L114.304 247.591L116.72 248.825L116.023 250.039L113.748 248.575L113.869 251.273H112.482ZM121.869 251.273L121.99 248.575L119.714 250.039L119.018 248.825L121.434 247.591L119.018 246.357L119.714 245.143L121.99 246.607L121.869 243.909H123.256L123.134 246.607L125.41 245.143L126.107 246.357L123.69 247.591L126.107 248.825L125.41 250.039L123.134 248.575L123.256 251.273H121.869Z" fill="white"/>
</g>
<g filter="url(#filter4_d_18_515)">
<path d="M375.817 259.217C374.807 259.213 373.944 258.947 373.228 258.418C372.512 257.89 371.964 257.121 371.585 256.111C371.206 255.101 371.016 253.884 371.016 252.461C371.016 251.042 371.206 249.83 371.585 248.824C371.969 247.818 372.518 247.051 373.234 246.523C373.955 245.994 374.815 245.73 375.817 245.73C376.818 245.73 377.677 245.996 378.393 246.529C379.109 247.058 379.656 247.825 380.036 248.83C380.419 249.832 380.611 251.042 380.611 252.461C380.611 253.888 380.421 255.107 380.042 256.117C379.663 257.123 379.115 257.892 378.399 258.425C377.683 258.953 376.822 259.217 375.817 259.217ZM375.817 257.511C376.703 257.511 377.396 257.078 377.894 256.213C378.397 255.348 378.648 254.097 378.648 252.461C378.648 251.374 378.533 250.456 378.303 249.706C378.077 248.952 377.751 248.381 377.325 247.993C376.903 247.601 376.401 247.405 375.817 247.405C374.935 247.405 374.242 247.839 373.739 248.709C373.237 249.578 372.983 250.829 372.979 252.461C372.979 253.552 373.092 254.474 373.317 255.229C373.548 255.979 373.874 256.548 374.295 256.935C374.717 257.319 375.224 257.511 375.817 257.511ZM382.878 259V257.568L387.308 252.979C387.781 252.48 388.171 252.043 388.478 251.668C388.789 251.289 389.021 250.929 389.175 250.588C389.328 250.247 389.405 249.885 389.405 249.501C389.405 249.067 389.302 248.692 389.098 248.376C388.893 248.057 388.614 247.812 388.26 247.641C387.907 247.467 387.508 247.379 387.065 247.379C386.596 247.379 386.187 247.475 385.838 247.667C385.488 247.859 385.22 248.129 385.032 248.479C384.845 248.828 384.751 249.237 384.751 249.706H382.866C382.866 248.909 383.049 248.212 383.415 247.616C383.782 247.019 384.285 246.557 384.924 246.229C385.563 245.896 386.29 245.73 387.104 245.73C387.926 245.73 388.65 245.894 389.277 246.222C389.907 246.546 390.4 246.989 390.753 247.552C391.107 248.11 391.284 248.741 391.284 249.444C391.284 249.93 391.192 250.405 391.009 250.869C390.83 251.334 390.517 251.852 390.069 252.423C389.622 252.989 389 253.678 388.203 254.487L385.601 257.21V257.306H391.495V259H382.878ZM398.929 245.295L394.71 260.969H393.003L397.222 245.295H398.929ZM405.084 259.179C404.206 259.179 403.422 259.028 402.732 258.725C402.046 258.423 401.503 258.003 401.102 257.466C400.706 256.925 400.493 256.298 400.463 255.587H402.47C402.496 255.974 402.626 256.311 402.86 256.597C403.099 256.878 403.41 257.095 403.793 257.249C404.177 257.402 404.603 257.479 405.072 257.479C405.587 257.479 406.043 257.389 406.439 257.21C406.84 257.031 407.153 256.782 407.379 256.462C407.605 256.138 407.718 255.766 407.718 255.344C407.718 254.905 407.605 254.519 407.379 254.187C407.157 253.85 406.831 253.586 406.401 253.394C405.975 253.202 405.459 253.107 404.854 253.107H403.748V251.496H404.854C405.34 251.496 405.766 251.408 406.133 251.234C406.503 251.059 406.793 250.816 407.002 250.505C407.211 250.19 407.315 249.821 407.315 249.399C407.315 248.994 407.224 248.643 407.04 248.344C406.861 248.042 406.606 247.805 406.273 247.635C405.945 247.464 405.557 247.379 405.11 247.379C404.684 247.379 404.285 247.458 403.915 247.616C403.548 247.769 403.25 247.991 403.02 248.281C402.79 248.566 402.666 248.909 402.649 249.31H400.738C400.759 248.602 400.968 247.98 401.364 247.443C401.765 246.906 402.293 246.487 402.949 246.184C403.606 245.881 404.334 245.73 405.135 245.73C405.975 245.73 406.699 245.894 407.309 246.222C407.922 246.546 408.395 246.979 408.728 247.52C409.064 248.061 409.231 248.653 409.226 249.297C409.231 250.03 409.026 250.652 408.613 251.163C408.204 251.675 407.658 252.018 406.976 252.192V252.295C407.846 252.427 408.519 252.772 408.996 253.33C409.478 253.888 409.716 254.581 409.712 255.408C409.716 256.128 409.516 256.773 409.111 257.344C408.711 257.915 408.163 258.365 407.469 258.693C406.774 259.017 405.979 259.179 405.084 259.179ZM416.686 259.217C415.676 259.213 414.813 258.947 414.097 258.418C413.381 257.89 412.834 257.121 412.454 256.111C412.075 255.101 411.885 253.884 411.885 252.461C411.885 251.042 412.075 249.83 412.454 248.824C412.838 247.818 413.388 247.051 414.104 246.523C414.824 245.994 415.684 245.73 416.686 245.73C417.687 245.73 418.546 245.996 419.262 246.529C419.978 247.058 420.525 247.825 420.905 248.83C421.288 249.832 421.48 251.042 421.48 252.461C421.48 253.888 421.29 255.107 420.911 256.117C420.532 257.123 419.984 257.892 419.268 258.425C418.552 258.953 417.692 259.217 416.686 259.217ZM416.686 257.511C417.572 257.511 418.265 257.078 418.763 256.213C419.266 255.348 419.518 254.097 419.518 252.461C419.518 251.374 419.403 250.456 419.172 249.706C418.947 248.952 418.621 248.381 418.194 247.993C417.773 247.601 417.27 247.405 416.686 247.405C415.804 247.405 415.111 247.839 414.608 248.709C414.106 249.578 413.852 250.829 413.848 252.461C413.848 253.552 413.961 254.474 414.187 255.229C414.417 255.979 414.743 256.548 415.165 256.935C415.586 257.319 416.094 257.511 416.686 257.511Z" fill="white"/>
</g>
<path d="M24 226L426 226" stroke="white" stroke-opacity="0.2" stroke-width="2"/>
<g filter="url(#filter5_i_18_515)">
<path d="M29.8423 212.179C28.9389 212.179 28.1335 212.013 27.4261 211.68C26.723 211.348 26.1648 210.89 25.7514 210.306C25.3381 209.722 25.1229 209.053 25.1058 208.299H27.7905C27.8203 208.806 28.0334 209.217 28.4297 209.533C28.826 209.848 29.2969 210.006 29.8423 210.006C30.277 210.006 30.6605 209.91 30.9929 209.718C31.3295 209.522 31.5916 209.251 31.7791 208.906C31.9709 208.557 32.0668 208.156 32.0668 207.705C32.0668 207.244 31.9688 206.839 31.7727 206.49C31.581 206.141 31.3146 205.868 30.9737 205.672C30.6328 205.476 30.2429 205.376 29.804 205.371C29.4205 205.371 29.0476 205.45 28.6854 205.608C28.3274 205.766 28.0483 205.981 27.848 206.254L25.3871 205.812L26.0071 198.909H34.0099V201.172H28.2891L27.9503 204.451H28.027C28.2571 204.127 28.6044 203.859 29.0689 203.646C29.5334 203.433 30.0533 203.326 30.6286 203.326C31.4169 203.326 32.12 203.511 32.7379 203.882C33.3558 204.253 33.8438 204.762 34.2017 205.41C34.5597 206.053 34.7365 206.795 34.7322 207.634C34.7365 208.516 34.532 209.3 34.1186 209.987C33.7095 210.668 33.1364 211.205 32.3991 211.597C31.6662 211.985 30.8139 212.179 29.8423 212.179ZM42.1639 212.179C41.2605 212.179 40.4551 212.013 39.7477 211.68C39.0446 211.348 38.4863 210.89 38.073 210.306C37.6596 209.722 37.4444 209.053 37.4274 208.299H40.112C40.1419 208.806 40.3549 209.217 40.7513 209.533C41.1476 209.848 41.6184 210.006 42.1639 210.006C42.5986 210.006 42.9821 209.91 43.3145 209.718C43.6511 209.522 43.9132 209.251 44.1007 208.906C44.2924 208.557 44.3883 208.156 44.3883 207.705C44.3883 207.244 44.2903 206.839 44.0943 206.49C43.9025 206.141 43.6362 205.868 43.2953 205.672C42.9544 205.476 42.5645 205.376 42.1255 205.371C41.742 205.371 41.3691 205.45 41.0069 205.608C40.649 205.766 40.3699 205.981 40.1696 206.254L37.7086 205.812L38.3287 198.909H46.3315V201.172H40.6106L40.2718 204.451H40.3486C40.5787 204.127 40.926 203.859 41.3905 203.646C41.8549 203.433 42.3748 203.326 42.9501 203.326C43.7385 203.326 44.4416 203.511 45.0595 203.882C45.6774 204.253 46.1653 204.762 46.5233 205.41C46.8812 206.053 47.0581 206.795 47.0538 207.634C47.0581 208.516 46.8535 209.3 46.4402 209.987C46.0311 210.668 45.4579 211.205 44.7207 211.597C43.9878 211.985 43.1355 212.179 42.1639 212.179ZM54.4855 212.179C53.582 212.179 52.7766 212.013 52.0693 211.68C51.3661 211.348 50.8079 210.89 50.3945 210.306C49.9812 209.722 49.766 209.053 49.7489 208.299H52.4336C52.4634 208.806 52.6765 209.217 53.0728 209.533C53.4691 209.848 53.94 210.006 54.4855 210.006C54.9201 210.006 55.3036 209.91 55.636 209.718C55.9727 209.522 56.2347 209.251 56.4222 208.906C56.614 208.557 56.7099 208.156 56.7099 207.705C56.7099 207.244 56.6119 206.839 56.4159 206.49C56.2241 206.141 55.9578 205.868 55.6168 205.672C55.2759 205.476 54.886 205.376 54.4471 205.371C54.0636 205.371 53.6907 205.45 53.3285 205.608C52.9705 205.766 52.6914 205.981 52.4911 206.254L50.0302 205.812L50.6502 198.909H58.6531V201.172H52.9322L52.5934 204.451H52.6701C52.9002 204.127 53.2475 203.859 53.712 203.646C54.1765 203.433 54.6964 203.326 55.2717 203.326C56.06 203.326 56.7632 203.511 57.3811 203.882C57.9989 204.253 58.4869 204.762 58.8448 205.41C59.2028 206.053 59.3796 206.795 59.3754 207.634C59.3796 208.516 59.1751 209.3 58.7617 209.987C58.3526 210.668 57.7795 211.205 57.0423 211.597C56.3093 211.985 55.457 212.179 54.4855 212.179ZM66.807 212.179C65.9036 212.179 65.0982 212.013 64.3908 211.68C63.6877 211.348 63.1295 210.89 62.7161 210.306C62.3028 209.722 62.0876 209.053 62.0705 208.299H64.7552C64.785 208.806 64.9981 209.217 65.3944 209.533C65.7907 209.848 66.2616 210.006 66.807 210.006C67.2417 210.006 67.6252 209.91 67.9576 209.718C68.2942 209.522 68.5563 209.251 68.7438 208.906C68.9356 208.557 69.0314 208.156 69.0314 207.705C69.0314 207.244 68.9334 206.839 68.7374 206.49C68.5457 206.141 68.2793 205.868 67.9384 205.672C67.5975 205.476 67.2076 205.376 66.7687 205.371C66.3851 205.371 66.0123 205.45 65.6501 205.608C65.2921 205.766 65.013 205.981 64.8127 206.254L62.3518 205.812L62.9718 198.909H70.9746V201.172H65.2537L64.915 204.451H64.9917C65.2218 204.127 65.5691 203.859 66.0336 203.646C66.4981 203.433 67.018 203.326 67.5932 203.326C68.3816 203.326 69.0847 203.511 69.7026 203.882C70.3205 204.253 70.8084 204.762 71.1664 205.41C71.5243 206.053 71.7012 206.795 71.6969 207.634C71.7012 208.516 71.4966 209.3 71.0833 209.987C70.6742 210.668 70.1011 211.205 69.3638 211.597C68.6309 211.985 67.7786 212.179 66.807 212.179ZM79.0352 209.699V207.519L84.5004 198.909H86.3797V201.926H85.2674L81.8221 207.379V207.481H89.5885V209.699H79.0352ZM85.3186 212V209.034L85.3697 208.069V198.909H87.9649V212H85.3186ZM91.9544 209.699V207.519L97.4196 198.909H99.2989V201.926H98.1867L94.7413 207.379V207.481H102.508V209.699H91.9544ZM98.2378 212V209.034L98.2889 208.069V198.909H100.884V212H98.2378ZM104.874 209.699V207.519L110.339 198.909H112.218V201.926H111.106L107.661 207.379V207.481H115.427V209.699H104.874ZM111.157 212V209.034L111.208 208.069V198.909H113.803V212H111.157ZM117.793 209.699V207.519L123.258 198.909H125.137V201.926H124.025L120.58 207.379V207.481H128.346V209.699H117.793ZM124.076 212V209.034L124.127 208.069V198.909H126.723V212H124.076ZM140.577 212.179C139.674 212.179 138.869 212.013 138.161 211.68C137.458 211.348 136.9 210.89 136.487 210.306C136.073 209.722 135.858 209.053 135.841 208.299H138.526C138.555 208.806 138.769 209.217 139.165 209.533C139.561 209.848 140.032 210.006 140.577 210.006C141.012 210.006 141.396 209.91 141.728 209.718C142.065 209.522 142.327 209.251 142.514 208.906C142.706 208.557 142.802 208.156 142.802 207.705C142.802 207.244 142.704 206.839 142.508 206.49C142.316 206.141 142.05 205.868 141.709 205.672C141.368 205.476 140.978 205.376 140.539 205.371C140.156 205.371 139.783 205.45 139.421 205.608C139.063 205.766 138.783 205.981 138.583 206.254L136.122 205.812L136.742 198.909H144.745V201.172H139.024L138.685 204.451H138.762C138.992 204.127 139.34 203.859 139.804 203.646C140.269 203.433 140.788 203.326 141.364 203.326C142.152 203.326 142.855 203.511 143.473 203.882C144.091 204.253 144.579 204.762 144.937 205.41C145.295 206.053 145.472 206.795 145.467 207.634C145.472 208.516 145.267 209.3 144.854 209.987C144.445 210.668 143.872 211.205 143.134 211.597C142.401 211.985 141.549 212.179 140.577 212.179ZM152.899 212.179C151.996 212.179 151.19 212.013 150.483 211.68C149.78 211.348 149.221 210.89 148.808 210.306C148.395 209.722 148.18 209.053 148.163 208.299H150.847C150.877 208.806 151.09 209.217 151.486 209.533C151.883 209.848 152.354 210.006 152.899 210.006C153.334 210.006 153.717 209.91 154.05 209.718C154.386 209.522 154.648 209.251 154.836 208.906C155.028 208.557 155.123 208.156 155.123 207.705C155.123 207.244 155.025 206.839 154.829 206.49C154.638 206.141 154.371 205.868 154.03 205.672C153.69 205.476 153.3 205.376 152.861 205.371C152.477 205.371 152.104 205.45 151.742 205.608C151.384 205.766 151.105 205.981 150.905 206.254L148.444 205.812L149.064 198.909H157.067V201.172H151.346L151.007 204.451H151.084C151.314 204.127 151.661 203.859 152.126 203.646C152.59 203.433 153.11 203.326 153.685 203.326C154.474 203.326 155.177 203.511 155.795 203.882C156.413 204.253 156.9 204.762 157.258 205.41C157.616 206.053 157.793 206.795 157.789 207.634C157.793 208.516 157.589 209.3 157.175 209.987C156.766 210.668 156.193 211.205 155.456 211.597C154.723 211.985 153.871 212.179 152.899 212.179ZM165.221 212.179C164.317 212.179 163.512 212.013 162.804 211.68C162.101 211.348 161.543 210.89 161.13 210.306C160.716 209.722 160.501 209.053 160.484 208.299H163.169C163.199 208.806 163.412 209.217 163.808 209.533C164.204 209.848 164.675 210.006 165.221 210.006C165.655 210.006 166.039 209.91 166.371 209.718C166.708 209.522 166.97 209.251 167.157 208.906C167.349 208.557 167.445 208.156 167.445 207.705C167.445 207.244 167.347 206.839 167.151 206.49C166.959 206.141 166.693 205.868 166.352 205.672C166.011 205.476 165.621 205.376 165.182 205.371C164.799 205.371 164.426 205.45 164.064 205.608C163.706 205.766 163.427 205.981 163.226 206.254L160.765 205.812L161.385 198.909H169.388V201.172H163.667L163.329 204.451H163.405C163.635 204.127 163.983 203.859 164.447 203.646C164.912 203.433 165.432 203.326 166.007 203.326C166.795 203.326 167.498 203.511 168.116 203.882C168.734 204.253 169.222 204.762 169.58 205.41C169.938 206.053 170.115 206.795 170.111 207.634C170.115 208.516 169.91 209.3 169.497 209.987C169.088 210.668 168.515 211.205 167.777 211.597C167.044 211.985 166.192 212.179 165.221 212.179ZM177.542 212.179C176.639 212.179 175.833 212.013 175.126 211.68C174.423 211.348 173.865 210.89 173.451 210.306C173.038 209.722 172.823 209.053 172.806 208.299H175.49C175.52 208.806 175.733 209.217 176.13 209.533C176.526 209.848 176.997 210.006 177.542 210.006C177.977 210.006 178.36 209.91 178.693 209.718C179.029 209.522 179.291 209.251 179.479 208.906C179.671 208.557 179.767 208.156 179.767 207.705C179.767 207.244 179.669 206.839 179.473 206.49C179.281 206.141 179.014 205.868 178.674 205.672C178.333 205.476 177.943 205.376 177.504 205.371C177.12 205.371 176.747 205.45 176.385 205.608C176.027 205.766 175.748 205.981 175.548 206.254L173.087 205.812L173.707 198.909H181.71V201.172H175.989L175.65 204.451H175.727C175.957 204.127 176.304 203.859 176.769 203.646C177.233 203.433 177.753 203.326 178.328 203.326C179.117 203.326 179.82 203.511 180.438 203.882C181.056 204.253 181.544 204.762 181.902 205.41C182.26 206.053 182.436 206.795 182.432 207.634C182.436 208.516 182.232 209.3 181.818 209.987C181.409 210.668 180.836 211.205 180.099 211.597C179.366 211.985 178.514 212.179 177.542 212.179ZM189.77 209.699V207.519L195.236 198.909H197.115V201.926H196.003L192.557 207.379V207.481H200.324V209.699H189.77ZM196.054 212V209.034L196.105 208.069V198.909H198.7V212H196.054ZM202.69 209.699V207.519L208.155 198.909H210.034V201.926H208.922L205.477 207.379V207.481H213.243V209.699H202.69ZM208.973 212V209.034L209.024 208.069V198.909H211.619V212H208.973ZM215.609 209.699V207.519L221.074 198.909H222.953V201.926H221.841L218.396 207.379V207.481H226.162V209.699H215.609ZM221.892 212V209.034L221.943 208.069V198.909H224.538V212H221.892ZM228.528 209.699V207.519L233.993 198.909H235.872V201.926H234.76L231.315 207.379V207.481H239.081V209.699H228.528ZM234.811 212V209.034L234.863 208.069V198.909H237.458V212H234.811Z" fill="white"/>
</g>
</g>
<g clip-path="url(#clip0_18_515)">
<path d="M406.33 27H400.709L420.842 51.9808H426.479L416.411 39.4989L426.463 27.0189L420.842 27.0277L413.597 36.01L406.33 27ZM412.098 44.844L409.283 41.3501L400.693 52H406.33L412.098 44.844Z" fill="white"/>
<path fill-rule="evenodd" clip-rule="evenodd" d="M418.813 52L399.55 27H394.42V51.9896H398.524V32.3416L413.657 52H418.813Z" fill="white"/>
</g>
<path d="M82.8735 49.0485L85.4277 30.3747H89.5116L86.9567 49.0485H82.8735ZM101.693 30.7844C100.521 30.2553 99.2831 29.9898 98.0365 30.0003C94.0061 30.0003 91.1668 32.5299 91.1423 36.156C91.1201 38.8361 93.1697 40.3309 94.7171 41.2227C96.3049 42.1373 96.8386 42.7204 96.8309 43.5369C96.821 44.7869 95.5626 45.3576 94.3907 45.3576C92.7577 45.3576 91.8907 45.0718 90.5506 44.3792L90.0254 44.0828L89.4527 48.2578C90.4053 48.778 92.1675 49.2296 93.9962 49.2524C98.2842 49.2524 101.068 46.7524 101.1 42.8805C101.115 40.7587 100.03 39.1438 97.6749 37.8128C96.2492 36.9553 95.3761 36.3742 95.3853 35.5005C95.3853 34.7259 96.1245 33.8971 97.7216 33.8971C98.7679 33.8679 99.8077 34.1113 100.774 34.6116L101.14 34.8269L101.693 30.7844ZM112.185 30.3747H109.043C108.07 30.3747 107.341 30.7063 106.914 31.9163L100.874 48.9533H105.173C105.173 48.9533 105.861 46.6876 106.019 46.1903L111.17 46.1979C111.29 46.842 111.659 48.9533 111.659 48.9533H115.476L112.185 30.3747ZM107.189 42.3793C107.526 41.3046 108.814 37.1659 108.814 37.1659C108.79 37.2154 109.149 36.0855 109.355 35.3852L109.631 36.9935C109.631 36.9935 110.412 41.4456 110.575 42.3793H107.189ZM79.408 30.3747L75.4235 43.0644L74.9991 40.4853C74.2576 37.5127 71.9465 34.2924 69.3625 32.6804L73.0061 48.9533L77.3117 48.9475L83.719 30.3747H79.3881" fill="url(#paint1_linear_18_515)"/>
<path d="M71.5255 30.3744H64.976L64.9233 30.7622C70.0408 32.3066 73.4268 36.0375 74.8327 40.5192L73.4023 31.9445C73.1554 30.7641 72.4398 30.4116 71.5538 30.3706" fill="url(#paint2_linear_18_515)"/>
<g opacity="0.7">
<rect x="24.7" y="24.7" width="33.9063" height="29.6" rx="6.55" fill="white" fill-opacity="0.26" stroke="black" stroke-width="1.4"/>
<path d="M24.5517 33.5361H32.5116C34.5136 33.5361 36.1366 35.1591 36.1366 37.1611V41.0061M36.1366 54.3885V48.4761M36.1366 48.4761V41.0061M36.1366 48.4761H24.5517M36.1366 41.0061H24.5517" stroke="black" stroke-width="1.4"/>
<path d="M58.7545 33.5361H47.7213M47.7213 33.5361V41.0061M47.7213 33.5361V24.6357M47.7213 54.3885V48.4761M47.7213 48.4761V41.0061M47.7213 48.4761H58.7545M47.7213 41.0061H58.7545" stroke="black" stroke-width="1.4"/>
</g>
<defs>
<filter id="filter0_d_18_515" x="-79.3588" y="67.8164" width="162" height="80.7014" filterUnits="userSpaceOnUse" color-interpolation-filters="sRGB">
<feFlood flood-opacity="0" result="BackgroundImageFix"/>
<feColorMatrix in="SourceAlpha" type="matrix" values="0 0 0 0 0 0 0 0 0 0 0 0 0 0 0 0 0 0 127 0" result="hardAlpha"/>
<feOffset dx="8" dy="8"/>
<feGaussianBlur stdDeviation="2"/>
<feComposite in2="hardAlpha" operator="out"/>
<feColorMatrix type="matrix" values="0 0 0 0 0 0 0 0 0 0 0 0 0 0 0 0 0 0 0.5 0"/>
<feBlend mode="normal" in2="BackgroundImageFix" result="effect1_dropShadow_18_515"/>
<feBlend mode="normal" in="SourceGraphic" in2="effect1_dropShadow_18_515" result="shape"/>
</filter>
<filter id="filter1_d_18_515" x="207" y="41" width="132" height="111" filterUnits="userSpaceOnUse" color-interpolation-filters="sRGB">
<feFlood flood-opacity="0" result="BackgroundImageFix"/>
<feColorMatrix in="SourceAlpha" type="matrix" values="0 0 0 0 0 0 0 0 0 0 0 0 0 0 0 0 0 0 127 0" result="hardAlpha"/>
<feOffset dx="8" dy="8"/>
<feGaussianBlur stdDeviation="2"/>
<feComposite in2="hardAlpha" operator="out"/>
<feColorMatrix type="matrix" values="0 0 0 0 0 0 0 0 0 0 0 0 0 0 0 0 0 0 0.5 0"/>
<feBlend mode="normal" in2="BackgroundImageFix" result="effect1_dropShadow_18_515"/>
<feBlend mode="normal" in="SourceGraphic" in2="effect1_dropShadow_18_515" result="shape"/>
</filter>
<filter id="filter2_d_18_515" x="362.805" y="140.312" width="162" height="80.7014" filterUnits="userSpaceOnUse" color-interpolation-filters="sRGB">
<feFlood flood-opacity="0" result="BackgroundImageFix"/>
<feColorMatrix in="SourceAlpha" type="matrix" values="0 0 0 0 0 0 0 0 0 0 0 0 0 0 0 0 0 0 127 0" result="hardAlpha"/>
<feOffset dx="-8" dy="8"/>
<feGaussianBlur stdDeviation="2"/>
<feComposite in2="hardAlpha" operator="out"/>
<feColorMatrix type="matrix" values="0 0 0 0 0 0 0 0 0 0 0 0 0 0 0 0 0 0 0.5 0"/>
<feBlend mode="normal" in2="BackgroundImageFix" result="effect1_dropShadow_18_515"/>
<feBlend mode="normal" in="SourceGraphic" in2="effect1_dropShadow_18_515" result="shape"/>
</filter>
<filter id="filter3_d_18_515" x="21.1506" y="243.909" width="108.956" height="15.3635" filterUnits="userSpaceOnUse" color-interpolation-filters="sRGB">
<feFlood flood-opacity="0" result="BackgroundImageFix"/>
<feColorMatrix in="SourceAlpha" type="matrix" values="0 0 0 0 0 0 0 0 0 0 0 0 0 0 0 0 0 0 127 0" result="hardAlpha"/>
<feOffset dy="4"/>
<feGaussianBlur stdDeviation="2"/>
<feComposite in2="hardAlpha" operator="out"/>
<feColorMatrix type="matrix" values="0 0 0 0 0.3625 0 0 0 0 0.3625 0 0 0 0 0.3625 0 0 0 0.25 0"/>
<feBlend mode="normal" in2="BackgroundImageFix" result="effect1_dropShadow_18_515"/>
<feBlend mode="normal" in="SourceGraphic" in2="effect1_dropShadow_18_515" result="shape"/>
</filter>
<filter id="filter4_d_18_515" x="367.016" y="245.295" width="58.4636" height="23.6733" filterUnits="userSpaceOnUse" color-interpolation-filters="sRGB">
<feFlood flood-opacity="0" result="BackgroundImageFix"/>
<feColorMatrix in="SourceAlpha" type="matrix" values="0 0 0 0 0 0 0 0 0 0 0 0 0 0 0 0 0 0 127 0" result="hardAlpha"/>
<feOffset dy="4"/>
<feGaussianBlur stdDeviation="2"/>
<feComposite in2="hardAlpha" operator="out"/>
<feColorMatrix type="matrix" values="0 0 0 0 0.3625 0 0 0 0 0.3625 0 0 0 0 0.3625 0 0 0 0.25 0"/>
<feBlend mode="normal" in2="BackgroundImageFix" result="effect1_dropShadow_18_515"/>
<feBlend mode="normal" in="SourceGraphic" in2="effect1_dropShadow_18_515" result="shape"/>
</filter>
<filter id="filter5_i_18_515" x="25.1058" y="198.909" width="213.975" height="17.8515" filterUnits="userSpaceOnUse" color-interpolation-filters="sRGB">
<feFlood flood-opacity="0" result="BackgroundImageFix"/>
<feBlend mode="normal" in="SourceGraphic" in2="BackgroundImageFix" result="shape"/>
<feColorMatrix in="SourceAlpha" type="matrix" values="0 0 0 0 0 0 0 0 0 0 0 0 0 0 0 0 0 0 127 0" result="hardAlpha"/>
<feOffset dy="4.58177"/>
<feGaussianBlur stdDeviation="2.29088"/>
<feComposite in2="hardAlpha" operator="arithmetic" k2="-1" k3="1"/>
<feColorMatrix type="matrix" values="0 0 0 0 0.916667 0 0 0 0 0.916667 0 0 0 0 0.916667 0 0 0 0.25 0"/>
<feBlend mode="normal" in2="shape" result="effect1_innerShadow_18_515"/>
</filter>
<linearGradient id="paint0_linear_18_515" x1="0.123751" y1="125.102" x2="450.024" y2="143.926" gradientUnits="userSpaceOnUse">
<stop offset="0.00638632" stop-color="#3A3A3A" stop-opacity="0.32"/>
<stop offset="1" stop-color="#323232" stop-opacity="0.37"/>
</linearGradient>
<linearGradient id="paint1_linear_18_515" x1="92.419" y1="30" x2="92.419" y2="49.2524" gradientUnits="userSpaceOnUse">
<stop stop-color="white"/>
<stop offset="1" stop-color="white" stop-opacity="0.75"/>
</linearGradient>
<linearGradient id="paint2_linear_18_515" x1="69.878" y1="30.3706" x2="69.878" y2="40.5192" gradientUnits="userSpaceOnUse">
<stop stop-color="white"/>
<stop offset="1" stop-color="white" stop-opacity="0.75"/>
</linearGradient>
<clipPath id="clip0_18_515">
<rect width="31.5795" height="25" fill="white" transform="translate(394.42 27)"/>
</clipPath>
</defs>
</svg>
