<svg width="60" height="61" viewBox="0 0 60 61" fill="none" xmlns="http://www.w3.org/2000/svg">
<path d="M6.77735 29.0882L6.7764 29.091C5.59498 32.5841 5.00049 35.9598 5.00049 39.2157V48.3237C5.00049 49.7044 6.11978 50.8237 7.50049 50.8237H18.7694C20.1501 50.8237 21.2694 49.7044 21.2694 48.3237L21.2694 39.1068L21.2693 39.1026C21.2345 34.9487 21.8968 31.166 23.2485 27.7483C24.41 24.8555 25.8002 22.0614 27.4193 19.3657C28.1143 18.2086 27.8102 16.6863 26.6697 15.9263L20.643 11.9104C19.7279 11.3005 18.4984 11.3491 17.6652 12.1088C15.4942 14.0882 13.5102 16.4256 11.7118 19.1178L11.7111 19.1189C9.63778 22.2396 7.99299 25.563 6.77735 29.0882ZM33.6569 29.0882L33.656 29.091C32.4745 32.5841 31.8801 35.9598 31.8801 39.2157V48.3237C31.8801 49.7044 32.9993 50.8237 34.3801 50.8237H45.6489C47.0296 50.8237 48.1489 49.7044 48.1489 48.3237L48.1489 39.1068L48.1489 39.1026C48.114 34.9488 48.7763 31.1664 50.1279 27.7488C51.2895 24.8558 52.6797 22.0615 54.2988 19.3657C54.9938 18.2086 54.6898 16.6863 53.5493 15.9263L47.5226 11.9104C46.6074 11.3005 45.378 11.3491 44.5447 12.1088C42.3738 14.0882 40.3898 16.4256 38.5914 19.1178L38.5907 19.1189C36.5173 22.2396 34.8726 25.563 33.6569 29.0882Z" fill="url(#paint0_linear_91_102)" stroke="#191919"/>
<defs>
<linearGradient id="paint0_linear_91_102" x1="30.2064" y1="11.5002" x2="30.2064" y2="50.3237" gradientUnits="userSpaceOnUse">
<stop stop-color="#191919"/>
<stop offset="1" stop-color="white"/>
</linearGradient>
</defs>
</svg>
