<svg xmlns="http://www.w3.org/2000/svg" width="40" height="41" fill="none"><path fill="#fff" d="M22.483 22.8h-4.15c-.5 0-.9.4-.9.9s.4.9.9.9h4.15c.5 0 .9-.4.9-.9s-.4-.9-.9-.9M15.733 22.8H13.65c-.5 0-.9.4-.9.9s.4.9.9.9h2.083c.5 0 .9-.4.9-.9s-.4-.9-.9-.9"/><path fill="#fff" d="M30.9 7.533 21.733 4.1c-.95-.35-2.5-.35-3.45 0L9.117 7.533c-1.767.667-3.2 2.734-3.2 4.617v13.5c0 1.35.883 3.133 1.966 3.933l9.167 6.85c1.617 1.217 4.267 1.217 5.883 0l9.167-6.85c1.083-.816 1.967-2.583 1.967-3.933v-13.5c.016-1.883-1.417-3.95-3.167-4.617m-.617 15.717c-.033 3.45-.983 4.317-4.566 4.317H14.3c-3.65 0-4.567-.9-4.567-4.517v-3.883c0-.467.367-.834.834-.834H29.45c.467 0 .833.367.833.834zm0-7.567a.825.825 0 0 1-.833.834H10.567a.825.825 0 0 1-.834-.834v-1.066c0-3.267.767-4.317 3.617-4.5.3 0 .617-.017.95-.017h11.417c3.65 0 4.566.9 4.566 4.517z"/></svg>