<svg xmlns="http://www.w3.org/2000/svg" width="40" height="40" fill="none"><path fill="#fff" d="M8.333 25c-1.7 0-3.266.65-4.45 1.717a5.3 5.3 0 0 0-.733.766 6.6 6.6 0 0 0-1.483 4.184c0 3.683 3 6.666 6.666 6.666 1.6 0 3.05-.566 4.2-1.483.934-.783 1.667-1.8 2.067-2.967.267-.683.4-1.433.4-2.216C15 28 12.017 25 8.333 25m4 5.383a.81.81 0 0 1-.816.817.807.807 0 0 1-.817-.817v-.166c0-.184-.133-.334-.317-.334H7.05a.81.81 0 0 1-.133.967.8.8 0 0 1-.584.233.82.82 0 0 1-.566-.233l-1.2-1.2a1 1 0 0 1-.184-.267.98.98 0 0 1 0-.616c.05-.084.1-.2.184-.267l1.2-1.183a.767.767 0 0 1 1.133 0c.267.25.3.65.133.95h3.35c1.067 0 1.934.866 1.934 1.95v.166zm-2 5.884c-.216 0-.433-.067-.583-.234a.785.785 0 0 1-.133-.95h-3.35a1.94 1.94 0 0 1-1.934-1.95v-.166c0-.467.367-.817.817-.817s.817.35.817.817v.166c0 .184.133.334.316.334h3.35a.81.81 0 0 1 .134-.967.795.795 0 0 1 1.133 0l1.2 1.2c.067.067.133.167.183.267.067.2.067.416 0 .616-.05.084-.116.184-.183.25l-1.2 1.184a.77.77 0 0 1-.567.25M24.75 6.583v6.334h-2.5V6.583c0-.45-.4-.666-.667-.666a.7.7 0 0 0-.25.05L8.117 10.95a2.24 2.24 0 0 0-1.45 2.117v1.116a6.23 6.23 0 0 0-2.5 5v-6.116a4.75 4.75 0 0 1 3.066-4.45l13.234-5c.366-.134.75-.2 1.116-.2 1.667 0 3.167 1.35 3.167 3.166M35.833 24.167v1.666c0 .45-.35.817-.816.834h-2.434c-.883 0-1.683-.65-1.75-1.517-.05-.517.15-1 .484-1.333.3-.317.716-.484 1.166-.484H35c.483.017.833.384.833.834"/><path fill="#fff" d="M32.467 21.583h1.7c.916 0 1.666-.75 1.666-1.666v-.734c0-3.45-2.816-6.266-6.266-6.266H10.433a6.18 6.18 0 0 0-3.766 1.266 6.23 6.23 0 0 0-2.5 5v2.967c0 .633.666 1.033 1.266.833a9 9 0 0 1 2.9-.483c5.05 0 9.167 4.117 9.167 9.167 0 1.2-.317 2.516-.817 3.683-.266.6.15 1.317.8 1.317h12.084c3.45 0 6.266-2.817 6.266-6.267v-.317c0-.916-.75-1.666-1.666-1.666h-1.45c-1.6 0-3.134-.984-3.55-2.534-.334-1.266.066-2.5.9-3.3.616-.633 1.466-1 2.4-1m-9.134-.333H15A1.26 1.26 0 0 1 13.75 20c0-.683.567-1.25 1.25-1.25h8.333c.684 0 1.25.567 1.25 1.25a1.26 1.26 0 0 1-1.25 1.25"/></svg>