<svg xmlns="http://www.w3.org/2000/svg" width="41" height="40" fill="none"><path fill="#fff" d="M8.833 25c-1.566 0-3.016.55-4.166 1.467a6.62 6.62 0 0 0-2.5 5.2 6.665 6.665 0 0 0 6.666 6.666 6.67 6.67 0 0 0 4.4-1.666 6.64 6.64 0 0 0 2.267-5A6.665 6.665 0 0 0 8.833 25m1.667 7.083c0 .434-.233.85-.6 1.067L7.817 34.4c-.2.133-.434.183-.65.183-.417 0-.834-.216-1.067-.6-.35-.6-.167-1.366.433-1.716l1.484-.884v-1.8a1.234 1.234 0 0 1 1.233-1.25c.683 0 1.25.567 1.25 1.25zM25.25 6.583v6.334h-2.5V6.583c0-.45-.4-.666-.667-.666a.7.7 0 0 0-.25.05L8.617 10.95a2.24 2.24 0 0 0-1.45 2.117v1.116a6.23 6.23 0 0 0-2.5 5v-6.116a4.75 4.75 0 0 1 3.066-4.45l13.234-5c.366-.134.75-.2 1.116-.2 1.667 0 3.167 1.35 3.167 3.166M36.333 24.167v1.666c0 .45-.35.817-.816.834h-2.434c-.883 0-1.683-.65-1.75-1.517-.05-.517.15-1 .484-1.333.3-.317.716-.484 1.166-.484H35.5c.483.017.833.384.833.834"/><path fill="#fff" d="M32.967 21.583h1.7c.916 0 1.666-.75 1.666-1.666v-.734c0-3.45-2.816-6.266-6.266-6.266H10.933a6.18 6.18 0 0 0-3.766 1.266 6.23 6.23 0 0 0-2.5 5v2.967c0 .633.666 1.033 1.266.833a9 9 0 0 1 2.9-.483c5.05 0 9.167 4.117 9.167 9.167 0 1.2-.317 2.516-.817 3.683-.266.6.15 1.317.8 1.317h12.084c3.45 0 6.266-2.817 6.266-6.267v-.317c0-.916-.75-1.666-1.666-1.666h-1.45c-1.6 0-3.134-.984-3.55-2.534-.334-1.266.066-2.5.9-3.3.616-.633 1.466-1 2.4-1m-9.134-.333H15.5A1.26 1.26 0 0 1 14.25 20c0-.683.567-1.25 1.25-1.25h8.333c.684 0 1.25.567 1.25 1.25a1.26 1.26 0 0 1-1.25 1.25"/></svg>