<svg xmlns="http://www.w3.org/2000/svg" width="41" height="40" fill="none"><path fill="#fff" fill-rule="evenodd" d="M14.25 8.333a4.583 4.583 0 0 1 4.583-4.583h3.334a4.583 4.583 0 0 1 4.583 4.583v3.334c0 .69-.56 1.25-1.25 1.25h-10c-.69 0-1.25-.56-1.25-1.25zm4.583-2.083c-1.15 0-2.083.933-2.083 2.083v2.084h7.5V8.333c0-1.15-.933-2.083-2.083-2.083z" clip-rule="evenodd"/><path fill="#fff" fill-rule="evenodd" d="M11.312 8.215c.21-.101.444.06.444.293l-.006 3.159a3.75 3.75 0 0 0 3.75 3.75h10a3.75 3.75 0 0 0 3.75-3.75v-3.16c0-.233.234-.394.444-.293A5.83 5.83 0 0 1 33 13.476v17.482a5.65 5.65 0 0 1-4.953 5.609 61 61 0 0 1-15.094 0A5.65 5.65 0 0 1 8 30.958V13.476a5.84 5.84 0 0 1 3.312-5.261M25.5 20a1.25 1.25 0 1 1 0 2.5h-10a1.25 1.25 0 1 1 0-2.5zm-1.667 5a1.25 1.25 0 1 1 0 2.5H15.5a1.25 1.25 0 1 1 0-2.5z" clip-rule="evenodd"/></svg>