<svg xmlns="http://www.w3.org/2000/svg" width="40" height="40" fill="none"><path fill="#fff" fill-rule="evenodd" d="M17.84 5.865a2.42 2.42 0 0 0-2.334 1.823h8.971a2.42 2.42 0 0 0-2.334-1.823zm9.172 1.823h3.301c3.502 0 6.354 2.886 6.354 6.43 0 0-.1 1.5-.134 3.59a.55.55 0 0 1-.215.425 29 29 0 0 1-1.602 1.116c-2.768 1.856-5.985 3.163-9.412 3.812a.53.53 0 0 1-.557-.271 5.5 5.5 0 0 0-4.755-2.748 5.59 5.59 0 0 0-4.788 2.738.53.53 0 0 1-.553.266c-3.399-.651-6.615-1.956-9.367-3.78l-1.6-1.114a.48.48 0 0 1-.217-.405c-.05-.861-.134-3.629-.134-3.629 0-3.544 2.852-6.43 6.353-6.43h3.285c.317-2.448 2.368-4.355 4.87-4.355h4.302c2.5 0 4.552 1.907 4.869 4.355m9.088 13.67-.067.034c-3.368 2.262-7.42 3.764-11.673 4.389-.6.084-1.2-.304-1.367-.912-.367-1.384-1.55-2.295-2.968-2.295h-.05c-1.418 0-2.601.911-2.968 2.295a1.256 1.256 0 0 1-1.368.912c-4.252-.625-8.304-2.127-11.672-4.389-.017-.017-.184-.118-.317-.033-.15.084-.15.287-.15.287l.117 8.607c0 3.544 2.834 6.414 6.336 6.414H30.03c3.502 0 6.336-2.87 6.336-6.414l.134-8.607s0-.203-.15-.287c-.084-.051-.184-.034-.25 0M21.242 28.43c0 .71-.55 1.266-1.25 1.266-.684 0-1.251-.557-1.251-1.266v-2.177c0-.692.567-1.266 1.25-1.266.7 0 1.251.574 1.251 1.266z" clip-rule="evenodd"/></svg>