<svg xmlns="http://www.w3.org/2000/svg" width="41" height="40" fill="none"><path fill="#fff" d="M25.867 10.917H10.133c-.466 0-.9.016-1.3.033-3.95.233-5 1.683-5 6.183v.967c0 .917.75 1.667 1.667 1.667h25c.917 0 1.667-.75 1.667-1.667v-.967c0-4.966-1.267-6.216-6.3-6.216M5.5 22.267c-.917 0-1.666.75-1.666 1.666v4.85C3.834 33.75 5.1 35 10.134 35h15.733c4.95 0 6.25-1.2 6.3-5.95v-5.117c0-.916-.75-1.666-1.667-1.666zm6.6 8.666H9.25A1.26 1.26 0 0 1 8 29.683c0-.683.567-1.25 1.25-1.25h2.867c.683 0 1.25.567 1.25 1.25 0 .684-.567 1.25-1.267 1.25m9.317 0h-5.734a1.26 1.26 0 0 1-1.25-1.25c0-.683.567-1.25 1.25-1.25h5.734c.683 0 1.25.567 1.25 1.25 0 .684-.55 1.25-1.25 1.25"/><path fill="#fff" d="M37.167 22.217v-8.734C37.167 8.267 34.183 6 29.683 6H14.8c-1.267 0-2.4.183-3.4.567-.783.283-1.483.7-2.05 1.25-.3.283-.067.75.367.75h18.116a6.78 6.78 0 0 1 6.784 6.783V27.3c0 .417.45.65.75.35 1.15-1.217 1.8-3 1.8-5.433"/></svg>