<svg width="450" height="289" viewBox="0 0 450 289" fill="none" xmlns="http://www.w3.org/2000/svg">
<rect x="1.12375" y="1" width="447.876" height="287" rx="29" fill="white" stroke="url(#paint0_linear_18_516)" stroke-width="2"/>
<mask id="mask0_18_516" style="mask-type:alpha" maskUnits="userSpaceOnUse" x="0" y="0" width="450" height="289">
<rect width="450" height="289" rx="30" fill="white"/>
</mask>
<g mask="url(#mask0_18_516)">
<g filter="url(#filter0_d_18_516)">
<rect x="-51.8483" y="67.8164" width="103.955" height="31.9977" rx="15.9989" fill="black"/>
<rect x="-79.3588" y="89.7891" width="150" height="46.7287" rx="23.3643" fill="black"/>
</g>
<g filter="url(#filter1_d_18_516)">
<rect x="402.315" y="140.312" width="103.955" height="31.9977" rx="15.9989" fill="black"/>
<rect x="374.805" y="162.285" width="150" height="46.7287" rx="23.3643" fill="black"/>
</g>
<g filter="url(#filter2_dii_18_516)">
<g filter="url(#filter3_d_18_516)">
<ellipse cx="273.577" cy="80.5" rx="27.8207" ry="27.855" fill="url(#paint1_radial_18_516)"/>
</g>
<g filter="url(#filter4_d_18_516)">
<rect x="271.958" y="18.7717" width="3.31382" height="24.8237" fill="black"/>
<ellipse cx="273.615" cy="43.63" rx="1.65691" ry="0.836287" fill="black"/>
<rect width="3.31382" height="24.8237" transform="matrix(-1 0 0 1 275.272 18.7717)" fill="url(#paint2_radial_18_516)" fill-opacity="0.5"/>
<ellipse cx="273.615" cy="18.8363" rx="1.65691" ry="0.836287" fill="black"/>
</g>
<g filter="url(#filter5_d_18_516)">
<rect x="271.958" y="117.305" width="3.31382" height="24.824" fill="black"/>
<ellipse cx="273.615" cy="142.164" rx="1.65691" ry="0.836295" fill="black"/>
<rect width="3.31382" height="24.824" transform="matrix(-1 0 0 1 275.272 117.305)" fill="url(#paint3_radial_18_516)" fill-opacity="0.5"/>
<ellipse cx="273.615" cy="117.37" rx="1.65691" ry="0.836295" fill="black"/>
</g>
<g filter="url(#filter6_d_18_516)">
<rect width="3.31611" height="24.8067" transform="matrix(0.661508 -0.749938 0.749129 0.662424 297.043 109.346)" fill="black"/>
<ellipse cx="1.65806" cy="0.835713" rx="1.65806" ry="0.835713" transform="matrix(0.661508 -0.749938 0.749129 0.662424 315.026 125.248)" fill="black"/>
<rect width="3.31611" height="24.8067" transform="matrix(-0.661508 0.749938 0.749129 0.662424 299.237 106.859)" fill="url(#paint4_radial_18_516)" fill-opacity="0.5"/>
<ellipse cx="1.65806" cy="0.835713" rx="1.65806" ry="0.835713" transform="matrix(0.661508 -0.749938 0.749129 0.662424 296.466 108.835)" fill="black"/>
</g>
<g filter="url(#filter7_d_18_516)">
<rect width="3.31611" height="24.8067" transform="matrix(0.661508 -0.749938 0.749129 0.662424 229.534 37.4336)" fill="black"/>
<ellipse cx="1.65806" cy="0.835713" rx="1.65806" ry="0.835713" transform="matrix(0.661508 -0.749938 0.749129 0.662424 247.517 53.3352)" fill="black"/>
<rect width="3.31611" height="24.8067" transform="matrix(-0.661508 0.749938 0.749129 0.662424 231.728 34.9465)" fill="url(#paint5_radial_18_516)" fill-opacity="0.5"/>
<ellipse cx="1.65806" cy="0.835713" rx="1.65806" ry="0.835713" transform="matrix(0.661508 -0.749938 0.749129 0.662424 228.957 36.9226)" fill="black"/>
</g>
<g filter="url(#filter8_d_18_516)">
<rect width="3.31611" height="24.8067" transform="matrix(0.661508 0.749938 -0.749129 0.662424 316.348 35.4863)" fill="black"/>
<ellipse cx="1.65806" cy="0.835713" rx="1.65806" ry="0.835713" transform="matrix(0.661508 0.749938 -0.749129 0.662424 298.365 51.3879)" fill="black"/>
<rect width="3.31611" height="24.8067" transform="matrix(-0.661508 -0.749938 -0.749129 0.662424 318.541 37.9731)" fill="url(#paint6_radial_18_516)" fill-opacity="0.5"/>
<ellipse cx="1.65806" cy="0.835713" rx="1.65806" ry="0.835713" transform="matrix(0.661508 0.749938 -0.749129 0.662424 316.925 34.9751)" fill="black"/>
</g>
<g filter="url(#filter9_d_18_516)">
<rect width="3.31611" height="24.8067" transform="matrix(0.661508 0.749938 -0.749129 0.662424 247.759 106.706)" fill="black"/>
<ellipse cx="1.65806" cy="0.835713" rx="1.65806" ry="0.835713" transform="matrix(0.661508 0.749938 -0.749129 0.662424 229.776 122.607)" fill="black"/>
<rect width="3.31611" height="24.8067" transform="matrix(-0.661508 -0.749938 -0.749129 0.662424 249.953 109.192)" fill="url(#paint7_radial_18_516)" fill-opacity="0.5"/>
<ellipse cx="1.65806" cy="0.835713" rx="1.65806" ry="0.835713" transform="matrix(0.661508 0.749938 -0.749129 0.662424 248.337 106.194)" fill="black"/>
</g>
<g filter="url(#filter10_d_18_516)">
<rect x="211.77" y="82.1196" width="3.3179" height="24.7933" transform="rotate(-90 211.77 82.1196)" fill="black"/>
<ellipse cx="236.598" cy="80.4607" rx="1.65895" ry="0.835264" transform="rotate(-90 236.598 80.4607)" fill="black"/>
<rect width="3.3179" height="24.7933" transform="matrix(0 1 1 0 211.77 78.8018)" fill="url(#paint8_radial_18_516)" fill-opacity="0.5"/>
<ellipse cx="211.835" cy="80.4609" rx="1.65895" ry="0.835264" transform="rotate(-90 211.835 80.4609)" fill="black"/>
</g>
<g filter="url(#filter11_d_18_516)">
<rect x="310.337" y="82.1196" width="3.3179" height="24.7933" transform="rotate(-90 310.337 82.1196)" fill="black"/>
<ellipse cx="335.165" cy="80.4607" rx="1.65895" ry="0.835263" transform="rotate(-90 335.165 80.4607)" fill="black"/>
<rect width="3.3179" height="24.7933" transform="matrix(0 1 1 0 310.337 78.8018)" fill="url(#paint9_radial_18_516)" fill-opacity="0.5"/>
<ellipse cx="310.402" cy="80.4609" rx="1.65895" ry="0.835263" transform="rotate(-90 310.402 80.4609)" fill="black"/>
</g>
</g>
<g filter="url(#filter12_d_18_516)">
<path d="M28.0014 251.273L28.1229 248.575L25.8473 250.039L25.1506 248.825L27.5668 247.591L25.1506 246.357L25.8473 245.143L28.1229 246.607L28.0014 243.909H29.3885L29.267 246.607L31.5426 245.143L32.2393 246.357L29.8232 247.591L32.2393 248.825L31.5426 250.039L29.267 248.575L29.3885 251.273H28.0014ZM37.3881 251.273L37.5096 248.575L35.234 250.039L34.5373 248.825L36.9535 247.591L34.5373 246.357L35.234 245.143L37.5096 246.607L37.3881 243.909H38.7752L38.6538 246.607L40.9293 245.143L41.6261 246.357L39.2099 247.591L41.6261 248.825L40.9293 250.039L38.6538 248.575L38.7752 251.273H37.3881ZM46.7749 251.273L46.8963 248.575L44.6207 250.039L43.924 248.825L46.3402 247.591L43.924 246.357L44.6207 245.143L46.8963 246.607L46.7749 243.909H48.1619L48.0405 246.607L50.3161 245.143L51.0128 246.357L48.5966 247.591L51.0128 248.825L50.3161 250.039L48.0405 248.575L48.1619 251.273H46.7749ZM56.1616 251.273L56.283 248.575L54.0075 250.039L53.3107 248.825L55.7269 247.591L53.3107 246.357L54.0075 245.143L56.283 246.607L56.1616 243.909H57.5487L57.4272 246.607L59.7028 245.143L60.3995 246.357L57.9833 247.591L60.3995 248.825L59.7028 250.039L57.4272 248.575L57.5487 251.273H56.1616ZM65.5483 251.273L65.6697 248.575L63.3942 250.039L62.6974 248.825L65.1136 247.591L62.6974 246.357L63.3942 245.143L65.6697 246.607L65.5483 243.909H66.9354L66.8139 246.607L69.0895 245.143L69.7862 246.357L67.37 247.591L69.7862 248.825L69.0895 250.039L66.8139 248.575L66.9354 251.273H65.5483ZM74.935 251.273L75.0565 248.575L72.7809 250.039L72.0842 248.825L74.5004 247.591L72.0842 246.357L72.7809 245.143L75.0565 246.607L74.935 243.909H76.3221L76.2006 246.607L78.4762 245.143L79.1729 246.357L76.7567 247.591L79.1729 248.825L78.4762 250.039L76.2006 248.575L76.3221 251.273H74.935ZM84.3217 251.273L84.4432 248.575L82.1676 250.039L81.4709 248.825L83.8871 247.591L81.4709 246.357L82.1676 245.143L84.4432 246.607L84.3217 243.909H85.7088L85.5874 246.607L87.8629 245.143L88.5597 246.357L86.1435 247.591L88.5597 248.825L87.8629 250.039L85.5874 248.575L85.7088 251.273H84.3217ZM93.7085 251.273L93.8299 248.575L91.5543 250.039L90.8576 248.825L93.2738 247.591L90.8576 246.357L91.5543 245.143L93.8299 246.607L93.7085 243.909H95.0955L94.9741 246.607L97.2496 245.143L97.9464 246.357L95.5302 247.591L97.9464 248.825L97.2496 250.039L94.9741 248.575L95.0955 251.273H93.7085ZM103.095 251.273L103.217 248.575L100.941 250.039L100.244 248.825L102.661 247.591L100.244 246.357L100.941 245.143L103.217 246.607L103.095 243.909H104.482L104.361 246.607L106.636 245.143L107.333 246.357L104.917 247.591L107.333 248.825L106.636 250.039L104.361 248.575L104.482 251.273H103.095ZM112.482 251.273L112.603 248.575L110.328 250.039L109.631 248.825L112.047 247.591L109.631 246.357L110.328 245.143L112.603 246.607L112.482 243.909H113.869L113.748 246.607L116.023 245.143L116.72 246.357L114.304 247.591L116.72 248.825L116.023 250.039L113.748 248.575L113.869 251.273H112.482ZM121.869 251.273L121.99 248.575L119.714 250.039L119.018 248.825L121.434 247.591L119.018 246.357L119.714 245.143L121.99 246.607L121.869 243.909H123.256L123.134 246.607L125.41 245.143L126.107 246.357L123.69 247.591L126.107 248.825L125.41 250.039L123.134 248.575L123.256 251.273H121.869Z" fill="black"/>
</g>
<g filter="url(#filter13_d_18_516)">
<path d="M378.817 259.217C377.807 259.213 376.944 258.947 376.228 258.418C375.512 257.89 374.964 257.121 374.585 256.111C374.206 255.101 374.016 253.884 374.016 252.461C374.016 251.042 374.206 249.83 374.585 248.824C374.969 247.818 375.518 247.051 376.234 246.523C376.955 245.994 377.815 245.73 378.817 245.73C379.818 245.73 380.677 245.996 381.393 246.529C382.109 247.058 382.656 247.825 383.036 248.83C383.419 249.832 383.611 251.042 383.611 252.461C383.611 253.888 383.421 255.107 383.042 256.117C382.663 257.123 382.115 257.892 381.399 258.425C380.683 258.953 379.822 259.217 378.817 259.217ZM378.817 257.511C379.703 257.511 380.396 257.078 380.894 256.213C381.397 255.348 381.648 254.097 381.648 252.461C381.648 251.374 381.533 250.456 381.303 249.706C381.077 248.952 380.751 248.381 380.325 247.993C379.903 247.601 379.401 247.405 378.817 247.405C377.935 247.405 377.242 247.839 376.739 248.709C376.237 249.578 375.983 250.829 375.979 252.461C375.979 253.552 376.092 254.474 376.317 255.229C376.548 255.979 376.874 256.548 377.295 256.935C377.717 257.319 378.224 257.511 378.817 257.511ZM385.878 259V257.568L390.308 252.979C390.781 252.48 391.171 252.043 391.478 251.668C391.789 251.289 392.021 250.929 392.175 250.588C392.328 250.247 392.405 249.885 392.405 249.501C392.405 249.067 392.302 248.692 392.098 248.376C391.893 248.057 391.614 247.812 391.26 247.641C390.907 247.467 390.508 247.379 390.065 247.379C389.596 247.379 389.187 247.475 388.838 247.667C388.488 247.859 388.22 248.129 388.032 248.479C387.845 248.828 387.751 249.237 387.751 249.706H385.866C385.866 248.909 386.049 248.212 386.415 247.616C386.782 247.019 387.285 246.557 387.924 246.229C388.563 245.896 389.29 245.73 390.104 245.73C390.926 245.73 391.65 245.894 392.277 246.222C392.907 246.546 393.4 246.989 393.753 247.552C394.107 248.11 394.284 248.741 394.284 249.444C394.284 249.93 394.192 250.405 394.009 250.869C393.83 251.334 393.517 251.852 393.069 252.423C392.622 252.989 392 253.678 391.203 254.487L388.601 257.21V257.306H394.495V259H385.878ZM401.929 245.295L397.71 260.969H396.003L400.222 245.295H401.929ZM408.084 259.179C407.206 259.179 406.422 259.028 405.732 258.725C405.046 258.423 404.503 258.003 404.102 257.466C403.706 256.925 403.493 256.298 403.463 255.587H405.47C405.496 255.974 405.626 256.311 405.86 256.597C406.099 256.878 406.41 257.095 406.793 257.249C407.177 257.402 407.603 257.479 408.072 257.479C408.587 257.479 409.043 257.389 409.439 257.21C409.84 257.031 410.153 256.782 410.379 256.462C410.605 256.138 410.718 255.766 410.718 255.344C410.718 254.905 410.605 254.519 410.379 254.187C410.157 253.85 409.831 253.586 409.401 253.394C408.975 253.202 408.459 253.107 407.854 253.107H406.748V251.496H407.854C408.34 251.496 408.766 251.408 409.133 251.234C409.503 251.059 409.793 250.816 410.002 250.505C410.211 250.19 410.315 249.821 410.315 249.399C410.315 248.994 410.224 248.643 410.04 248.344C409.861 248.042 409.606 247.805 409.273 247.635C408.945 247.464 408.557 247.379 408.11 247.379C407.684 247.379 407.285 247.458 406.915 247.616C406.548 247.769 406.25 247.991 406.02 248.281C405.79 248.566 405.666 248.909 405.649 249.31H403.738C403.759 248.602 403.968 247.98 404.364 247.443C404.765 246.906 405.293 246.487 405.949 246.184C406.606 245.881 407.334 245.73 408.135 245.73C408.975 245.73 409.699 245.894 410.309 246.222C410.922 246.546 411.395 246.979 411.728 247.52C412.064 248.061 412.231 248.653 412.226 249.297C412.231 250.03 412.026 250.652 411.613 251.163C411.204 251.675 410.658 252.018 409.976 252.192V252.295C410.846 252.427 411.519 252.772 411.996 253.33C412.478 253.888 412.716 254.581 412.712 255.408C412.716 256.128 412.516 256.773 412.111 257.344C411.711 257.915 411.163 258.365 410.469 258.693C409.774 259.017 408.979 259.179 408.084 259.179ZM419.686 259.217C418.676 259.213 417.813 258.947 417.097 258.418C416.381 257.89 415.834 257.121 415.454 256.111C415.075 255.101 414.885 253.884 414.885 252.461C414.885 251.042 415.075 249.83 415.454 248.824C415.838 247.818 416.388 247.051 417.104 246.523C417.824 245.994 418.684 245.73 419.686 245.73C420.687 245.73 421.546 245.996 422.262 246.529C422.978 247.058 423.525 247.825 423.905 248.83C424.288 249.832 424.48 251.042 424.48 252.461C424.48 253.888 424.29 255.107 423.911 256.117C423.532 257.123 422.984 257.892 422.268 258.425C421.552 258.953 420.692 259.217 419.686 259.217ZM419.686 257.511C420.572 257.511 421.265 257.078 421.763 256.213C422.266 255.348 422.518 254.097 422.518 252.461C422.518 251.374 422.403 250.456 422.172 249.706C421.947 248.952 421.621 248.381 421.194 247.993C420.773 247.601 420.27 247.405 419.686 247.405C418.804 247.405 418.111 247.839 417.608 248.709C417.106 249.578 416.852 250.829 416.848 252.461C416.848 253.552 416.961 254.474 417.187 255.229C417.417 255.979 417.743 256.548 418.165 256.935C418.586 257.319 419.094 257.511 419.686 257.511Z" fill="black"/>
</g>
<path d="M24 226L426 226" stroke="black" stroke-opacity="0.2" stroke-width="2"/>
<g filter="url(#filter14_i_18_516)">
<path d="M33.8423 212.179C32.9389 212.179 32.1335 212.013 31.4261 211.68C30.723 211.348 30.1648 210.89 29.7514 210.306C29.3381 209.722 29.1229 209.053 29.1058 208.299H31.7905C31.8203 208.806 32.0334 209.217 32.4297 209.533C32.826 209.848 33.2969 210.006 33.8423 210.006C34.277 210.006 34.6605 209.91 34.9929 209.718C35.3295 209.522 35.5916 209.251 35.7791 208.906C35.9709 208.557 36.0668 208.156 36.0668 207.705C36.0668 207.244 35.9688 206.839 35.7727 206.49C35.581 206.141 35.3146 205.868 34.9737 205.672C34.6328 205.476 34.2429 205.376 33.804 205.371C33.4205 205.371 33.0476 205.45 32.6854 205.608C32.3274 205.766 32.0483 205.981 31.848 206.254L29.3871 205.812L30.0071 198.909H38.0099V201.172H32.2891L31.9503 204.451H32.027C32.2571 204.127 32.6044 203.859 33.0689 203.646C33.5334 203.433 34.0533 203.326 34.6286 203.326C35.4169 203.326 36.12 203.511 36.7379 203.882C37.3558 204.253 37.8438 204.762 38.2017 205.41C38.5597 206.053 38.7365 206.795 38.7322 207.634C38.7365 208.516 38.532 209.3 38.1186 209.987C37.7095 210.668 37.1364 211.205 36.3991 211.597C35.6662 211.985 34.8139 212.179 33.8423 212.179ZM46.1639 212.179C45.2605 212.179 44.4551 212.013 43.7477 211.68C43.0446 211.348 42.4863 210.89 42.073 210.306C41.6596 209.722 41.4444 209.053 41.4274 208.299H44.112C44.1419 208.806 44.3549 209.217 44.7513 209.533C45.1476 209.848 45.6184 210.006 46.1639 210.006C46.5986 210.006 46.9821 209.91 47.3145 209.718C47.6511 209.522 47.9132 209.251 48.1007 208.906C48.2924 208.557 48.3883 208.156 48.3883 207.705C48.3883 207.244 48.2903 206.839 48.0943 206.49C47.9025 206.141 47.6362 205.868 47.2953 205.672C46.9544 205.476 46.5645 205.376 46.1255 205.371C45.742 205.371 45.3691 205.45 45.0069 205.608C44.649 205.766 44.3699 205.981 44.1696 206.254L41.7086 205.812L42.3287 198.909H50.3315V201.172H44.6106L44.2718 204.451H44.3486C44.5787 204.127 44.926 203.859 45.3905 203.646C45.8549 203.433 46.3748 203.326 46.9501 203.326C47.7385 203.326 48.4416 203.511 49.0595 203.882C49.6774 204.253 50.1653 204.762 50.5233 205.41C50.8812 206.053 51.0581 206.795 51.0538 207.634C51.0581 208.516 50.8535 209.3 50.4402 209.987C50.0311 210.668 49.4579 211.205 48.7207 211.597C47.9878 211.985 47.1355 212.179 46.1639 212.179ZM58.4855 212.179C57.582 212.179 56.7766 212.013 56.0693 211.68C55.3661 211.348 54.8079 210.89 54.3945 210.306C53.9812 209.722 53.766 209.053 53.7489 208.299H56.4336C56.4634 208.806 56.6765 209.217 57.0728 209.533C57.4691 209.848 57.94 210.006 58.4855 210.006C58.9201 210.006 59.3036 209.91 59.636 209.718C59.9727 209.522 60.2347 209.251 60.4222 208.906C60.614 208.557 60.7099 208.156 60.7099 207.705C60.7099 207.244 60.6119 206.839 60.4159 206.49C60.2241 206.141 59.9578 205.868 59.6168 205.672C59.2759 205.476 58.886 205.376 58.4471 205.371C58.0636 205.371 57.6907 205.45 57.3285 205.608C56.9705 205.766 56.6914 205.981 56.4911 206.254L54.0302 205.812L54.6502 198.909H62.6531V201.172H56.9322L56.5934 204.451H56.6701C56.9002 204.127 57.2475 203.859 57.712 203.646C58.1765 203.433 58.6964 203.326 59.2717 203.326C60.06 203.326 60.7632 203.511 61.3811 203.882C61.9989 204.253 62.4869 204.762 62.8448 205.41C63.2028 206.053 63.3796 206.795 63.3754 207.634C63.3796 208.516 63.1751 209.3 62.7617 209.987C62.3526 210.668 61.7795 211.205 61.0423 211.597C60.3093 211.985 59.457 212.179 58.4855 212.179ZM70.807 212.179C69.9036 212.179 69.0982 212.013 68.3908 211.68C67.6877 211.348 67.1295 210.89 66.7161 210.306C66.3028 209.722 66.0876 209.053 66.0705 208.299H68.7552C68.785 208.806 68.9981 209.217 69.3944 209.533C69.7907 209.848 70.2616 210.006 70.807 210.006C71.2417 210.006 71.6252 209.91 71.9576 209.718C72.2942 209.522 72.5563 209.251 72.7438 208.906C72.9356 208.557 73.0314 208.156 73.0314 207.705C73.0314 207.244 72.9334 206.839 72.7374 206.49C72.5457 206.141 72.2793 205.868 71.9384 205.672C71.5975 205.476 71.2076 205.376 70.7687 205.371C70.3851 205.371 70.0123 205.45 69.6501 205.608C69.2921 205.766 69.013 205.981 68.8127 206.254L66.3518 205.812L66.9718 198.909H74.9746V201.172H69.2537L68.915 204.451H68.9917C69.2218 204.127 69.5691 203.859 70.0336 203.646C70.4981 203.433 71.018 203.326 71.5932 203.326C72.3816 203.326 73.0847 203.511 73.7026 203.882C74.3205 204.253 74.8084 204.762 75.1664 205.41C75.5243 206.053 75.7012 206.795 75.6969 207.634C75.7012 208.516 75.4966 209.3 75.0833 209.987C74.6742 210.668 74.1011 211.205 73.3638 211.597C72.6309 211.985 71.7786 212.179 70.807 212.179ZM83.0352 209.699V207.519L88.5004 198.909H90.3797V201.926H89.2674L85.8221 207.379V207.481H93.5885V209.699H83.0352ZM89.3186 212V209.034L89.3697 208.069V198.909H91.9649V212H89.3186ZM95.9544 209.699V207.519L101.42 198.909H103.299V201.926H102.187L98.7413 207.379V207.481H106.508V209.699H95.9544ZM102.238 212V209.034L102.289 208.069V198.909H104.884V212H102.238ZM108.874 209.699V207.519L114.339 198.909H116.218V201.926H115.106L111.661 207.379V207.481H119.427V209.699H108.874ZM115.157 212V209.034L115.208 208.069V198.909H117.803V212H115.157ZM121.793 209.699V207.519L127.258 198.909H129.137V201.926H128.025L124.58 207.379V207.481H132.346V209.699H121.793ZM128.076 212V209.034L128.127 208.069V198.909H130.723V212H128.076ZM144.577 212.179C143.674 212.179 142.869 212.013 142.161 211.68C141.458 211.348 140.9 210.89 140.487 210.306C140.073 209.722 139.858 209.053 139.841 208.299H142.526C142.555 208.806 142.769 209.217 143.165 209.533C143.561 209.848 144.032 210.006 144.577 210.006C145.012 210.006 145.396 209.91 145.728 209.718C146.065 209.522 146.327 209.251 146.514 208.906C146.706 208.557 146.802 208.156 146.802 207.705C146.802 207.244 146.704 206.839 146.508 206.49C146.316 206.141 146.05 205.868 145.709 205.672C145.368 205.476 144.978 205.376 144.539 205.371C144.156 205.371 143.783 205.45 143.421 205.608C143.063 205.766 142.783 205.981 142.583 206.254L140.122 205.812L140.742 198.909H148.745V201.172H143.024L142.685 204.451H142.762C142.992 204.127 143.34 203.859 143.804 203.646C144.269 203.433 144.788 203.326 145.364 203.326C146.152 203.326 146.855 203.511 147.473 203.882C148.091 204.253 148.579 204.762 148.937 205.41C149.295 206.053 149.472 206.795 149.467 207.634C149.472 208.516 149.267 209.3 148.854 209.987C148.445 210.668 147.872 211.205 147.134 211.597C146.401 211.985 145.549 212.179 144.577 212.179ZM156.899 212.179C155.996 212.179 155.19 212.013 154.483 211.68C153.78 211.348 153.221 210.89 152.808 210.306C152.395 209.722 152.18 209.053 152.163 208.299H154.847C154.877 208.806 155.09 209.217 155.486 209.533C155.883 209.848 156.354 210.006 156.899 210.006C157.334 210.006 157.717 209.91 158.05 209.718C158.386 209.522 158.648 209.251 158.836 208.906C159.028 208.557 159.123 208.156 159.123 207.705C159.123 207.244 159.025 206.839 158.829 206.49C158.638 206.141 158.371 205.868 158.03 205.672C157.69 205.476 157.3 205.376 156.861 205.371C156.477 205.371 156.104 205.45 155.742 205.608C155.384 205.766 155.105 205.981 154.905 206.254L152.444 205.812L153.064 198.909H161.067V201.172H155.346L155.007 204.451H155.084C155.314 204.127 155.661 203.859 156.126 203.646C156.59 203.433 157.11 203.326 157.685 203.326C158.474 203.326 159.177 203.511 159.795 203.882C160.413 204.253 160.9 204.762 161.258 205.41C161.616 206.053 161.793 206.795 161.789 207.634C161.793 208.516 161.589 209.3 161.175 209.987C160.766 210.668 160.193 211.205 159.456 211.597C158.723 211.985 157.871 212.179 156.899 212.179ZM169.221 212.179C168.317 212.179 167.512 212.013 166.804 211.68C166.101 211.348 165.543 210.89 165.13 210.306C164.716 209.722 164.501 209.053 164.484 208.299H167.169C167.199 208.806 167.412 209.217 167.808 209.533C168.204 209.848 168.675 210.006 169.221 210.006C169.655 210.006 170.039 209.91 170.371 209.718C170.708 209.522 170.97 209.251 171.157 208.906C171.349 208.557 171.445 208.156 171.445 207.705C171.445 207.244 171.347 206.839 171.151 206.49C170.959 206.141 170.693 205.868 170.352 205.672C170.011 205.476 169.621 205.376 169.182 205.371C168.799 205.371 168.426 205.45 168.064 205.608C167.706 205.766 167.427 205.981 167.226 206.254L164.765 205.812L165.385 198.909H173.388V201.172H167.667L167.329 204.451H167.405C167.635 204.127 167.983 203.859 168.447 203.646C168.912 203.433 169.432 203.326 170.007 203.326C170.795 203.326 171.498 203.511 172.116 203.882C172.734 204.253 173.222 204.762 173.58 205.41C173.938 206.053 174.115 206.795 174.111 207.634C174.115 208.516 173.91 209.3 173.497 209.987C173.088 210.668 172.515 211.205 171.777 211.597C171.044 211.985 170.192 212.179 169.221 212.179ZM181.542 212.179C180.639 212.179 179.833 212.013 179.126 211.68C178.423 211.348 177.865 210.89 177.451 210.306C177.038 209.722 176.823 209.053 176.806 208.299H179.49C179.52 208.806 179.733 209.217 180.13 209.533C180.526 209.848 180.997 210.006 181.542 210.006C181.977 210.006 182.36 209.91 182.693 209.718C183.029 209.522 183.291 209.251 183.479 208.906C183.671 208.557 183.767 208.156 183.767 207.705C183.767 207.244 183.669 206.839 183.473 206.49C183.281 206.141 183.014 205.868 182.674 205.672C182.333 205.476 181.943 205.376 181.504 205.371C181.12 205.371 180.747 205.45 180.385 205.608C180.027 205.766 179.748 205.981 179.548 206.254L177.087 205.812L177.707 198.909H185.71V201.172H179.989L179.65 204.451H179.727C179.957 204.127 180.304 203.859 180.769 203.646C181.233 203.433 181.753 203.326 182.328 203.326C183.117 203.326 183.82 203.511 184.438 203.882C185.056 204.253 185.544 204.762 185.902 205.41C186.26 206.053 186.436 206.795 186.432 207.634C186.436 208.516 186.232 209.3 185.818 209.987C185.409 210.668 184.836 211.205 184.099 211.597C183.366 211.985 182.514 212.179 181.542 212.179ZM193.77 209.699V207.519L199.236 198.909H201.115V201.926H200.003L196.557 207.379V207.481H204.324V209.699H193.77ZM200.054 212V209.034L200.105 208.069V198.909H202.7V212H200.054ZM206.69 209.699V207.519L212.155 198.909H214.034V201.926H212.922L209.477 207.379V207.481H217.243V209.699H206.69ZM212.973 212V209.034L213.024 208.069V198.909H215.619V212H212.973ZM219.609 209.699V207.519L225.074 198.909H226.953V201.926H225.841L222.396 207.379V207.481H230.162V209.699H219.609ZM225.892 212V209.034L225.943 208.069V198.909H228.538V212H225.892ZM232.528 209.699V207.519L237.993 198.909H239.872V201.926H238.76L235.315 207.379V207.481H243.081V209.699H232.528ZM238.811 212V209.034L238.863 208.069V198.909H241.458V212H238.811Z" fill="black"/>
</g>
</g>
<g clip-path="url(#clip0_18_516)">
<path d="M406.33 27H400.709L420.842 51.9808H426.479L416.411 39.4989L426.463 27.0189L420.842 27.0277L413.597 36.01L406.33 27ZM412.098 44.844L409.283 41.3501L400.693 52H406.33L412.098 44.844Z" fill="black"/>
<path fill-rule="evenodd" clip-rule="evenodd" d="M418.813 52L399.55 27H394.421V51.9896H398.524V32.3416L413.658 52H418.813Z" fill="black"/>
</g>
<path d="M82.8735 49.0485L85.4277 30.3747H89.5117L86.9567 49.0485H82.8735ZM101.693 30.7844C100.521 30.2553 99.2831 29.9898 98.0366 30.0003C94.0062 30.0003 91.1668 32.5299 91.1423 36.156C91.1202 38.8361 93.1698 40.3309 94.7171 41.2227C96.305 42.1373 96.8386 42.7204 96.831 43.5369C96.821 44.7869 95.5627 45.3576 94.3907 45.3576C92.7577 45.3576 91.8908 45.0718 90.5506 44.3792L90.0254 44.0828L89.4528 48.2578C90.4053 48.778 92.1675 49.2296 93.9962 49.2524C98.2843 49.2524 101.068 46.7524 101.1 42.8805C101.115 40.7587 100.03 39.1438 97.675 37.8128C96.2492 36.9553 95.3761 36.3742 95.3853 35.5005C95.3853 34.7259 96.1246 33.8971 97.7216 33.8971C98.768 33.8679 99.8077 34.1113 100.774 34.6116L101.14 34.8269L101.693 30.7844ZM112.185 30.3747H109.043C108.07 30.3747 107.341 30.7063 106.914 31.9163L100.874 48.9533H105.173C105.173 48.9533 105.861 46.6876 106.019 46.1903L111.17 46.1979C111.29 46.842 111.659 48.9533 111.659 48.9533H115.476L112.185 30.3747ZM107.189 42.3793C107.526 41.3046 108.814 37.1659 108.814 37.1659C108.79 37.2154 109.149 36.0855 109.355 35.3852L109.631 36.9935C109.631 36.9935 110.412 41.4456 110.575 42.3793H107.189ZM79.408 30.3747L75.4235 43.0644L74.9992 40.4853C74.2576 37.5127 71.9465 34.2924 69.3625 32.6804L73.0061 48.9533L77.3118 48.9475L83.719 30.3747H79.3882" fill="url(#paint10_linear_18_516)"/>
<path d="M71.5255 30.3744H64.976L64.9233 30.7622C70.0409 32.3066 73.4268 36.0375 74.8327 40.5192L73.4023 31.9445C73.1554 30.7641 72.4399 30.4116 71.5538 30.3706" fill="url(#paint11_linear_18_516)"/>
<g opacity="0.7">
<rect x="24.7" y="24.7" width="33.9063" height="29.6" rx="6.55" fill="white" fill-opacity="0.26" stroke="black" stroke-width="1.4"/>
<path d="M24.5519 33.5361H32.5118C34.5138 33.5361 36.1368 35.1591 36.1368 37.1611V41.0061M36.1368 54.3885V48.4761M36.1368 48.4761V41.0061M36.1368 48.4761H24.5519M36.1368 41.0061H24.5519" stroke="black" stroke-width="1.4"/>
<path d="M58.7547 33.5361H47.7214M47.7214 33.5361V41.0061M47.7214 33.5361V24.6357M47.7214 54.3885V48.4761M47.7214 48.4761V41.0061M47.7214 48.4761H58.7547M47.7214 41.0061H58.7547" stroke="black" stroke-width="1.4"/>
</g>
<defs>
<filter id="filter0_d_18_516" x="-79.3588" y="67.8164" width="162" height="80.7014" filterUnits="userSpaceOnUse" color-interpolation-filters="sRGB">
<feFlood flood-opacity="0" result="BackgroundImageFix"/>
<feColorMatrix in="SourceAlpha" type="matrix" values="0 0 0 0 0 0 0 0 0 0 0 0 0 0 0 0 0 0 127 0" result="hardAlpha"/>
<feOffset dx="8" dy="8"/>
<feGaussianBlur stdDeviation="2"/>
<feComposite in2="hardAlpha" operator="out"/>
<feColorMatrix type="matrix" values="0 0 0 0 0 0 0 0 0 0 0 0 0 0 0 0 0 0 0.5 0"/>
<feBlend mode="normal" in2="BackgroundImageFix" result="effect1_dropShadow_18_516"/>
<feBlend mode="normal" in="SourceGraphic" in2="effect1_dropShadow_18_516" result="shape"/>
</filter>
<filter id="filter1_d_18_516" x="362.805" y="140.312" width="162" height="80.7014" filterUnits="userSpaceOnUse" color-interpolation-filters="sRGB">
<feFlood flood-opacity="0" result="BackgroundImageFix"/>
<feColorMatrix in="SourceAlpha" type="matrix" values="0 0 0 0 0 0 0 0 0 0 0 0 0 0 0 0 0 0 127 0" result="hardAlpha"/>
<feOffset dx="-8" dy="8"/>
<feGaussianBlur stdDeviation="2"/>
<feComposite in2="hardAlpha" operator="out"/>
<feColorMatrix type="matrix" values="0 0 0 0 0 0 0 0 0 0 0 0 0 0 0 0 0 0 0.5 0"/>
<feBlend mode="normal" in2="BackgroundImageFix" result="effect1_dropShadow_18_516"/>
<feBlend mode="normal" in="SourceGraphic" in2="effect1_dropShadow_18_516" result="shape"/>
</filter>
<filter id="filter2_dii_18_516" x="171" y="16" width="167" height="167" filterUnits="userSpaceOnUse" color-interpolation-filters="sRGB">
<feFlood flood-opacity="0" result="BackgroundImageFix"/>
<feColorMatrix in="SourceAlpha" type="matrix" values="0 0 0 0 0 0 0 0 0 0 0 0 0 0 0 0 0 0 127 0" result="hardAlpha"/>
<feOffset dx="-20" dy="20"/>
<feGaussianBlur stdDeviation="10"/>
<feComposite in2="hardAlpha" operator="out"/>
<feColorMatrix type="matrix" values="0 0 0 0 0 0 0 0 0 0 0 0 0 0 0 0 0 0 0.25 0"/>
<feBlend mode="normal" in2="BackgroundImageFix" result="effect1_dropShadow_18_516"/>
<feBlend mode="normal" in="SourceGraphic" in2="effect1_dropShadow_18_516" result="shape"/>
<feColorMatrix in="SourceAlpha" type="matrix" values="0 0 0 0 0 0 0 0 0 0 0 0 0 0 0 0 0 0 127 0" result="hardAlpha"/>
<feOffset dx="2" dy="-2"/>
<feGaussianBlur stdDeviation="1"/>
<feComposite in2="hardAlpha" operator="arithmetic" k2="-1" k3="1"/>
<feColorMatrix type="matrix" values="0 0 0 0 0 0 0 0 0 0 0 0 0 0 0 0 0 0 0.25 0"/>
<feBlend mode="normal" in2="shape" result="effect2_innerShadow_18_516"/>
<feColorMatrix in="SourceAlpha" type="matrix" values="0 0 0 0 0 0 0 0 0 0 0 0 0 0 0 0 0 0 127 0" result="hardAlpha"/>
<feOffset dx="-2" dy="2"/>
<feGaussianBlur stdDeviation="1"/>
<feComposite in2="hardAlpha" operator="arithmetic" k2="-1" k3="1"/>
<feColorMatrix type="matrix" values="0 0 0 0 1 0 0 0 0 1 0 0 0 0 1 0 0 0 0.25 0"/>
<feBlend mode="normal" in2="effect2_innerShadow_18_516" result="effect3_innerShadow_18_516"/>
</filter>
<filter id="filter3_d_18_516" x="217.757" y="40.645" width="95.6413" height="95.71" filterUnits="userSpaceOnUse" color-interpolation-filters="sRGB">
<feFlood flood-opacity="0" result="BackgroundImageFix"/>
<feColorMatrix in="SourceAlpha" type="matrix" values="0 0 0 0 0 0 0 0 0 0 0 0 0 0 0 0 0 0 127 0" result="hardAlpha"/>
<feOffset dx="-8" dy="8"/>
<feGaussianBlur stdDeviation="10"/>
<feComposite in2="hardAlpha" operator="out"/>
<feColorMatrix type="matrix" values="0 0 0 0 0 0 0 0 0 0 0 0 0 0 0 0 0 0 0.25 0"/>
<feBlend mode="normal" in2="BackgroundImageFix" result="effect1_dropShadow_18_516"/>
<feBlend mode="normal" in="SourceGraphic" in2="effect1_dropShadow_18_516" result="shape"/>
</filter>
<filter id="filter4_d_18_516" x="243.958" y="6" width="43.3139" height="66.4663" filterUnits="userSpaceOnUse" color-interpolation-filters="sRGB">
<feFlood flood-opacity="0" result="BackgroundImageFix"/>
<feColorMatrix in="SourceAlpha" type="matrix" values="0 0 0 0 0 0 0 0 0 0 0 0 0 0 0 0 0 0 127 0" result="hardAlpha"/>
<feOffset dx="-8" dy="8"/>
<feGaussianBlur stdDeviation="10"/>
<feComposite in2="hardAlpha" operator="out"/>
<feColorMatrix type="matrix" values="0 0 0 0 0 0 0 0 0 0 0 0 0 0 0 0 0 0 0.25 0"/>
<feBlend mode="normal" in2="BackgroundImageFix" result="effect1_dropShadow_18_516"/>
<feBlend mode="normal" in="SourceGraphic" in2="effect1_dropShadow_18_516" result="shape"/>
</filter>
<filter id="filter5_d_18_516" x="243.958" y="104.534" width="43.3139" height="66.4658" filterUnits="userSpaceOnUse" color-interpolation-filters="sRGB">
<feFlood flood-opacity="0" result="BackgroundImageFix"/>
<feColorMatrix in="SourceAlpha" type="matrix" values="0 0 0 0 0 0 0 0 0 0 0 0 0 0 0 0 0 0 127 0" result="hardAlpha"/>
<feOffset dx="-8" dy="8"/>
<feGaussianBlur stdDeviation="10"/>
<feComposite in2="hardAlpha" operator="out"/>
<feColorMatrix type="matrix" values="0 0 0 0 0 0 0 0 0 0 0 0 0 0 0 0 0 0 0.25 0"/>
<feBlend mode="normal" in2="BackgroundImageFix" result="effect1_dropShadow_18_516"/>
<feBlend mode="normal" in="SourceGraphic" in2="effect1_dropShadow_18_516" result="shape"/>
</filter>
<filter id="filter6_d_18_516" x="268.925" y="94.7842" width="61.0871" height="59.1353" filterUnits="userSpaceOnUse" color-interpolation-filters="sRGB">
<feFlood flood-opacity="0" result="BackgroundImageFix"/>
<feColorMatrix in="SourceAlpha" type="matrix" values="0 0 0 0 0 0 0 0 0 0 0 0 0 0 0 0 0 0 127 0" result="hardAlpha"/>
<feOffset dx="-8" dy="8"/>
<feGaussianBlur stdDeviation="10"/>
<feComposite in2="hardAlpha" operator="out"/>
<feColorMatrix type="matrix" values="0 0 0 0 0 0 0 0 0 0 0 0 0 0 0 0 0 0 0.25 0"/>
<feBlend mode="normal" in2="BackgroundImageFix" result="effect1_dropShadow_18_516"/>
<feBlend mode="normal" in="SourceGraphic" in2="effect1_dropShadow_18_516" result="shape"/>
</filter>
<filter id="filter7_d_18_516" x="201.416" y="22.8713" width="61.0871" height="59.1355" filterUnits="userSpaceOnUse" color-interpolation-filters="sRGB">
<feFlood flood-opacity="0" result="BackgroundImageFix"/>
<feColorMatrix in="SourceAlpha" type="matrix" values="0 0 0 0 0 0 0 0 0 0 0 0 0 0 0 0 0 0 127 0" result="hardAlpha"/>
<feOffset dx="-8" dy="8"/>
<feGaussianBlur stdDeviation="10"/>
<feComposite in2="hardAlpha" operator="out"/>
<feColorMatrix type="matrix" values="0 0 0 0 0 0 0 0 0 0 0 0 0 0 0 0 0 0 0.25 0"/>
<feBlend mode="normal" in2="BackgroundImageFix" result="effect1_dropShadow_18_516"/>
<feBlend mode="normal" in="SourceGraphic" in2="effect1_dropShadow_18_516" result="shape"/>
</filter>
<filter id="filter8_d_18_516" x="269.572" y="23.4106" width="61.0867" height="59.1357" filterUnits="userSpaceOnUse" color-interpolation-filters="sRGB">
<feFlood flood-opacity="0" result="BackgroundImageFix"/>
<feColorMatrix in="SourceAlpha" type="matrix" values="0 0 0 0 0 0 0 0 0 0 0 0 0 0 0 0 0 0 127 0" result="hardAlpha"/>
<feOffset dx="-8" dy="8"/>
<feGaussianBlur stdDeviation="10"/>
<feComposite in2="hardAlpha" operator="out"/>
<feColorMatrix type="matrix" values="0 0 0 0 0 0 0 0 0 0 0 0 0 0 0 0 0 0 0.25 0"/>
<feBlend mode="normal" in2="BackgroundImageFix" result="effect1_dropShadow_18_516"/>
<feBlend mode="normal" in="SourceGraphic" in2="effect1_dropShadow_18_516" result="shape"/>
</filter>
<filter id="filter9_d_18_516" x="200.984" y="94.6299" width="61.0866" height="59.1357" filterUnits="userSpaceOnUse" color-interpolation-filters="sRGB">
<feFlood flood-opacity="0" result="BackgroundImageFix"/>
<feColorMatrix in="SourceAlpha" type="matrix" values="0 0 0 0 0 0 0 0 0 0 0 0 0 0 0 0 0 0 127 0" result="hardAlpha"/>
<feOffset dx="-8" dy="8"/>
<feGaussianBlur stdDeviation="10"/>
<feComposite in2="hardAlpha" operator="out"/>
<feColorMatrix type="matrix" values="0 0 0 0 0 0 0 0 0 0 0 0 0 0 0 0 0 0 0.25 0"/>
<feBlend mode="normal" in2="BackgroundImageFix" result="effect1_dropShadow_18_516"/>
<feBlend mode="normal" in="SourceGraphic" in2="effect1_dropShadow_18_516" result="shape"/>
</filter>
<filter id="filter10_d_18_516" x="183" y="66.8018" width="66.4334" height="43.3181" filterUnits="userSpaceOnUse" color-interpolation-filters="sRGB">
<feFlood flood-opacity="0" result="BackgroundImageFix"/>
<feColorMatrix in="SourceAlpha" type="matrix" values="0 0 0 0 0 0 0 0 0 0 0 0 0 0 0 0 0 0 127 0" result="hardAlpha"/>
<feOffset dx="-8" dy="8"/>
<feGaussianBlur stdDeviation="10"/>
<feComposite in2="hardAlpha" operator="out"/>
<feColorMatrix type="matrix" values="0 0 0 0 0 0 0 0 0 0 0 0 0 0 0 0 0 0 0.25 0"/>
<feBlend mode="normal" in2="BackgroundImageFix" result="effect1_dropShadow_18_516"/>
<feBlend mode="normal" in="SourceGraphic" in2="effect1_dropShadow_18_516" result="shape"/>
</filter>
<filter id="filter11_d_18_516" x="281.566" y="66.8018" width="66.4335" height="43.3181" filterUnits="userSpaceOnUse" color-interpolation-filters="sRGB">
<feFlood flood-opacity="0" result="BackgroundImageFix"/>
<feColorMatrix in="SourceAlpha" type="matrix" values="0 0 0 0 0 0 0 0 0 0 0 0 0 0 0 0 0 0 127 0" result="hardAlpha"/>
<feOffset dx="-8" dy="8"/>
<feGaussianBlur stdDeviation="10"/>
<feComposite in2="hardAlpha" operator="out"/>
<feColorMatrix type="matrix" values="0 0 0 0 0 0 0 0 0 0 0 0 0 0 0 0 0 0 0.25 0"/>
<feBlend mode="normal" in2="BackgroundImageFix" result="effect1_dropShadow_18_516"/>
<feBlend mode="normal" in="SourceGraphic" in2="effect1_dropShadow_18_516" result="shape"/>
</filter>
<filter id="filter12_d_18_516" x="21.1506" y="243.909" width="108.956" height="15.3635" filterUnits="userSpaceOnUse" color-interpolation-filters="sRGB">
<feFlood flood-opacity="0" result="BackgroundImageFix"/>
<feColorMatrix in="SourceAlpha" type="matrix" values="0 0 0 0 0 0 0 0 0 0 0 0 0 0 0 0 0 0 127 0" result="hardAlpha"/>
<feOffset dy="4"/>
<feGaussianBlur stdDeviation="2"/>
<feComposite in2="hardAlpha" operator="out"/>
<feColorMatrix type="matrix" values="0 0 0 0 0.3625 0 0 0 0 0.3625 0 0 0 0 0.3625 0 0 0 0.25 0"/>
<feBlend mode="normal" in2="BackgroundImageFix" result="effect1_dropShadow_18_516"/>
<feBlend mode="normal" in="SourceGraphic" in2="effect1_dropShadow_18_516" result="shape"/>
</filter>
<filter id="filter13_d_18_516" x="370.016" y="245.295" width="58.4636" height="23.6733" filterUnits="userSpaceOnUse" color-interpolation-filters="sRGB">
<feFlood flood-opacity="0" result="BackgroundImageFix"/>
<feColorMatrix in="SourceAlpha" type="matrix" values="0 0 0 0 0 0 0 0 0 0 0 0 0 0 0 0 0 0 127 0" result="hardAlpha"/>
<feOffset dy="4"/>
<feGaussianBlur stdDeviation="2"/>
<feComposite in2="hardAlpha" operator="out"/>
<feColorMatrix type="matrix" values="0 0 0 0 0.3625 0 0 0 0 0.3625 0 0 0 0 0.3625 0 0 0 0.25 0"/>
<feBlend mode="normal" in2="BackgroundImageFix" result="effect1_dropShadow_18_516"/>
<feBlend mode="normal" in="SourceGraphic" in2="effect1_dropShadow_18_516" result="shape"/>
</filter>
<filter id="filter14_i_18_516" x="29.1058" y="198.909" width="213.975" height="17.8515" filterUnits="userSpaceOnUse" color-interpolation-filters="sRGB">
<feFlood flood-opacity="0" result="BackgroundImageFix"/>
<feBlend mode="normal" in="SourceGraphic" in2="BackgroundImageFix" result="shape"/>
<feColorMatrix in="SourceAlpha" type="matrix" values="0 0 0 0 0 0 0 0 0 0 0 0 0 0 0 0 0 0 127 0" result="hardAlpha"/>
<feOffset dy="4.58177"/>
<feGaussianBlur stdDeviation="2.29088"/>
<feComposite in2="hardAlpha" operator="arithmetic" k2="-1" k3="1"/>
<feColorMatrix type="matrix" values="0 0 0 0 0.916667 0 0 0 0 0.916667 0 0 0 0 0.916667 0 0 0 0.25 0"/>
<feBlend mode="normal" in2="shape" result="effect1_innerShadow_18_516"/>
</filter>
<linearGradient id="paint0_linear_18_516" x1="0.123751" y1="125.102" x2="450.024" y2="143.926" gradientUnits="userSpaceOnUse">
<stop offset="0.00638632" stop-color="#3A3A3A" stop-opacity="0.32"/>
<stop offset="1" stop-color="#323232" stop-opacity="0.37"/>
</linearGradient>
<radialGradient id="paint1_radial_18_516" cx="0" cy="0" r="1" gradientUnits="userSpaceOnUse" gradientTransform="translate(282.783 68.4158) rotate(66.2765) scale(16.7791 13.8809)">
<stop stop-color="white"/>
<stop offset="1"/>
</radialGradient>
<radialGradient id="paint2_radial_18_516" cx="0" cy="0" r="1" gradientUnits="userSpaceOnUse" gradientTransform="translate(1.63482 12.3141) rotate(90) scale(14.4232 0.903604)">
<stop stop-color="white"/>
<stop offset="1"/>
</radialGradient>
<radialGradient id="paint3_radial_18_516" cx="0" cy="0" r="1" gradientUnits="userSpaceOnUse" gradientTransform="translate(1.63482 12.3142) rotate(90) scale(14.4234 0.903604)">
<stop stop-color="white"/>
<stop offset="1"/>
</radialGradient>
<radialGradient id="paint4_radial_18_516" cx="0" cy="0" r="1" gradientUnits="userSpaceOnUse" gradientTransform="translate(1.63595 12.3057) rotate(90) scale(14.4133 0.90423)">
<stop stop-color="white"/>
<stop offset="1"/>
</radialGradient>
<radialGradient id="paint5_radial_18_516" cx="0" cy="0" r="1" gradientUnits="userSpaceOnUse" gradientTransform="translate(1.63595 12.3057) rotate(90) scale(14.4133 0.90423)">
<stop stop-color="white"/>
<stop offset="1"/>
</radialGradient>
<radialGradient id="paint6_radial_18_516" cx="0" cy="0" r="1" gradientUnits="userSpaceOnUse" gradientTransform="translate(1.63595 12.3057) rotate(90) scale(14.4133 0.90423)">
<stop stop-color="white"/>
<stop offset="1"/>
</radialGradient>
<radialGradient id="paint7_radial_18_516" cx="0" cy="0" r="1" gradientUnits="userSpaceOnUse" gradientTransform="translate(1.63595 12.3057) rotate(90) scale(14.4133 0.90423)">
<stop stop-color="white"/>
<stop offset="1"/>
</radialGradient>
<radialGradient id="paint8_radial_18_516" cx="0" cy="0" r="1" gradientUnits="userSpaceOnUse" gradientTransform="translate(1.63683 12.2991) rotate(90) scale(14.4056 0.904718)">
<stop stop-color="white"/>
<stop offset="1"/>
</radialGradient>
<radialGradient id="paint9_radial_18_516" cx="0" cy="0" r="1" gradientUnits="userSpaceOnUse" gradientTransform="translate(1.63683 12.299) rotate(90) scale(14.4056 0.904718)">
<stop stop-color="white"/>
<stop offset="1"/>
</radialGradient>
<linearGradient id="paint10_linear_18_516" x1="92.419" y1="30" x2="92.419" y2="49.2524" gradientUnits="userSpaceOnUse">
<stop/>
<stop offset="1" stop-opacity="0.75"/>
</linearGradient>
<linearGradient id="paint11_linear_18_516" x1="69.878" y1="30.3706" x2="69.878" y2="40.5192" gradientUnits="userSpaceOnUse">
<stop/>
<stop offset="1" stop-opacity="0.75"/>
</linearGradient>
<clipPath id="clip0_18_516">
<rect width="31.5795" height="25" fill="white" transform="translate(394.421 27)"/>
</clipPath>
</defs>
</svg>
