<svg width="104" height="100" viewBox="0 0 104 100" fill="none" xmlns="http://www.w3.org/2000/svg">
<ellipse cx="51.9609" cy="24.9999" rx="17.3203" ry="16.6667" fill="white"/>
<rect x="61" y="68" width="21" height="18" fill="white"/>
<path fill-rule="evenodd" clip-rule="evenodd" d="M58.5102 89.531C60.7296 91.6667 64.3018 91.6667 71.446 91.6667C78.5902 91.6667 82.1624 91.6667 84.3818 89.531C86.6012 87.3953 86.6012 83.958 86.6012 77.0833C86.6012 70.2087 86.6012 66.7714 84.3818 64.6357C82.1624 62.5 78.5902 62.5 71.446 62.5C64.3018 62.5 60.7296 62.5 58.5102 64.6357C56.2908 66.7714 56.2908 70.2087 56.2908 77.0833C56.2908 83.958 56.2908 87.3953 58.5102 89.531ZM67.231 83.2353C64.1912 81.1407 60.6208 78.6805 60.6208 74.4158C60.6208 69.7077 66.5749 66.3689 71.446 70.8951C76.3172 66.3689 82.2712 69.7077 82.2712 74.4158C82.2712 78.6805 78.7008 81.1407 75.661 83.2353C75.3451 83.453 75.0349 83.6667 74.735 83.8782C73.611 84.6706 72.5285 85.4167 71.446 85.4167C70.3635 85.4167 69.281 84.6706 68.157 83.8782C67.8571 83.6667 67.5469 83.453 67.231 83.2353Z" fill="black" stroke="black"/>
<path d="M66.7469 56.2809C62.373 54.9344 57.33 54.1667 51.9608 54.1667C35.2208 54.1667 21.6504 61.6287 21.6504 70.8334C21.6504 79.7524 34.3913 87.0351 50.4113 87.4787C50.2937 86.9524 50.2029 86.4301 50.1312 85.9171C49.7949 83.5099 49.7954 80.5689 49.7959 77.4416V76.7252C49.7954 73.5979 49.7949 70.6568 50.1312 68.2496C50.5055 65.5709 51.4 62.6389 53.9177 60.2163C56.4353 57.7936 59.4823 56.9329 62.2661 56.5727C63.6168 56.398 65.1294 56.3177 66.7469 56.2809Z" fill="white"/>
</svg>
