<svg xmlns="http://www.w3.org/2000/svg" width="22" height="22" fill="none"><path fill="#0A0A0A" fill-rule="evenodd" d="M14.405 3a.78.78 0 0 0 .04 1.103l2.186 2.03H7.693a.78.78 0 1 0 0 1.56h8.938l-2.186 2.03a.78.78 0 1 0 1.062 1.143l3.642-3.381a.78.78 0 0 0 0-1.144L15.507 2.96a.78.78 0 0 0-1.102.04m-6.66 8.324a.78.78 0 0 0-1.103-.04l-3.641 3.38a.78.78 0 0 0 0 1.144l3.641 3.382a.78.78 0 1 0 1.062-1.144l-2.185-2.03h8.937a.78.78 0 0 0 0-1.56H5.52l2.185-2.03a.78.78 0 0 0 .04-1.102" clip-rule="evenodd"/></svg>