<svg width="37" height="36" viewBox="0 0 37 36" fill="none" xmlns="http://www.w3.org/2000/svg">
<path d="M24.0771 21C26.0098 21.0001 27.8679 21.7463 29.2638 23.083C30.6597 24.4197 31.4858 26.2436 31.5696 28.1745L31.5771 28.5V30C31.5774 30.7569 31.2915 31.4858 30.7769 32.0408C30.2623 32.5958 29.5569 32.9357 28.8021 32.9925L28.5771 33H7.57715C6.82028 33.0002 6.0913 32.7144 5.53633 32.1998C4.98135 31.6851 4.64141 30.9797 4.58465 30.225L4.57715 30V28.5C4.57726 26.5673 5.32346 24.7093 6.66014 23.3133C7.99682 21.9174 9.82077 21.0914 11.7516 21.0075L12.0771 21H24.0771ZM18.0771 3C20.0663 3 21.9739 3.79018 23.3804 5.1967C24.787 6.60322 25.5771 8.51088 25.5771 10.5C25.5771 12.4891 24.787 14.3968 23.3804 15.8033C21.9739 17.2098 20.0663 18 18.0771 18C16.088 18 14.1804 17.2098 12.7738 15.8033C11.3673 14.3968 10.5771 12.4891 10.5771 10.5C10.5771 8.51088 11.3673 6.60322 12.7738 5.1967C14.1804 3.79018 16.088 3 18.0771 3Z" fill="black"/>
</svg>
